<?xml version="1.0" encoding="UTF-8" standalone="no"?>
<!-- Created with Inkscape (http://www.inkscape.org/) -->

<svg
   version="1.1"
   id="svg716"
   width="644.88586"
   height="643.84741"
   viewBox="0 0 644.88586 643.84741"
   sodipodi:docname="Apertura de caminos.svg"
   inkscape:version="1.2.2 (732a01da63, 2022-12-09)"
   xmlns:inkscape="http://www.inkscape.org/namespaces/inkscape"
   xmlns:sodipodi="http://sodipodi.sourceforge.net/DTD/sodipodi-0.dtd"
   xmlns="http://www.w3.org/2000/svg"
   xmlns:svg="http://www.w3.org/2000/svg">
  <defs
     id="defs720" />
  <sodipodi:namedview
     id="namedview718"
     pagecolor="#ffffff"
     bordercolor="#000000"
     borderopacity="0.25"
     inkscape:showpageshadow="2"
     inkscape:pageopacity="0.0"
     inkscape:pagecheckerboard="0"
     inkscape:deskcolor="#d1d1d1"
     showgrid="false"
     inkscape:zoom="1.2291667"
     inkscape:cx="243.66102"
     inkscape:cy="323.38983"
     inkscape:window-width="1920"
     inkscape:window-height="1111"
     inkscape:window-x="-9"
     inkscape:window-y="-9"
     inkscape:window-maximized="1"
     inkscape:current-layer="g722" />
  <g
     inkscape:groupmode="layer"
     inkscape:label="Image"
     id="g722"
     transform="translate(-51.735862,-49.017478)">
    <path
       style="fill:#000000"
       d="m 338.23728,691.45942 c -90.39068,-11.02001 -167.2405,-55.32856 -221.9653,-127.97637 -35.183746,-46.70684 -54.780906,-95.54916 -63.194206,-157.5 -1.98406,-14.60952 -1.71557,-58.3791 0.45875,-74.78558 5.87427,-44.32482 19.64602,-84.3471 42.22611,-122.71396 C 121.99626,163.90877 164.26384,121.04028 208.104,94.545022 c 9.07283,-5.48326 29.13328,-15.95833 29.13328,-15.21267 0,0.20215 -2.4352,1.98442 -5.41156,3.96061 -7.51327,4.98854 -17.85277,14.8649 -21.44346,20.482968 -12.46193,19.49818 -1.08997,35.66196 36.35502,51.67401 17.14518,7.33154 44.49968,15.55737 96.5,29.01871 53.20887,13.77421 73.49262,20.2055 91.83097,29.11651 16.20078,7.87232 23.16903,14.78378 23.16903,22.9802 0,16.39777 -29.93473,28.64609 -119.5,48.89554 -114.12667,25.80244 -164.29159,49.06198 -181.73453,84.26329 -4.20909,8.49429 -4.26547,8.74787 -4.26547,19.18347 0,17.96334 5.42199,28.95835 23,46.64066 22.03842,22.16919 52.73215,40.41928 124.5,74.02612 61.57934,28.83584 87.71251,42.85861 107.97358,57.9374 17.55196,13.06261 27.07579,23.73762 33.26314,37.28376 2.53849,5.55762 3.13702,8.33482 3.54265,16.43816 0.42116,8.41362 0.17659,10.60767 -1.78352,16 -3.1221,8.58898 -7.56153,15.1512 -15.13406,22.37064 -14.92083,14.22512 -40.45416,25.94787 -68.16255,31.29452 -5.94042,1.14627 -10.89042,2.02934 -11,1.96237 -0.10958,-0.067 -4.92424,-0.69781 -10.69924,-1.40187 z m 200.70124,-57.10847 c -0.38568,-0.38568 -0.70124,-3.50383 -0.70124,-6.92923 0,-6.78115 -2.76111,-16.98063 -6.03724,-22.30145 -2.30326,-3.74076 -2.32214,-3.62478 0.74331,-4.56644 1.8903,-0.58067 2.55758,0.016 4.66181,4.16849 3.96008,7.81484 5.75758,15.40251 5.42965,22.91979 -0.22702,5.2039 -0.66458,6.89015 -1.84629,7.11517 -0.85182,0.1622 -1.86432,-0.0206 -2.25,-0.40633 z m 57.25267,-36.1179 c -4.14052,-12.92625 -17.52627,-32.84067 -30.104,-44.7867 -32.91043,-31.25754 -72.01765,-51.41479 -175.84991,-90.63931 -77.60765,-29.31769 -111.11587,-45.38403 -129.64415,-62.16106 -8.34525,-7.55647 -11.57916,-13.46209 -12.1377,-22.16532 -0.39259,-6.1175 -0.10997,-8.08962 1.69306,-11.8142 6.39153,-13.20314 26.53014,-25.72444 61.08879,-37.98234 20.54585,-7.28757 32.03489,-10.79412 72.5,-22.12758 46.69887,-13.07941 68.61496,-20.58107 86.71553,-29.68185 23.28376,-11.70685 34.81407,-23.68139 34.76251,-36.1018 -0.0683,-16.44687 -17.66382,-30.7085 -54.97804,-44.56109 -18.31508,-6.79933 -42.49681,-13.47888 -93.5,-25.82688 -50.42053,-12.20694 -63.61776,-15.78088 -83.37469,-22.57871 -38.43457,-13.22432 -51.97699,-26.94938 -43.73333,-44.32316 8.65384,-18.238228 53.30661,-42.990078 90.33621,-50.075008 20.78827,-3.97746 61.18375,-5.61698 83.41586,-3.38558 60.58261,6.08056 115.00122,26.8833 162.35595,62.064228 61.06477,45.36645 104.61068,110.95664 122.42236,184.39636 6.32084,26.06159 8.53965,45.60061 8.46005,74.5 -0.10637,38.61926 -4.71291,67.16954 -16.34097,101.27769 -12.94991,37.98543 -30.16348,69.33629 -55.25675,100.63839 -8.14722,10.1631 -25.56942,29.08392 -26.78032,29.08392 -0.4671,0 -1.3898,-1.6875 -2.05046,-3.75 z m -79.73461,-13.33824 c -8.26247,-8.65664 -8.2743,-8.67669 -5.37295,-9.10252 1.73164,-0.25415 3.69893,0.21388 4.86379,1.15713 3.64527,2.95176 13.27035,14.25619 12.79424,15.02654 -1.67516,2.71047 -4.48536,1.09067 -12.28508,-7.08115 z m -13.77489,-13.0017 c -0.37049,-0.59947 -5.15415,-4.42447 -10.63036,-8.5 -5.47621,-4.07553 -9.47464,-7.41006 -8.8854,-7.41006 0.58924,0 1.07135,-0.9 1.07135,-2 0,-1.1 0.3375,-1.97694 0.75,-1.94875 0.4125,0.0282 5.025,3.31668 10.25,7.30776 8.09212,6.18112 9.54644,7.72961 9.81336,10.44876 0.30552,3.11239 -1.01849,4.28737 -2.36895,2.10229 z m -30.94441,-22.71882 c -2.2,-1.40626 -7.56179,-4.72458 -11.9151,-7.37404 -4.3533,-2.64946 -7.3908,-4.8172 -6.75,-4.8172 0.64081,0 1.1651,-0.91583 1.1651,-2.03518 0,-1.78395 0.27775,-1.89351 2.25,-0.88751 6.65935,3.3968 21.67994,13.34972 20.89511,13.84549 -0.50256,0.31746 -1.0783,1.30801 -1.27943,2.20123 -0.31375,1.39341 -0.93371,1.26095 -4.36568,-0.93279 z m -38.52556,-22.48384 c -10.75717,-5.79356 -11.49052,-6.37927 -11,-8.78543 l 0.52556,-2.57802 12.08152,6.48397 c 10.83078,5.81272 12.03513,6.72664 11.63342,8.82802 -0.24645,1.28924 -0.73313,2.32489 -1.08152,2.30146 -0.34838,-0.0234 -5.81992,-2.83593 -12.15898,-6.25 z m -31.47444,-16.23749 c -6.05,-2.94445 -10.4375,-5.37972 -9.75,-5.41172 0.6875,-0.032 1.25,-0.95819 1.25,-2.05819 0,-1.1 0.21959,-2 0.48798,-2 0.26839,0 5.14349,2.31534 10.83357,5.14521 9.29685,4.62363 10.29996,5.38391 9.89544,7.5 -0.24758,1.29513 -0.73518,2.31507 -1.08357,2.26651 -0.34838,-0.0485 -5.58342,-2.49736 -11.63342,-5.44181 z m -28,-13.46991 c -5.5,-2.66313 -9.2125,-4.87759 -8.25,-4.92102 0.9625,-0.0434 1.75,-0.75398 1.75,-1.57898 0,-2.046 0.0875,-2.02381 9.60265,2.43513 7.32431,3.43229 8.39735,4.26288 8.39735,6.5 0,1.41068 -0.3375,2.52933 -0.75,2.48589 -0.4125,-0.0434 -5.25,-2.25789 -10.75,-4.92102 z m -25.75,-11.75646 c -8.23614,-3.86899 -9.75,-4.94218 -9.75,-6.91184 0,-1.28244 0.41824,-2.3317 0.92943,-2.3317 0.51119,0 5.23619,1.9989 10.5,4.442 8.44213,3.91826 9.57057,4.74361 9.57057,7 0,1.4069 -0.3375,2.51833 -0.75,2.46984 -0.4125,-0.0485 -5.1375,-2.14923 -10.5,-4.6683 z m -28.75,-13.04035 c -9.75929,-4.37141 -10.47858,-4.88786 -10.19633,-7.32101 l 0.30367,-2.61782 11.36706,5.10779 c 6.25189,2.80929 11.0048,5.3373 10.56202,5.61782 -0.44278,0.28052 -0.96961,1.27647 -1.17074,2.21322 -0.31514,1.46781 -1.81684,1.05319 -10.86568,-3 z m -28.0336,-12.52462 c -7.35846,-3.60315 -8.48497,-4.48841 -8.18045,-6.42857 0.19423,-1.2375 0.53869,-2.25 0.76546,-2.25 0.22678,0 4.24548,1.77093 8.93045,3.93539 7.45358,3.44356 8.51814,4.25591 8.51814,6.5 0,1.41054 -0.3375,2.53247 -0.75,2.49318 -0.4125,-0.0393 -4.59012,-1.95178 -9.2836,-4.25 z m -27.7164,-12.63653 c -9.04154,-4.34806 -10.25,-5.23061 -10.25,-7.48563 0,-1.40602 0.15863,-2.55641 0.3525,-2.55641 0.19388,0 5.14388,2.26008 11,5.02241 9.31357,4.39319 10.6475,5.3328 10.6475,7.5 0,1.36267 -0.3375,2.47112 -0.75,2.46321 -0.4125,-0.008 -5.3625,-2.23252 -11,-4.94358 z m -29.078,-14.29024 c -5.13039,-2.85989 -8.84289,-5.3615 -8.25,-5.55913 0.5929,-0.19764 1.078,-1.17875 1.078,-2.18025 0,-1.53763 1.54623,-1.01907 9.93913,3.33333 5.46653,2.83484 9.51653,5.30425 9,5.48758 -0.51652,0.18334 -0.93913,1.19584 -0.93913,2.25 0,1.05417 -0.3375,1.90578 -0.75,1.89248 -0.4125,-0.0133 -4.9476,-2.36411 -10.078,-5.22401 z m -20.814,-12.83843 c -5.11894,-3.80616 -9.358,-8.3721 -9.358,-10.07961 0,-2.56665 3.40071,-1.72262 7.2656,1.80326 2.32892,2.12464 5.17187,4.53798 6.31766,5.36298 1.54491,1.11237 1.93254,2.17663 1.5,4.11834 l -0.58326,2.61833 z"
       id="path843" />
  </g>
</svg>
