<?xml version="1.0" encoding="UTF-8" standalone="no"?>
<!-- Created with Inkscape (http://www.inkscape.org/) -->

<svg
   width="26.655558mm"
   height="25.647379mm"
   viewBox="0 0 26.655558 25.647379"
   version="1.1"
   id="svg5"
   xml:space="preserve"
   inkscape:version="1.2.2 (732a01da63, 2022-12-09)"
   sodipodi:docname="Basura.svg"
   xmlns:inkscape="http://www.inkscape.org/namespaces/inkscape"
   xmlns:sodipodi="http://sodipodi.sourceforge.net/DTD/sodipodi-0.dtd"
   xmlns="http://www.w3.org/2000/svg"
   xmlns:svg="http://www.w3.org/2000/svg"><sodipodi:namedview
     id="namedview7"
     pagecolor="#ffffff"
     bordercolor="#000000"
     borderopacity="0.25"
     inkscape:showpageshadow="2"
     inkscape:pageopacity="0.0"
     inkscape:pagecheckerboard="0"
     inkscape:deskcolor="#d1d1d1"
     inkscape:document-units="mm"
     showgrid="false"
     inkscape:zoom="2.3786088"
     inkscape:cx="65.794762"
     inkscape:cy="83.031728"
     inkscape:window-width="1920"
     inkscape:window-height="1111"
     inkscape:window-x="-9"
     inkscape:window-y="-9"
     inkscape:window-maximized="1"
     inkscape:current-layer="layer1" /><defs
     id="defs2" /><g
     inkscape:label="Capa 1"
     inkscape:groupmode="layer"
     id="layer1"
     transform="translate(-50.298771,-18.309633)"><path
       style="fill:#000000;stroke-width:0.0423333"
       d="m 50.375697,43.943391 c 0,-0.06882 0.818982,-1.966316 0.875935,-2.029446 0.04211,-0.04668 0.367151,-0.224259 0.722312,-0.394624 0.355161,-0.170365 0.657165,-0.339509 0.67112,-0.375874 0.01395,-0.03637 0.07684,-0.457345 0.139737,-0.93551 0.09354,-0.711067 0.12956,-0.884587 0.197807,-0.952834 0.06959,-0.06959 0.178117,-0.09047 0.653849,-0.125758 0.88495,-0.06565 1.015726,-0.08543 1.092471,-0.165202 0.03883,-0.04037 0.250323,-0.269204 0.469981,-0.508531 0.421642,-0.459397 0.531707,-0.533924 0.696172,-0.471395 0.06084,0.02313 0.306945,0.328641 0.621522,0.771536 0.286443,0.403283 0.655458,0.920568 0.820033,1.149522 l 0.299228,0.416279 0.508,0.263699 c 1.078172,0.559671 2.329859,1.22341 2.362539,1.252796 0.02917,0.02623 -0.814103,0.667882 -2.410841,1.834406 l -0.386969,0.282707 h -3.666448 c -2.016546,0 -3.666448,-0.0053 -3.666448,-0.01177 z m 3.130399,-1.384015 c 0.04226,-0.02262 0.231078,-0.313664 0.419599,-0.646775 0.493804,-0.872531 0.38426,-0.80381 0.892632,-0.559988 0.237499,0.113909 0.470674,0.204179 0.518164,0.200602 0.200745,-0.01512 0.310756,-0.245862 0.19329,-0.405412 -0.06808,-0.09247 -1.154357,-0.621847 -1.274265,-0.620993 -0.05004,3.39e-4 -0.113809,0.01516 -0.141704,0.03289 -0.104955,0.06672 -0.986448,1.662874 -0.986448,1.786199 0,0.192411 0.203629,0.307188 0.378732,0.213477 z m 5.363361,1.213212 c 0.136441,-0.100415 0.714799,-0.525777 1.285241,-0.945247 0.570441,-0.41947 1.446741,-1.064431 1.947333,-1.433247 0.500592,-0.368815 0.967317,-0.686259 1.037167,-0.705429 0.06985,-0.01917 0.7366,-0.121861 1.481666,-0.2282 0.745067,-0.106339 2.002367,-0.288017 2.794,-0.403729 0.791634,-0.115711 2.149232,-0.313894 3.016886,-0.440406 0.867653,-0.126513 1.610603,-0.219478 1.651,-0.20659 0.206849,0.06599 0.312557,0.179782 0.888666,0.956596 0.343264,0.46285 0.656795,0.88342 0.696736,0.934602 0.07284,0.09333 0.379576,0.504372 1.419982,1.902808 l 0.559038,0.751416 h -8.512895 -8.512894 z m 4.867649,-0.978828 0.428575,-0.442534 0.514441,0.124635 c 0.282942,0.06855 0.564834,0.124635 0.626425,0.124635 0.234029,0 0.35831,-0.285078 0.190492,-0.436952 -0.07937,-0.07183 -1.236603,-0.367395 -1.438342,-0.367363 -0.09245,1.4e-5 -0.213285,0.103755 -0.612583,0.525919 -0.50622,0.535209 -0.56578,0.641682 -0.4445,0.794602 0.05587,0.07045 0.138253,0.109655 0.243417,0.115851 0.03493,0.0021 0.256359,-0.195399 0.492075,-0.438793 z m 8.988261,0.07525 c 0.136891,-0.174029 0.172759,-0.110163 -0.804613,-1.432682 -0.258104,-0.34925 -0.505627,-0.652041 -0.550051,-0.67287 -0.05799,-0.02719 -0.286993,0.02521 -0.811805,0.185744 -2.795065,0.85497 -2.712583,0.827159 -2.799849,0.944042 -0.07021,0.09404 -0.0758,0.129517 -0.03466,0.219818 0.10822,0.237515 0.126388,0.2347 1.78887,-0.277242 0.84825,-0.261208 1.565035,-0.483399 1.592856,-0.493758 0.02803,-0.01044 0.298974,0.317734 0.60782,0.736216 0.306481,0.415278 0.595392,0.788388 0.642024,0.829133 0.122414,0.106961 0.266879,0.09194 0.369409,-0.0384 z m 3.244606,0.609901 c -0.444277,-0.588198 -1.2772,-1.705743 -2.327398,-3.122705 -0.439793,-0.593383 -0.837064,-1.112112 -0.882824,-1.152732 -0.153071,-0.135876 -0.162386,-0.339537 -0.05083,-1.111371 0.05722,-0.395876 0.113408,-0.745105 0.12487,-0.776063 0.01444,-0.039 0.06311,-0.04817 0.158458,-0.02985 0.586848,0.112735 0.763322,0.165093 0.875991,0.259897 0.07257,0.06107 0.311881,0.454984 0.576775,0.949413 0.51062,0.953081 0.42045,0.871747 1.076686,0.971186 0.525048,0.07956 0.553743,0.08911 0.720543,0.239804 0.200497,0.181137 0.209204,0.218174 0.401708,1.708672 0.0827,0.640292 0.187871,1.435482 0.23372,1.767089 0.117599,0.850536 0.140929,0.772911 -0.232306,0.772911 H 76.329694 Z M 60.44908,41.190224 c -0.315398,-0.16907 -1.001198,-0.532777 -1.524,-0.808237 l -0.950549,-0.500836 -0.211667,-0.300474 c -0.407368,-0.578285 -0.398169,-0.467872 -0.07278,-0.873475 0.376335,-0.469102 0.447105,-0.516275 0.86709,-0.577967 l 0.348685,-0.05122 0.656167,0.352011 c 0.592158,0.317673 1.001398,0.539956 1.693333,0.919752 0.128059,0.07029 0.534943,0.291757 0.904189,0.492147 0.655811,0.355912 0.669075,0.365846 0.572862,0.429042 -0.05417,0.03558 -0.451531,0.326289 -0.883022,0.646016 -0.431491,0.319726 -0.794054,0.581168 -0.805695,0.58098 -0.01164,-1.69e-4 -0.27922,-0.13867 -0.594618,-0.30774 z m 2.838284,-1.348562 c -0.221191,-0.118322 -0.440445,-0.236552 -0.487229,-0.262733 -0.04678,-0.02618 -0.850681,-0.464994 -1.786437,-0.975143 -1.401213,-0.763903 -1.695131,-0.939415 -1.665983,-0.994834 0.01947,-0.03701 0.239867,-0.52449 0.489781,-1.08329 0.249913,-0.5588 0.494959,-1.061155 0.544545,-1.116345 l 0.09016,-0.100345 0.889596,0.02876 c 0.489278,0.01582 0.922922,0.01598 0.963653,3.39e-4 0.04073,-0.01563 0.285644,-0.293195 0.544249,-0.61681 0.289627,-0.362435 0.508165,-0.597921 0.569076,-0.613209 0.06062,-0.01521 0.301771,0.04279 0.623153,0.149895 0.644738,0.21486 0.727098,0.286621 0.939851,0.818901 0.08584,0.214757 0.175694,0.414279 0.199679,0.443384 0.08566,0.103945 0.29872,0.04893 0.870903,-0.224871 0.319279,-0.152783 0.634285,-0.279546 0.700014,-0.281696 0.07453,-0.0024 0.15645,0.0344 0.21766,0.09787 0.147091,0.152529 0.829833,1.269534 0.856029,1.400513 0.01615,0.08073 -0.350399,2.91967 -0.385224,2.983617 -0.002,0.0037 -0.813264,0.12325 -1.802806,0.265722 -0.989542,0.142472 -1.837267,0.267219 -1.883833,0.277216 -0.04888,0.01049 -0.25467,-0.07276 -0.486834,-0.196955 z m 3.461914,-1.371067 c 0.06423,-0.04498 0.09409,-0.109324 0.09409,-0.202718 0,-0.119965 -0.09432,-0.234394 -0.765726,-0.928933 -0.810518,-0.838451 -0.878201,-0.883854 -1.054607,-0.707448 -0.16573,0.16573 -0.115951,0.269822 0.370417,0.774556 1.207995,1.253614 1.150427,1.208414 1.35583,1.064543 z m -5.012764,-1.161681 c 0.26303,-0.256071 0.488877,-0.476223 0.501881,-0.489227 0.013,-0.013 0.260838,0.129832 0.55074,0.317415 0.289902,0.187583 0.568225,0.34106 0.618495,0.34106 0.120401,0 0.260734,-0.14413 0.260734,-0.267787 0,-0.05415 -0.04286,-0.137289 -0.09525,-0.184755 -0.134556,-0.121914 -1.198409,-0.810552 -1.266505,-0.819815 -0.161925,-0.02203 -0.257078,0.04544 -0.764573,0.542107 -0.303334,0.296863 -0.577651,0.564923 -0.609594,0.595691 -0.08411,0.08101 -0.07126,0.24838 0.02659,0.346226 0.165694,0.165694 0.266997,0.116062 0.777482,-0.380915 z m 6.310415,1.877748 c 0.0441,-0.37541 0.05442,-0.396158 0.185219,-0.372301 0.06273,0.01144 0.512667,0.07758 0.999866,0.146979 0.487199,0.0694 0.892036,0.132396 0.899636,0.139997 0.0076,0.0076 -0.429117,0.07558 -0.970483,0.151056 -0.541366,0.07548 -1.020093,0.147369 -1.063836,0.159753 -0.07357,0.02083 -0.07735,0.0039 -0.0504,-0.225484 z m 3.262602,-0.395805 c -0.442383,-0.06444 -1.363871,-0.195971 -2.047751,-0.292291 -0.68388,-0.09632 -1.25931,-0.18495 -1.278734,-0.196955 -0.07842,-0.04847 0.01314,-0.145262 0.113565,-0.120058 0.06391,0.01604 0.10142,0.0071 0.10142,-0.0243 0,-0.02736 0.03773,-0.30089 0.08385,-0.607839 0.143332,-0.953971 0.140158,-0.867949 0.03259,-0.883225 -0.134894,-0.01916 -0.124984,-0.142966 0.01055,-0.131858 0.174926,0.01434 3.204465,0.436149 3.683,0.512797 0.335246,0.0537 0.4445,0.0868 0.4445,0.134696 0,0.03528 -0.03763,0.0635 -0.08467,0.0635 -0.07652,0 -0.09356,0.05904 -0.177114,0.613833 -0.120783,0.801973 -0.121485,0.872998 -0.0089,0.902433 0.09632,0.02519 0.09032,0.131002 -0.008,0.14058 -0.03299,0.0032 -0.421941,-0.04688 -0.864325,-0.111318 z M 50.583004,38.485615 c -0.175785,-0.344566 -0.25565,-0.645756 -0.278367,-1.049786 -0.02828,-0.502891 0.04119,-0.819403 0.307206,-1.399737 0.321192,-0.700706 0.34259,-1.181877 0.08158,-1.834312 -0.129818,-0.324495 -0.118238,-0.475989 0.03941,-0.515556 0.178462,-0.04479 0.253902,-0.001 0.371019,0.2153 0.278138,0.513717 0.338131,1.31732 0.141969,1.901676 -0.06003,0.178825 -0.159405,0.424059 -0.220836,0.544966 -0.158577,0.312107 -0.224903,0.595031 -0.22521,0.960663 -2.96e-4,0.354937 0.04144,0.543565 0.198885,0.898757 0.102065,0.230259 0.103978,0.248011 0.03764,0.34925 -0.05238,0.07994 -0.106542,0.10666 -0.216216,0.10666 -0.129271,0 -0.156911,-0.02074 -0.237078,-0.177881 z m 20.133861,-1.979584 c -0.931334,-0.133864 -1.860021,-0.267139 -2.063751,-0.296167 -0.26367,-0.03757 -0.370416,-0.06982 -0.370416,-0.111908 0,-0.03413 0.0428,-0.05913 0.101244,-0.05913 0.121223,0 0.118033,0.011 0.237471,-0.819126 0.09333,-0.648691 0.09071,-0.747208 -0.01989,-0.747208 -0.03565,0 -0.06483,-0.02858 -0.06483,-0.0635 0,-0.08511 -0.01833,-0.08652 1.3335,0.102753 0.651933,0.09128 1.537758,0.215276 1.9685,0.275549 0.430742,0.06027 0.826029,0.119239 0.878417,0.131033 0.131406,0.02959 0.123599,0.146832 -0.0098,0.146832 -0.123672,0 -0.116291,-0.0253 -0.232552,0.797143 -0.104999,0.742779 -0.10514,0.711913 0.0034,0.74029 0.09631,0.02519 0.09033,0.130874 -0.008,0.140778 -0.033,0.0033 -0.821992,-0.10348 -1.753325,-0.237342 z m -16.991826,0.08814 c -0.121196,-0.121196 -0.329358,-0.70483 -0.386808,-1.084509 -0.09515,-0.628848 0.0088,-1.21408 0.339209,-1.909512 0.208859,-0.439613 0.338924,-0.912292 0.338924,-1.231711 0,-0.305689 -0.109171,-0.816548 -0.235579,-1.10238 -0.125573,-0.283941 -0.129465,-0.397237 -0.01714,-0.49889 0.258632,-0.234059 0.573464,0.285702 0.721969,1.191907 0.03618,0.220751 0.03751,0.402563 0.005,0.677333 -0.05217,0.440336 -0.118396,0.655353 -0.369954,1.201086 -0.233069,0.505623 -0.315917,0.823806 -0.315917,1.213311 0,0.38103 0.05982,0.666759 0.216822,1.035719 0.142297,0.334391 0.149811,0.421873 0.04443,0.517243 -0.102427,0.09269 -0.24256,0.08875 -0.340908,-0.0096 z m 3.643786,-1.642531 c -0.08919,-0.03571 -0.258172,-0.464975 -0.33304,-0.846013 -0.09172,-0.46682 -0.03529,-0.899811 0.180603,-1.38585 0.349588,-0.787009 0.395543,-1.170455 0.203431,-1.697448 -0.167422,-0.459265 -0.173194,-0.550281 -0.04042,-0.63728 0.164768,-0.10796 0.300272,-0.02982 0.426433,0.245898 0.322728,0.705316 0.28797,1.446371 -0.104666,2.231486 -0.250133,0.500167 -0.273295,1.022771 -0.06806,1.535767 0.118906,0.297218 0.135889,0.453399 0.05779,0.531495 -0.0513,0.0513 -0.220044,0.0628 -0.322072,0.02194 z m 16.995268,-2.842561 c -0.09695,-0.107132 -0.08929,-0.168328 0.06144,-0.490427 0.208462,-0.445475 0.290279,-0.828312 0.291104,-1.362135 9.27e-4,-0.600424 -0.08657,-0.948831 -0.416228,-1.657458 -0.328673,-0.706502 -0.429713,-1.113444 -0.429713,-1.730689 0,-0.641774 0.126192,-1.207867 0.381466,-1.711244 0.111194,-0.219266 0.149085,-0.250438 0.305475,-0.251316 0.07659,-4.32e-4 0.138559,0.03464 0.184138,0.104198 0.06547,0.09992 0.06162,0.121323 -0.08198,0.455656 -0.212915,0.495716 -0.293383,0.869346 -0.294281,1.366401 -0.001,0.562732 0.09138,0.925151 0.415312,1.629097 0.382035,0.830203 0.420814,0.993509 0.422205,1.778 9.99e-4,0.563464 -0.01258,0.702415 -0.0961,0.983523 -0.114005,0.383723 -0.284727,0.784857 -0.378668,0.889727 -0.08644,0.09649 -0.275402,0.09476 -0.364179,-0.0033 z m -7.932212,-0.219767 c -0.150508,-0.06056 -0.155901,-0.203624 -0.01913,-0.507449 0.217239,-0.482583 0.275046,-0.743344 0.276779,-1.248534 0.002,-0.571994 -0.06531,-0.843587 -0.372272,-1.502834 -0.351813,-0.75558 -0.38271,-0.888869 -0.38271,-1.651 0,-0.721897 0.03608,-0.900774 0.296361,-1.469389 0.149494,-0.326583 0.261361,-0.405887 0.438681,-0.310989 0.143759,0.07694 0.146314,0.211869 0.0097,0.513126 -0.199862,0.440787 -0.270847,0.772075 -0.271533,1.267252 -7.4e-4,0.535659 0.07125,0.824364 0.353614,1.418167 0.367237,0.772276 0.439389,1.101269 0.410343,1.871047 -0.01512,0.400826 -0.04501,0.618187 -0.114772,0.834708 -0.144955,0.449906 -0.289811,0.726972 -0.408302,0.78096 -0.05809,0.02647 -0.109475,0.04691 -0.1142,0.04543 -0.0047,-0.0015 -0.05088,-0.0197 -0.102575,-0.0405 z m 3.882817,-0.76115 c -0.113461,-0.113461 -0.109087,-0.147803 0.06809,-0.534465 0.246636,-0.538262 0.365317,-1.088592 0.364028,-1.688035 -0.0016,-0.761875 -0.100079,-1.133864 -0.539395,-2.038234 -0.541269,-1.114247 -0.651777,-2.206199 -0.334184,-3.302145 0.118773,-0.409861 0.388105,-0.98731 0.487829,-1.045908 0.101885,-0.05987 0.289349,0.0047 0.340647,0.117242 0.03776,0.08287 0.02073,0.152648 -0.100448,0.411582 -0.194473,0.415561 -0.271597,0.661138 -0.348939,1.111091 -0.150375,0.874833 -0.01836,1.63783 0.443995,2.566205 0.403216,0.809623 0.549714,1.390635 0.549714,2.180167 0,0.712801 -0.153654,1.389841 -0.448088,1.974399 -0.172481,0.342436 -0.315489,0.415857 -0.483245,0.248101 z m -11.6332,-2.5908 c -0.07755,-0.07755 -0.06065,-0.263931 0.03495,-0.385458 0.120654,-0.153388 0.61497,-0.46969 0.866753,-0.554617 0.48646,-0.164084 1.150372,-0.121131 1.589368,0.102828 0.151816,0.07745 0.252132,0.05479 0.252132,-0.05696 0,-0.07828 0.375324,-0.561317 0.536193,-0.690074 0.377266,-0.301958 0.890109,-0.481585 1.374945,-0.481585 0.418777,0 0.584399,0.07849 0.58588,0.277659 0.0015,0.199701 -0.07537,0.232287 -0.571219,0.242203 -0.401012,0.008 -0.497736,0.02452 -0.700064,0.119419 -0.425222,0.199445 -0.694792,0.504292 -0.865425,0.978676 -0.06391,0.177678 -0.130917,0.286119 -0.201998,0.326898 -0.09984,0.05728 -0.122878,0.05034 -0.375755,-0.113144 -0.383367,-0.247853 -0.644122,-0.322628 -1.044283,-0.299463 -0.394195,0.02282 -0.717976,0.15678 -0.99409,0.411293 -0.19469,0.179459 -0.38299,0.22672 -0.487384,0.122326 z M 51.30075,24.80245 c -0.07554,-0.165803 -0.01201,-0.2938 0.282625,-0.569421 0.483155,-0.451967 0.919659,-0.619475 1.607489,-0.616871 0.405708,0.0015 0.500833,0.01631 0.738781,0.114742 0.150213,0.06214 0.275364,0.10888 0.278115,0.10387 0.0028,-0.005 0.04527,-0.108605 0.09448,-0.230212 0.234044,-0.578329 0.726642,-1.047535 1.343956,-1.280137 0.263054,-0.09912 0.890594,-0.163934 1.093681,-0.112962 0.171041,0.04293 0.215752,0.267861 0.08281,0.416589 -0.05019,0.05615 -0.132416,0.07168 -0.366595,0.06922 -0.522274,-0.0055 -0.927382,0.154805 -1.294093,0.511993 -0.237137,0.230978 -0.443309,0.617113 -0.504561,0.94498 -0.0685,0.366641 -0.198351,0.410923 -0.577516,0.196936 -0.479204,-0.270447 -1.017788,-0.322654 -1.515734,-0.146925 -0.32581,0.11498 -0.527364,0.251417 -0.764447,0.517472 -0.132366,0.148541 -0.190919,0.183434 -0.307824,0.183434 -0.111738,0 -0.154942,-0.02321 -0.191164,-0.102712 z m 17.475342,-4.927705 c -0.03853,-0.04258 -0.07006,-0.09763 -0.07006,-0.122343 0,-0.02471 -0.08345,-0.158291 -0.185453,-0.296847 -0.395582,-0.53736 -1.110355,-0.772454 -1.761046,-0.579219 -0.264289,0.07849 -0.406617,0.03866 -0.447766,-0.125292 -0.06099,-0.242988 0.213637,-0.395426 0.785598,-0.43607 0.675921,-0.04803 1.325424,0.229858 1.759942,0.75299 0.08483,0.102134 0.159835,0.191769 0.166671,0.19919 0.0068,0.0074 0.108603,-0.0556 0.226151,-0.140053 0.346942,-0.249254 0.634169,-0.333338 1.149237,-0.336434 0.498581,-0.003 0.762298,0.06292 1.128659,0.282108 0.255605,0.152925 0.331557,0.279237 0.261008,0.434073 -0.08141,0.17867 -0.186346,0.173894 -0.575407,-0.02618 -0.354304,-0.182203 -0.364824,-0.184669 -0.787763,-0.184669 -0.377103,0 -0.457957,0.01373 -0.672193,0.114126 -0.133941,0.06277 -0.345331,0.210406 -0.469757,0.328083 -0.244795,0.231518 -0.387213,0.26981 -0.50782,0.136541 z"
       id="path304" /></g></svg>
