<?xml version="1.0" encoding="UTF-8" standalone="no"?>
<!-- Created with Inkscape (http://www.inkscape.org/) -->

<svg
   version="1.1"
   id="svg431"
   width="792.09845"
   height="793.30652"
   viewBox="0 0 792.09845 793.30652"
   sodipodi:docname="Caceria.svg"
   inkscape:version="1.2.2 (732a01da63, 2022-12-09)"
   xmlns:inkscape="http://www.inkscape.org/namespaces/inkscape"
   xmlns:sodipodi="http://sodipodi.sourceforge.net/DTD/sodipodi-0.dtd"
   xmlns="http://www.w3.org/2000/svg"
   xmlns:svg="http://www.w3.org/2000/svg">
  <defs
     id="defs435" />
  <sodipodi:namedview
     id="namedview433"
     pagecolor="#ffffff"
     bordercolor="#000000"
     borderopacity="0.25"
     inkscape:showpageshadow="2"
     inkscape:pageopacity="0.0"
     inkscape:pagecheckerboard="0"
     inkscape:deskcolor="#d1d1d1"
     showgrid="false"
     inkscape:zoom="0.92717391"
     inkscape:cx="371.5592"
     inkscape:cy="436.27198"
     inkscape:window-width="1920"
     inkscape:window-height="1111"
     inkscape:window-x="-9"
     inkscape:window-y="-9"
     inkscape:window-maximized="1"
     inkscape:current-layer="g437" />
  <g
     inkscape:groupmode="layer"
     inkscape:label="Image"
     id="g437"
     transform="translate(-55.22227,-23.444673)">
    <path
       style="fill:#000000"
       d="m 443.40797,816.40653 c -0.275,-0.2576 -7.7,-0.75596 -16.5,-1.10747 -8.8,-0.35151 -17.35,-0.82981 -19,-1.06289 -1.65,-0.23308 -6.23466,-0.68256 -10.18814,-0.99885 -3.95348,-0.31629 -8.44744,-1.05386 -9.98657,-1.63904 -1.53914,-0.58517 -6.62948,-1.52547 -11.31186,-2.08953 -4.68239,-0.56407 -9.86343,-1.63039 -11.51343,-2.36959 -1.65,-0.73921 -6.3057,-1.83415 -10.346,-2.4332 -4.0403,-0.59905 -8.55585,-1.71481 -10.03455,-2.47948 -1.47871,-0.76467 -4.47301,-1.71403 -6.65401,-2.10969 -2.18099,-0.39566 -5.2091,-1.34898 -6.72914,-2.11849 -1.52003,-0.76951 -4.67003,-1.78813 -7,-2.26358 -4.11817,-0.84037 -10.95712,-3.38601 -19.34583,-7.20106 -2.26024,-1.02792 -4.58121,-1.86895 -5.15771,-1.86895 -0.57651,0 -3.45222,-1.185 -6.39047,-2.63334 -2.93826,-1.44833 -7.36729,-3.54445 -9.84229,-4.65803 -2.475,-1.11358 -5.625,-2.63672 -7,-3.38476 -1.375,-0.74803 -6.1,-3.18861 -10.5,-5.42352 -7.62745,-3.87423 -12.59241,-6.61584 -21.1494,-11.67854 -8.8025,-5.20795 -26.00692,-17.24099 -33.91185,-23.71849 -2.35144,-1.92683 -4.6,-3.50332 -4.9968,-3.50332 -0.39681,0 -1.22107,-0.62107 -1.83171,-1.38015 -0.61063,-0.75908 -5.61024,-5.11926 -11.11024,-9.68928 -13.85583,-11.51299 -17.25015,-14.67636 -29.02401,-27.04921 -8.61771,-9.05614 -31.71699,-37.3537 -36.69878,-44.95751 -2.00933,-3.06688 -4.3562,-6.15948 -5.21527,-6.87244 -0.85907,-0.71297 -1.56194,-1.84645 -1.56194,-2.51887 0,-0.67241 -0.9,-2.03705 -2,-3.03254 -1.1,-0.99549 -2,-2.26025 -2,-2.8106 0,-0.55034 -1.02774,-2.39309 -2.28386,-4.09501 -1.25613,-1.70191 -2.85287,-4.21939 -3.54832,-5.59439 -0.69544,-1.375 -2.36544,-4.3 -3.71109,-6.5 -1.34566,-2.2 -3.40891,-6.1375 -4.58501,-8.75 -1.17611,-2.6125 -2.528367,-4.75 -3.005047,-4.75 -0.47667,0 -0.86836,-0.5625 -0.87043,-1.25 -0.002,-0.6875 -1.35038,-3.95 -2.99624,-7.25 -1.64586,-3.3 -2.99417,-6.5625 -2.99624,-7.25 -0.002,-0.6875 -0.45376,-1.25 -1.00376,-1.25 -0.55,0 -1.0057,-0.5625 -1.01267,-1.25 -0.007,-0.6875 -1.35696,-3.90091 -3,-7.14092 -1.64303,-3.24001 -2.98733,-6.38355 -2.98733,-6.98565 0,-0.6021 -1.05422,-3.35118 -2.34271,-6.10908 -2.8173,-6.03019 -5.368,-13.23292 -7.09594,-20.03769 -0.70156,-2.76284 -1.97132,-6.36877 -2.82167,-8.01318 -0.85036,-1.64441 -1.86344,-5.2339 -2.25129,-7.97665 -0.38785,-2.74276 -1.32284,-5.97042 -2.07775,-7.1726 -0.75492,-1.20217 -1.88201,-5.46918 -2.50466,-9.48225 -0.62265,-4.01307 -1.55666,-8.4132 -2.07559,-9.77807 -0.90569,-2.38216 -2.39992,-11.03467 -5.30741,-30.73315 -4.03966,-27.36902 -3.44191,-93.88169 1.00044,-111.32076 0.77057,-3.025 1.67037,-8.2 1.99955,-11.5 0.56351,-5.64918 2.20727,-13.06857 5.9818,-27 0.89409,-3.3 2.29107,-8.7 3.10441,-12 0.81333,-3.3 2.08743,-7.35 2.83133,-9 0.7439,-1.65 1.6731,-5.025 2.06489,-7.5 0.39178,-2.475 1.29362,-5.175 2.00408,-6 0.71046,-0.825 1.74706,-3.075 2.30357,-5 1.12513,-3.89194 4.29283,-11.8971 7.71628,-19.5 1.23828,-2.75 3.22895,-7.25 4.42371,-10 6.62024,-15.23785 13.217227,-27.07574 27.733707,-49.76641 10.14495,-15.85754 29.83415,-41.43622 38.72722,-50.3114 2.24732,-2.2428 6.63472,-6.7428 9.74978,-10 10.34672,-10.81883 32.00116,-30.74051 35.70681,-32.84959 0.89619,-0.51007 5.09061,-3.66007 9.32092,-7 4.23032,-3.339927 10.47698,-7.872597 13.88147,-10.072597 3.40448,-2.2 8.04332,-5.23021 10.30851,-6.7338 2.2652,-1.50359 4.79354,-3.04546 5.61854,-3.42638 0.825,-0.38092 2.89248,-1.738215 4.59439,-3.016204 1.70192,-1.277989 3.46648,-2.323616 3.92126,-2.323616 0.45478,0 1.5373,-0.632202 2.40561,-1.404893 0.86831,-0.772691 5.17874,-3.272344 9.57874,-5.554785 4.4,-2.282441 8.675,-4.543398 9.5,-5.024348 0.825,-0.48095 3.75,-1.854809 6.5,-3.053019 2.75,-1.198211 7.25,-3.209759 10,-4.470108 2.75,-1.260349 6.125,-2.624821 7.5,-3.032161 1.375,-0.407339 4.06834,-1.577633 5.98519,-2.600652 1.91686,-1.023018 3.94186,-1.861917 4.5,-1.864219 0.55815,-0.0023 3.22858,-1.127302 5.93429,-2.5 2.70571,-1.372698 5.75766,-2.495815 6.78212,-2.495815 1.02445,0 3.53568,-0.72513 5.58052,-1.611401 3.92784,-1.702402 14.04129,-4.701944 23.21788,-6.886176 3.025,-0.720018 7.40255,-2.004145 9.7279,-2.853616 2.32534,-0.849471 7.05034,-1.836633 10.5,-2.193693 3.44965,-0.357059 9.1971,-1.484206 12.7721,-2.504769 3.575,-1.020564 9.425,-1.95246 13,-2.07088 3.575,-0.118421 8.14722,-0.582962 10.16049,-1.032315 18.55855,-4.142177 69.4028,-4.076408 93.83951,0.121386 3.025,0.519642 8.2,1.049132 11.5,1.176646 3.3,0.127514 8.48982,1.004134 11.53294,1.948044 3.04311,0.94391 8.21811,1.994213 11.5,2.334006 3.28188,0.339793 7.99206,1.277875 10.46706,2.084626 4.57956,1.492753 14.80259,4.322658 25.34654,7.016342 3.21559,0.821494 6.80322,2.163715 7.9725,2.982713 1.16929,0.818998 3.12561,1.489087 4.3474,1.489087 2.23337,0 18.73189,6.282161 20.75175,7.901665 0.59499,0.477064 2.65681,1.202996 4.58181,1.613181 1.925,0.410185 4.57319,1.587147 5.88486,2.615472 1.31167,1.028325 2.88667,1.883754 3.5,1.900954 0.61333,0.0172 3.36514,1.138086 6.11514,2.490857 2.75,1.352772 5.5074,2.463699 6.12756,2.468728 0.62015,0.005 1.66865,0.661124 2.32999,1.457991 0.66134,0.796866 2.85394,1.987076 4.87244,2.644912 2.01851,0.657835 3.89501,1.494831 4.17001,1.859991 0.275,0.365159 3.65,2.402892 7.5,4.528294 3.85,2.125403 8.125,4.626614 9.5,5.558248 1.375,0.931634 6.1,3.974237 10.5,6.761347 4.4,2.7871 8.69014,5.65941 9.53365,6.38291 0.8435,0.7235 3.5435,2.66321 6,4.31048 2.45649,1.64727 7.07721,5.134767 10.26827,7.749997 3.19105,2.61523 6.11605,4.75774 6.5,4.76112 0.38394,0.003 3.17308,2.3026 6.19808,5.10938 3.025,2.80678 7.075,6.28686 9,7.73352 5.5192,4.14772 32.54391,31.61896 36.88252,37.49192 2.15773,2.92082 5.59806,7.07648 7.64518,9.2348 2.04711,2.15833 4.44916,5.04923 5.33787,6.42423 0.88871,1.375 3.46542,4.975 5.72601,8 7.16713,9.59064 13.40842,18.85031 13.40842,19.89294 0,0.55422 0.61645,1.36754 1.36989,1.80737 1.22179,0.71323 2.45055,2.69973 7.53448,12.18069 0.77241,1.44045 1.72446,2.844 2.11567,3.119 0.39121,0.275 1.66531,2.38197 2.83134,4.68215 1.16602,2.30018 2.54185,4.44284 3.05739,4.76147 0.51555,0.31862 1.23375,1.92878 1.59601,3.57813 0.36226,1.64935 1.19955,3.55669 1.86064,4.23854 1.37182,1.41486 6.63458,11.9847 6.63458,13.32503 0,0.87507 3.48871,8.48721 7.12707,15.55083 1.03011,1.99989 1.87293,4.27403 1.87293,5.05366 0,0.77963 1.03905,3.64336 2.30899,6.36385 3.29038,7.04865 5.67107,13.97787 7.31856,21.30127 0.78629,3.49521 2.0993,7.64996 2.9178,9.23277 0.8185,1.58281 1.76887,5.02309 2.11193,7.64507 0.34307,2.62197 1.22474,5.96153 1.95927,7.42123 0.73454,1.4597 1.83114,5.9597 2.4369,10 0.60576,4.0403 1.7841,10.046 2.61854,13.346 0.83445,3.3 2.12175,11.625 2.86068,18.5 0.73893,6.875 1.86351,15.875 2.49907,20 1.55012,10.06076 0.9067,71.59034 -0.78028,74.61754 -0.64902,1.16465 -1.65456,7.99241 -2.23453,15.17281 -0.57996,7.18039 -1.71319,14.6318 -2.5183,16.55868 -0.8051,1.92687 -1.73456,6.12411 -2.06548,9.32719 -0.33091,3.20308 -1.42796,8.52378 -2.43788,11.82378 -1.00991,3.3 -2.28655,8.25 -2.83697,11 -1.03628,5.17747 -3.13952,11.73179 -6.25742,19.5 -0.99339,2.475 -2.10739,6.075 -2.47555,8 -0.36817,1.925 -1.51449,5.16957 -2.54737,7.21016 -1.03288,2.04059 -1.87796,4.26102 -1.87796,4.93428 0,1.15737 -1.01232,3.52461 -6.56661,15.35556 -1.29105,2.75 -3.03267,6.575 -3.87027,8.5 -0.8376,1.925 -1.93389,4.175 -2.43619,5 -0.50231,0.825 -1.4224,2.625 -2.04464,4 -0.62225,1.375 -3.35328,6.55 -6.06896,11.5 -2.71568,4.95 -5.60662,10.39296 -6.42432,12.09546 -1.81346,3.77579 -9.28471,15.28123 -13.89939,21.40454 -1.86522,2.475 -3.95638,5.57251 -4.64702,6.88335 -1.16052,2.20269 -10.57345,14.30671 -18.2821,23.50883 -11.43998,13.65635 -24.70688,27.59225 -35.80245,37.60782 -4.56981,4.125 -9.91733,8.96854 -11.88339,10.76343 -1.96607,1.79489 -5.59966,4.84832 -8.07466,6.7854 -16.0206,12.53867 -20.81884,16.1761 -23.67993,17.95117 -1.77299,1.1 -6.98894,4.5875 -11.59101,7.75 -4.60206,3.1625 -8.65377,5.75 -9.00381,5.75 -0.35004,0 -2.30418,1.13177 -4.34255,2.51504 -2.03836,1.38327 -8.24584,4.7742 -13.7944,7.5354 -5.54857,2.76121 -10.7633,5.42391 -11.5883,5.91712 -3.03218,1.81272 -14.69015,7.03244 -15.70658,7.03244 -0.57669,0 -1.58472,0.64607 -2.24007,1.43572 -0.65535,0.78965 -2.62295,1.73325 -4.37245,2.09691 -1.74949,0.36365 -4.66912,1.51757 -6.48806,2.56427 -1.81894,1.04671 -4.01267,1.9031 -4.87495,1.9031 -0.86229,0 -4.09907,1.06515 -7.19284,2.367 -3.09378,1.30185 -7.42505,2.8419 -9.62505,3.42234 -2.2,0.58044 -6.25,1.80232 -9,2.7153 -2.75,0.91298 -7.025,2.33295 -9.5,3.15549 -2.475,0.82254 -7.14457,1.91203 -10.37683,2.4211 -3.23225,0.50907 -7.95725,1.63278 -10.5,2.49713 -2.54274,0.86435 -6.87317,1.79066 -9.62317,2.05846 -2.75,0.2678 -8.825,1.32566 -13.5,2.3508 -10.82629,2.374 -68.36884,6.28213 -70,4.7542 z m -10.23509,-65.65732 c 0.17772,-20.40491 0.62943,-30.85472 1.37244,-31.75 0.7372,-0.88827 3.53351,-1.3345 8.36265,-1.3345 4.62074,0 7.60688,-0.45388 8.2239,-1.25 0.73986,-0.95463 1.10548,-94.20002 0.38818,-99 -0.0616,-0.4125 -7.64958,-0.75689 -16.86208,-0.76531 -9.2125,-0.008 -17.34065,-0.38988 -18.06255,-0.84768 -1.41305,-0.89609 -1.96773,-6.69026 -0.75639,-7.9011 0.40492,-0.40475 8.31093,-0.73591 17.56891,-0.73591 9.25798,0 17.20722,-0.37437 17.66497,-0.83194 0.80978,-0.80946 1.31198,-100.92479 0.51876,-103.41806 -0.57509,-1.80766 -5.08568,-1.53834 -12.34461,0.7371 -3.4865,1.0929 -8.13909,2.00119 -10.33909,2.01842 -3.9035,0.0306 -19.13142,2.4398 -22.87973,3.61983 -1.03385,0.32548 -7.86409,0.8981 -15.17832,1.2725 -12.29034,0.62912 -13.58678,0.88577 -17.09957,3.38516 -2.92797,2.08328 -4.08115,3.79685 -5.02083,7.46071 -0.67092,2.61595 -1.95917,7.68128 -2.86277,11.25628 -0.90361,3.575 -2.50149,9.45693 -3.55085,13.07095 -1.65638,5.70461 -1.91446,10.05542 -1.95746,33 -0.0503,26.85375 -1.0195,52.37076 -3.01683,79.42905 -0.60897,8.25 -1.21815,26.81248 -1.35373,41.24996 -0.13557,14.43748 -0.43401,26.38507 -0.6632,26.55021 -0.22919,0.16513 -1.91539,1.51654 -3.74712,3.00313 -2.84313,2.30743 -4.19464,2.68336 -9.23724,2.56937 -3.24875,-0.0734 -6.54213,-0.63733 -7.31861,-1.2531 -2.217,-1.75811 -2.69716,-4.8929 -1.16712,-7.61957 6.46523,-11.52158 6.26968,-9.64724 7.40726,-71 0.69094,-37.26444 0.47706,-41.81192 -2.08716,-44.37613 -1.01516,-1.01517 -1.67464,-4.93523 -2.15229,-12.79375 -0.37876,-6.23157 -1.12416,-13.13012 -1.65645,-15.33012 -0.53229,-2.2 -1.66551,-10.75 -2.51828,-19 -0.85276,-8.25 -1.97433,-15.42628 -2.49237,-15.94728 -0.59211,-0.5955 -1.96414,-0.18472 -3.69461,1.10614 l -2.75272,2.05342 -0.50851,40.39386 c -0.27967,22.21662 -0.80147,40.84753 -1.15954,41.40201 -0.35808,0.55449 -0.96421,6.40449 -1.34696,13 -0.38276,6.59552 -0.87358,12.28657 -1.09072,12.64679 -0.21714,0.36021 -0.66311,8.46021 -0.99105,18 -0.60212,17.51609 -1.31474,26.34137 -3.37886,41.84506 -0.62242,4.675 -1.44502,11.2 -1.82801,14.5 l -0.69635,6 h -10 c -9.40591,0 -9.98706,-0.11882 -9.78226,-2 0.11975,-1.1 1.13659,-6.95 2.25964,-13 2.70795,-14.58806 3.80162,-24.39445 5.13019,-46 1.41129,-22.95053 1.40812,-26.43249 -0.0428,-47 -0.65957,-9.35 -1.53031,-29.825 -1.93499,-45.5 -0.47209,-18.28596 -1.16478,-29.5089 -1.9328,-31.3151 -0.82826,-1.94796 -1.19698,-10.96782 -1.19698,-29.28212 0,-20.2265 -0.32501,-27.24488 -1.37842,-29.76605 -0.75814,-1.81446 -4.47935,-6.41251 -8.26936,-10.21788 -5.51517,-5.5375 -7.93603,-9.04411 -12.12557,-17.56382 -2.87905,-5.85473 -5.5301,-12.15473 -5.89122,-14 -0.36112,-1.84527 -1.22083,-4.25503 -1.91046,-5.35503 -0.68963,-1.1 -2.73863,-6.5 -4.55334,-12 -3.88766,-11.7827 -7.23477,-17.76863 -9.67409,-17.30104 -1.49634,0.28683 -1.7568,2.39814 -2.19754,17.81322 l -0.5,17.48782 h -4 -4 l -0.2752,-16.9752 c -0.16001,-9.86991 -0.7041,-17.40415 -1.29987,-18 -1.31528,-1.31544 -95.68423,-1.66979 -98.17493,-0.36864 -1.42476,0.7443 -1.75,2.27878 -1.75,8.25658 0,4.8888 -0.44436,7.71115 -1.32975,8.44597 -0.86447,0.71744 -9.52453,1.19766 -24.75,1.37244 l -23.420247,0.26885 -0.31727,4.45006 c -0.1745,2.44753 0.17505,8.14967 0.77678,12.67142 0.60174,4.52175 1.32695,10.61922 1.61159,13.54994 1.07652,11.08418 2.63778,21.51718 4.00881,26.78868 0.78105,3.00305 1.42009,6.80263 1.42009,8.44349 0,2.89032 3.361287,15.40151 6.608137,24.59641 0.87396,2.475 2.16939,6.975 2.87875,10 0.70935,3.025 2.01222,6.85 2.89526,8.5 0.88304,1.65 1.62237,3.675 1.64296,4.5 0.0206,0.825 1.14425,3.75 2.49702,6.5 1.35277,2.75 2.4637,5.53869 2.46873,6.19709 0.005,0.65839 1.13414,3.31292 2.50914,5.89893 1.375,2.58602 2.5,5.25474 2.5,5.93047 0,0.67574 0.67177,1.78614 1.49282,2.46755 0.82106,0.68142 1.98105,3.05208 2.57778,5.26814 0.59672,2.21605 1.85548,5.20113 2.79725,6.63351 2.68724,4.08715 3.85797,6.17408 7.07074,12.60431 2.72958,5.46312 3.8862,7.38663 9.281,15.43469 0.94577,1.41092 2.45872,3.91531 3.36211,5.56531 0.90339,1.65 3.28588,5.025 5.29444,7.5 2.00855,2.475 4.9721,6.525 6.58567,9 1.61357,2.475 3.40726,4.95 3.98598,5.5 0.57871,0.55 2.38825,2.8 4.02119,5 2.76278,3.72218 21.11804,24.37252 22.67516,25.51037 0.38413,0.2807 4.93116,4.5557 10.10451,9.5 14.77729,14.12301 18.96153,17.90771 23.25135,21.03113 2.2,1.60182 7.22712,5.51027 11.17139,8.68545 3.94426,3.17518 7.56126,5.77305 8.03777,5.77305 0.47651,0 2.42439,1.33171 4.32861,2.95936 1.90423,1.62765 3.96963,2.97765 4.58979,3 0.62015,0.0224 1.74515,0.78535 2.5,1.69554 0.75484,0.9102 2.72244,2.27702 4.37244,3.03738 1.65,0.76036 5.025,2.68006 7.5,4.26601 2.475,1.58594 11.475,6.32294 20,10.52665 25.13656,12.39494 33.91193,16.30763 38.31063,17.08161 1.54584,0.272 4.46418,1.3808 6.48519,2.464 2.02101,1.0832 4.80623,1.97933 6.18937,1.99141 1.38315,0.0121 4.47645,0.91208 6.87401,2 2.39757,1.08792 5.09757,1.98753 6,1.99913 0.90244,0.0116 4.7908,1.13464 8.6408,2.49564 3.85,1.36101 8.6401,2.47652 10.64466,2.47891 2.00457,0.002 6.50457,0.85731 10,1.89979 5.78638,1.72575 9.05164,2.25681 22.85534,3.71715 2.475,0.26184 5.175,0.72056 6,1.01938 0.825,0.29883 4.2,0.76747 7.5,1.04143 3.3,0.27396 6.15207,0.64909 6.33793,0.83363 0.18587,0.18453 2.66087,0.25844 5.5,0.16425 l 5.16207,-0.17127 z m 53.73509,29.45211 c 2.2,-0.21161 6.925,-0.84434 10.5,-1.40607 3.575,-0.56173 9.60854,-1.32354 13.40786,-1.69291 3.79932,-0.36938 8.37862,-1.28612 10.17622,-2.03721 1.7976,-0.75108 5.88906,-1.64661 9.09214,-1.99005 5.31929,-0.57036 14.64312,-3.0651 26.32378,-7.04337 2.475,-0.84294 6.71417,-1.93037 9.42039,-2.41649 2.70621,-0.48612 5.19549,-1.32899 5.53173,-1.87304 0.33624,-0.54405 3.23808,-1.67336 6.44854,-2.50958 3.21045,-0.83622 6.34617,-1.92243 6.96826,-2.41382 0.62209,-0.49138 2.93108,-1.46751 5.13108,-2.16918 2.2,-0.70166 5.07319,-2.1103 6.38486,-3.13032 1.31167,-1.02001 2.9622,-1.85457 3.66784,-1.85457 1.21886,0 10.24755,-4.05214 13.4473,-6.03524 0.825,-0.5113 5.1,-2.7612 9.5,-4.99977 10.03277,-5.10432 26.76953,-15.03664 31,-18.39676 1.1,-0.87369 4.7,-3.35065 8,-5.50435 3.3,-2.15371 7.65433,-5.41164 9.67629,-7.23986 2.02196,-1.82821 4.68413,-3.99902 5.91592,-4.82402 10.32101,-6.91252 43.91986,-40.03746 53.48818,-52.73373 1.9756,-2.62145 5.03127,-6.34127 6.79036,-8.26627 1.75909,-1.925 4.86308,-5.975 6.89775,-9 2.03467,-3.025 5.03888,-7.3 6.67603,-9.5 1.63715,-2.2 3.62346,-5.40757 4.41402,-7.12792 0.79056,-1.72036 1.96105,-3.45157 2.6011,-3.84714 0.64004,-0.39557 1.61729,-1.68801 2.17167,-2.87208 0.55437,-1.18407 2.30196,-4.40286 3.88352,-7.15286 1.58157,-2.75 6.53393,-12.425 11.00525,-21.5 4.47133,-9.075 8.93955,-18.075 9.92939,-20 0.98984,-1.925 2.1291,-5.01806 2.53169,-6.87347 0.40259,-1.85541 1.54131,-4.78041 2.5305,-6.5 0.98919,-1.71959 2.10538,-5.03667 2.48044,-7.37129 0.37505,-2.33462 1.04754,-4.47073 1.49442,-4.74692 0.44688,-0.27618 1.35304,-2.86604 2.01369,-5.75524 0.66065,-2.88919 2.01324,-7.05308 3.00577,-9.25308 0.99252,-2.2 2.11859,-6.69953 2.50236,-9.99896 0.38378,-3.29943 1.3207,-7.20356 2.08205,-8.67585 0.76135,-1.47229 1.87536,-7.08096 2.47557,-12.46371 0.60021,-5.38275 1.51064,-10.57037 2.02318,-11.52805 0.96505,-1.80322 1.13171,-3.37155 2.99789,-28.21113 0.92578,-12.32255 0.88548,-15.02488 -0.23465,-15.73469 -0.74381,-0.47134 -12.90309,-0.86388 -27.0206,-0.8723 -14.11752,-0.008 -26.38002,-0.28845 -27.25,-0.6223 -1.26813,-0.48663 -1.58179,-2.26748 -1.58179,-8.98095 0,-7.8818 -0.13224,-8.40086 -2.25,-8.83172 -1.2375,-0.25178 -19.47894,-0.37285 -40.53654,-0.26906 -32.76369,0.1615 -38.43472,0.4051 -39.31376,1.68872 -0.62786,0.91685 -0.82644,5.54479 -0.51078,11.90418 0.29859,6.01567 0.0997,11.18275 -0.47143,12.25 -1.15877,2.16517 -6.12497,2.50568 -7.76277,0.53225 -0.62011,-0.74719 -1.21188,-6.67589 -1.37244,-13.75 l -0.28228,-12.43643 -12.86536,-0.0259 c -15.57729,-0.0313 -17.16883,0.65562 -12.97811,5.60186 5.45394,6.43719 8.25172,11.42356 8.93473,15.92403 0.37562,2.475 1.05391,5.22552 1.50731,6.11227 0.85888,1.67975 1.31731,4.00239 2.44504,12.38773 0.36984,2.75 1.359,7.16312 2.19814,9.80693 3.08029,9.70487 -0.0852,22.56341 -6.07265,24.66751 -2.91636,1.02487 -3.38417,0.87441 -5.86582,-1.88652 -1.48319,-1.65012 -3.21576,-4.93244 -3.85014,-7.29406 -0.63438,-2.36163 -1.95543,-6.09386 -2.93566,-8.29386 -0.98023,-2.2 -2.06338,-5.21614 -2.407,-6.70254 -0.88273,-3.81844 -4.9362,-8.27018 -6.8586,-7.53249 -0.85981,0.32994 -1.85965,1.9492 -2.22186,3.59836 -0.36222,1.64916 -1.30465,3.53467 -2.0943,4.19002 -0.78965,0.65536 -1.43572,1.7163 -1.43572,2.35766 0,0.64137 -0.93634,2.94877 -2.08076,5.12756 -1.79664,3.42051 -5.11809,13.55373 -6.54293,19.96144 -2.79274,12.55932 0.22427,33.6365 6.94233,48.5 3.59598,7.956 7.63926,13.52174 13.10278,18.03653 10.2323,8.45548 13.11294,15.40002 8.74355,21.07861 -4.26215,5.5392 -8.42112,15.22791 -11.32597,26.38486 -0.5728,2.2 -1.67625,5.42928 -2.45211,7.17617 -0.77586,1.7469 -1.839,5.43481 -2.36253,8.19538 -0.52353,2.76056 -1.60436,6.58082 -2.40184,8.48947 -0.79749,1.90865 -1.71815,8.34574 -2.04592,14.30463 -0.32777,5.95889 -0.81571,13.30935 -1.0843,16.33435 -0.26859,3.025 -0.73849,8.65 -1.04422,12.5 -0.30574,3.85 -0.97063,8.8 -1.47754,11 -0.50691,2.2 -0.93265,6.05635 -0.94609,8.56966 -0.0193,3.60992 -0.54952,5.02621 -2.52445,6.74339 -2.32727,2.02354 -2.50116,2.81327 -2.51675,11.43034 -0.0147,8.10001 -0.36241,9.94383 -2.78314,14.75661 l -2.76639,5.5 -9.46686,0.30241 c -5.20677,0.16633 -10.88591,0.0416 -12.62031,-0.2772 -5.34755,-0.98289 -5.23261,-1.69696 2.90142,-18.02521 1.64392,-3.3 3.72314,-6.84067 4.62049,-7.86815 1.35185,-1.54789 1.58392,-3.92912 1.35376,-13.89044 -0.30093,-13.02441 -0.78159,-15.06449 -2.87486,-12.20177 -0.9339,1.27719 -1.34736,5.17375 -1.34736,12.698 v 10.85538 l -3.22348,1.70349 c -5.7117,3.01843 -9.39792,7.35589 -10.11913,11.90688 -1.00974,6.37176 -5.28683,9.89891 -12.3501,10.18467 -7.79139,0.31521 -10.83837,-0.56348 -12.18234,-3.51316 -0.94855,-2.08184 -0.79619,-3.26199 0.86509,-6.70089 2.88552,-5.97309 6.00814,-10.72356 9.31698,-14.17401 3.72344,-3.88279 8.33118,-13.44023 9.73139,-20.18501 0.60686,-2.92324 1.50109,-5.31499 1.98717,-5.31499 0.48609,0 1.18419,-1.6875 1.55134,-3.75 0.36715,-2.0625 1.46556,-5.325 2.4409,-7.25 0.97535,-1.925 2.99538,-6.2 4.48897,-9.5 1.49358,-3.3 4.67346,-10.05 7.06641,-15 2.39294,-4.95 4.78692,-10.8 5.31994,-13 0.53303,-2.2 1.73299,-6.025 2.66657,-8.5 1.2729,-3.37454 1.7278,-8.00143 1.81886,-18.5 0.10944,-12.61734 -0.11031,-14.54319 -2.22508,-19.5 -3.93199,-9.21624 -8.03017,-14.1839 -19.58211,-23.73672 -12.94829,-10.70753 -15.8591,-13.3314 -28.57138,-25.75489 -16.99758,-16.61143 -20.70141,-21.1112 -25.93502,-31.50839 -8.29923,-16.48739 -20.09426,-18.15405 -43.06498,-6.08514 -1.925,1.0114 -5.41837,2.15986 -7.76304,2.55213 -2.58411,0.43232 -4.65173,1.4395 -5.25,2.55737 -0.61333,1.14602 -0.98696,21.71824 -0.98696,54.34251 0,60.94063 -1.69325,54.24662 13.43477,53.11243 5.1164,-0.3836 10.23864,-0.40034 11.38274,-0.0372 2.63265,0.83557 3.51612,3.55021 2.24417,6.89569 -0.98602,2.59343 -1.03103,2.60285 -13.77547,2.88208 l -12.78621,0.28013 v 50 50 l 4,0.5 4,0.5 0.5358,31.5 c 0.29469,17.325 0.63219,31.65668 0.75,31.84819 0.11781,0.1915 2.8017,0.0613 5.9642,-0.28933 3.1625,-0.35063 7.55,-0.81064 9.75,-1.02225 z M 460.88314,494.41471 c 0.2823,-1.2375 0.62837,-5.175 0.76905,-8.75 l 0.25578,-6.5 11,-0.2466 c 6.05,-0.13563 11.96286,-0.46925 13.1397,-0.74137 2.56652,-0.59346 3.57468,-2.8097 2.75811,-6.06317 -0.59048,-2.35267 -0.8178,-2.39682 -13.74911,-2.67054 l -13.1487,-0.27832 v -27.5 -27.5 h 31.5 31.5 l 0.28228,12.43643 c 0.16056,7.07411 0.75233,13.00281 1.37244,13.75 1.31271,1.58172 6.45974,1.7464 7.39289,0.23653 0.3661,-0.59236 0.61506,-6.10486 0.55324,-12.25 -0.0618,-6.14513 0.32374,-11.84796 0.8568,-12.67296 0.83247,-1.28839 6.52848,-1.51565 40.37624,-1.61093 21.67388,-0.061 39.91534,-0.42507 40.53658,-0.80902 1.74976,-1.0814 1.39914,-7.26261 -0.45226,-7.97306 -0.86998,-0.33385 -19.00498,-0.60699 -40.3,-0.60699 -28.78083,0 -39.0262,-0.30799 -39.91821,-1.2 -0.84075,-0.84075 -1.2,-6.37354 -1.2,-18.48095 v -17.28095 l -2.65478,-0.6663 c -5.44329,-1.36618 -5.79973,-0.28566 -6.34522,19.23522 l -0.5,17.89298 h -31.5 -31.5 l -0.2466,-11 c -0.34197,-15.25372 -0.42574,-15.5 -5.27245,-15.5 h -3.98095 v 12.37756 c 0,9.19669 -0.34839,12.66669 -1.35568,13.50267 -1.44072,1.19569 -61.35205,1.74139 -62.53215,0.56957 -0.33669,-0.33433 -0.83717,-6.30981 -1.11217,-13.27884 l -0.5,-12.67096 h -4 -4 l -0.28265,12.48265 c -0.15545,6.86545 -0.62106,12.82106 -1.03468,13.23468 -0.41362,0.41362 -26.61143,0.77394 -58.21735,0.80072 -31.60593,0.0268 -58.10282,0.44408 -58.88199,0.92734 -1.42565,0.88423 -1.98044,6.49084 -0.76277,7.70851 0.35964,0.35964 26.19714,0.61384 57.41667,0.56489 31.21952,-0.049 57.76491,0.11276 58.98975,0.35937 2.1894,0.44082 2.23159,0.74767 2.5,18.18511 l 0.27302,17.73673 h 4 4 l 0.27352,-17.2274 c 0.24035,-15.13876 0.48283,-17.335 2,-18.1149 0.94956,-0.48813 14.90541,-0.89972 31.013,-0.91465 24.40029,-0.0226 29.53069,0.21701 30.75,1.43632 1.20614,1.20615 1.46348,5.83439 1.46348,26.32063 0,21.97777 -0.19524,25.05239 -1.6855,26.54264 -1.47348,1.47348 -3.5176,1.62558 -16.25,1.20917 -16.79909,-0.54943 -19.0645,-0.0621 -19.0645,4.10099 0,1.59627 0.5625,3.34511 1.25,3.8863 0.6875,0.5412 8.6398,1.06752 17.67177,1.16959 9.03198,0.10208 16.79448,0.41594 17.25,0.69747 0.45553,0.28153 0.82823,4.01032 0.82823,8.28619 0,4.27587 0.3,8.07432 0.66667,8.44098 0.36666,0.36667 2.15809,0.66667 3.98094,0.66667 2.61829,0 3.42207,-0.4725 3.82756,-2.25 z m -220.47517,-103.25 0.5,-13 h 4 4 l 0.62278,11 c 0.76198,13.4587 0.58435,12.5 2.31595,12.5 0.9652,0 1.63691,-1.56337 2.04087,-4.75 0.6236,-4.91928 3.65822,-19.29748 6.27895,-29.75 0.82739,-3.3 2.06898,-9.15 2.75908,-13 0.6901,-3.85 1.731,-8.35 2.31311,-10 0.58211,-1.65 1.52358,-6.17336 2.09215,-10.0519 0.56858,-3.87855 1.94353,-9.89967 3.05544,-13.38028 1.11192,-3.4806 2.02167,-7.43513 2.02167,-8.78784 0,-1.35272 1.42588,-6.5816 3.16863,-11.61973 6.00645,-17.36415 10.79738,-25.79109 19.61482,-34.5012 l 6.41908,-6.34094 -3.07297,-3.65906 c -10.20922,-12.15637 -15.65663,-24.10812 -17.39227,-38.15905 -1.40568,-11.37978 -1.55055,-28.9346 -0.3796,-46 0.81845,-11.92812 0.76126,-12.60994 -1.25,-14.90301 -1.65509,-1.88699 -2.10769,-3.72491 -2.10769,-8.55887 0,-3.6563 0.56048,-6.92236 1.38033,-8.04358 1.32308,-1.80942 1.50974,-1.75832 4.5,1.23195 1.71582,1.71581 3.11967,4.08386 3.11967,5.26233 0,3.78839 1.86189,6.01118 5.03518,6.01118 1.63065,0 2.96482,-0.36895 2.96482,-0.81989 0,-0.45094 1.2375,-2.26216 2.75,-4.02492 3.04937,-3.55394 4.88405,-5.87178 8.9844,-11.35041 13.06276,-17.45365 14.60404,-20.33695 15.83614,-29.62497 0.81223,-6.12296 2.75652,-8.983187 4.8982,-7.205747 1.13882,0.945127 1.53126,3.297797 1.53126,9.179767 0,5.73294 0.37294,8.05205 1.35549,8.42909 1.29293,0.49614 7.42953,-2.60057 10.63544,-5.36696 0.82999,-0.7162 4.09539,-3.33154 7.25645,-5.81188 l 5.74738,-4.50969 1.13408,2.48903 c 0.62374,1.36897 0.88973,3.12579 0.59109,3.90405 -0.29864,0.77825 -5.8703,4.91094 -12.38146,9.18375 -6.51116,4.27281 -13.05775,8.61475 -14.54798,9.64876 -1.49023,1.03401 -3.3645,1.88002 -4.16505,1.88002 -3.1265,0 -18.62544,15.21406 -18.62544,18.28309 0,0.48197 -2.25,5.52958 -5,11.21691 -2.75,5.68733 -5,10.63156 -5,10.98718 0,0.35562 -1.97004,4.77898 -4.37787,9.8297 -5.23079,10.97224 -6.2,15.74791 -3.798,18.71425 1.54301,1.90554 2.11055,1.99198 6.5487,0.99737 4.44373,-0.99586 6.17905,-2.41946 20.29212,-16.64697 10.05251,-10.13404 15.93873,-15.36385 16.88394,-15.00114 2.13446,0.81907 1.76781,4.97714 -0.79889,9.06007 -2.78843,4.43563 -15.77516,20.83557 -20.24002,25.55954 -4.72437,4.99855 -13.21745,16.50296 -13.99739,18.96035 -1.83514,5.78198 3.85745,13.87721 10.37305,14.75114 3.8557,0.51715 4.34962,0.2839 8.11005,-3.82995 2.20237,-2.40936 4.00431,-5.09861 4.00431,-5.97611 0,-0.8775 0.87449,-2.38686 1.94332,-3.35413 1.06883,-0.96728 2.23788,-3.17452 2.5979,-4.90499 1.05015,-5.04761 5.61995,-14.64631 6.9729,-14.64631 0.68254,0 1.80119,0.675 2.48588,1.5 2.0238,2.43853 3.31759,1.82211 9.89462,-4.71428 6.61185,-6.57099 11.44296,-13.05543 12.62222,-16.94186 0.39116,-1.28912 1.52039,-3.69386 2.5094,-5.34386 0.989,-1.65 2.11784,-5.25 2.50852,-8 0.39068,-2.75 1.56739,-7.025 2.61491,-9.5 2.3911,-5.64948 7.97726,-16.33539 8.88691,-17 0.3764,-0.275 1.38646,-1.85 2.24458,-3.5 0.85813,-1.65 3.90359,-5.61182 6.7677,-8.80405 4.18895,-4.66886 5.72027,-5.74459 7.8293,-5.5 4.73064,0.54861 4.0208,4.31044 -1.90903,10.11702 -8.24037,8.0691 -16.84532,22.02043 -16.9227,27.43703 -0.13602,9.52125 13.48637,9.54908 21.4678,0.0438 7.25093,-8.63527 22.65051,-23.98125 28.48577,-28.38662 9.39274,-7.09113 24.29954,-11.80585 22.76421,-7.19986 -0.39526,1.18579 -2.82921,2.84641 -9.76421,6.66187 -4.61197,2.53738 -11.54707,9.62308 -13.10882,13.39347 -1.09319,2.63919 -1.01725,3.17194 0.62309,4.37138 1.02739,0.75125 3.14781,1.36591 4.71204,1.36591 1.56423,0 3.91902,0.70434 5.23287,1.56521 1.31384,0.86086 5.17055,1.95841 8.57046,2.43898 3.39991,0.48057 6.43411,1.12623 6.74267,1.43479 1.43712,1.43712 -1.73916,2.07411 -11.10517,2.22709 -14.31587,0.23383 -21.42972,1.17216 -25.80356,3.40353 -2.08115,1.06172 -4.36433,1.94452 -5.07374,1.96178 -1.64477,0.04 -11.44362,4.89993 -15.10319,7.49069 -9.98618,7.06962 -17.26877,13.15273 -24.45925,20.43068 -4.52507,4.58013 -8.2274,8.69126 -8.2274,9.13585 0,0.4446 -1.125,2.02225 -2.5,3.5059 -3.25067,3.50754 -3.80792,11.77443 -0.94395,14.00363 2.46,1.91477 18.50947,-0.27709 20.02873,-2.7353 0.29329,-0.47456 1.33967,-0.86283 2.3253,-0.86283 0.98562,0 3.84093,-1.08941 6.34514,-2.4209 4.31391,-2.29373 6.6492,-2.9564 9.49478,-2.69425 2.4262,0.22351 1.19665,3.63974 -2.00632,5.57445 -9.15934,5.53258 -11.23108,6.59645 -22.74368,11.67929 -12.79106,5.64727 -19,9.70388 -19,12.41364 0,0.64793 -0.85663,2.26708 -1.90362,3.59811 -1.04698,1.33103 -2.40921,4.29771 -3.02717,6.59263 -0.61796,2.29492 -1.56133,4.44314 -2.09638,4.77382 -1.65926,1.02548 -1.07072,4.36045 0.96143,5.44803 1.06384,0.56935 3.70315,1.03518 5.86514,1.03518 2.41669,0 4.9103,0.77041 6.47347,2 1.39842,1.1 3.0967,2 3.77396,2 0.67725,0 4.14139,2.5875 7.69809,5.75 3.55669,3.1625 9.93143,8.675 14.16607,12.25 4.23464,3.575 8.34952,7.06787 9.14418,7.76194 1.77256,1.54818 7.62747,5.88355 12.47599,9.23806 8.44141,5.8403 12.00853,11.60626 10.88507,17.59484 -0.49382,2.63231 -2.00691,4.59104 -6.15971,7.97388 l -5.50508,4.48441 -26.02901,-0.0876 c -20.45447,-0.0688 -26.20707,0.19322 -26.86041,1.22343 -0.45727,0.72105 -0.83829,5.24014 -0.84671,10.04243 -0.008,4.80229 -0.56476,11.93561 -1.23632,15.85181 -1.14469,6.67533 -1.09918,7.20945 0.72814,8.54562 2.35109,1.71916 8.65902,1.01477 15.77989,-1.76211 2.63286,-1.02672 6.23286,-1.87447 8,-1.8839 1.76714,-0.009 6.45152,-0.85839 10.40973,-1.88658 3.95821,-1.0282 7.33352,-1.73268 7.50069,-1.56551 0.37031,0.37031 21.93164,5.04178 34.30256,7.43197 4.95,0.95639 10.23955,2.24567 11.75456,2.86506 1.515,0.61939 6.28904,1.42093 10.60896,1.7812 l 7.85441,0.65503 0.72693,-14.67606 c 0.53498,-10.80086 0.41294,-15.05438 -0.46218,-16.10884 -0.93011,-1.12072 -4.92381,-1.49229 -18.33589,-1.70596 l -17.14679,-0.27307 -0.3075,-4.25 c -0.16912,-2.3375 0.0559,-4.30002 0.5,-4.36116 0.44413,-0.0611 8.30751,-0.17364 17.47418,-0.25 9.16668,-0.0764 17.04168,-0.51395 17.5,-0.97243 0.79801,-0.79826 1.28435,-123.8377 0.4997,-126.41641 -0.28401,-0.93336 -4.51212,-1.25 -16.69158,-1.25 -8.97117,0 -17.02303,-0.27314 -17.89301,-0.60699 -1.61925,-0.62136 -2.37099,-8.29274 -0.83179,-8.4883 0.4125,-0.0524 8.29408,-0.20899 17.51461,-0.34795 9.22054,-0.13896 17.05989,-0.54793 17.42078,-0.90882 0.93607,-0.93607 1.07898,-68.05261 0.15025,-70.56322 -0.68558,-1.85329 -1.58515,-2.08472 -8.10342,-2.08472 -4.3695,0 -7.8171,-0.48488 -8.53222,-1.2 -0.87083,-0.87083 -1.2,-8.22222 -1.2,-26.799997 0,-14.887769 -0.39869,-25.998693 -0.95279,-26.552794 -1.35836,-1.35836 -25.35455,0.06123 -32.59957,1.928549 -3.2712,0.843117 -9.09764,1.809115 -12.94764,2.146661 -3.85,0.337547 -8.8,1.241335 -11,2.00842 -2.2,0.767085 -7.094,1.879115 -10.87556,2.471179 -3.78155,0.592064 -8.14363,1.732228 -9.6935,2.533698 -1.54987,0.801469 -4.50845,1.725881 -6.57463,2.054249 -2.06617,0.328367 -5.83013,1.414312 -8.36436,2.413211 -2.53423,0.998897 -5.9861,2.033417 -7.67084,2.298937 -1.68473,0.26552 -4.13369,1.16199 -5.44213,1.99216 -1.30844,0.83018 -3.95398,1.83501 -5.87898,2.23297 -1.925,0.39796 -5.075,1.53828 -7,2.53405 -1.925,0.99576 -6.2,3.00861 -9.5,4.473 -10.34829,4.59207 -34.86428,16.808577 -38,18.935687 -4.54449,3.08275 -6.75416,4.42427 -9.5,5.76758 -1.375,0.67268 -5.2,3.2621 -8.5,5.75428 -3.3,2.49217 -7.8,5.75883 -10,7.25925 -6.74186,4.59801 -19.74474,14.74825 -22,17.17352 -0.55,0.59147 -3.89105,3.55039 -7.42455,6.57539 -10.17523,8.71093 -22.02065,20.67109 -31.14902,31.45072 -4.63454,5.4729 -9.68148,11.3229 -11.21542,13 -1.53394,1.67711 -4.4535,5.52428 -6.4879,8.54928 -2.0344,3.025 -4.73592,6.85 -6.00339,8.5 -5.99927,7.80992 -9.08591,12.52819 -10.95764,16.75 -0.67056,1.5125 -1.59561,2.75 -2.05566,2.75 -0.46005,0 -2.76643,3.7125 -5.12528,8.25 -2.35886,4.5375 -5.59019,10.5 -7.18075,13.25 -1.59056,2.75 -3.14243,5.675 -3.44859,6.5 -0.30617,0.825 -1.39887,3.3 -2.42823,5.5 -1.02936,2.2 -2.18399,5.125 -2.56585,6.5 -0.38185,1.375 -1.27697,3.175 -1.98915,4 -0.71218,0.825 -2.18685,3.975 -3.27705,7 -4.60452,12.77629 -5.29422,14.59649 -6.25207,16.5 -0.55353,1.1 -1.63468,4.475 -2.40255,7.5 -0.76788,3.025 -2.07458,7.525 -2.90377,10 -3.19552,9.53804 -5.654827,18.73875 -6.548757,24.5 -0.51203,3.3 -1.40325,7.84798 -1.98049,10.10663 -0.57724,2.25865 -1.95712,11.48365 -3.0664,20.5 -1.88535,15.3244 -1.90726,16.47488 -0.33604,17.64337 1.22307,0.90958 7.5657,1.25 23.289687,1.25 23.1391,0 24.00887,0.18234 24.00887,5.03333 0,1.44834 0.30416,2.93749 0.6759,3.30924 0.37175,0.37174 22.98425,0.55924 50.25,0.41666 l 49.5741,-0.25923 z m 423,-4.39307 c 0.54359,-18.90944 0.93673,-20.09258 6.23463,-18.76289 3.44267,0.86406 3.78184,2.86884 3.20922,18.96929 -0.31064,8.73409 -0.10126,14.45829 0.57507,15.72202 1.03785,1.93925 2.0352,1.98095 41.27232,1.72596 l 40.20876,-0.26131 0.5,-4 0.5,-4 26.41794,-0.26693 c 16.31588,-0.16486 26.89428,-0.66226 27.66362,-1.30076 1.60605,-1.3329 0.84536,-17.02796 -1.22599,-25.29544 -0.80792,-3.22472 -1.8728,-9.40397 -2.36638,-13.73166 -0.49358,-4.32769 -1.61112,-9.97068 -2.48342,-12.53997 -0.8723,-2.5693 -1.85687,-6.74005 -2.18793,-9.26835 -0.33105,-2.52829 -1.38408,-6.17189 -2.34004,-8.09689 -0.95597,-1.925 -2.06725,-5.47547 -2.4695,-7.88992 -0.40226,-2.41446 -1.5713,-6.23946 -2.59788,-8.5 -1.02657,-2.26055 -1.89045,-5.01008 -1.91973,-6.11008 -0.0293,-1.1 -1.16005,-4.25 -2.51282,-7 -1.35277,-2.75 -2.4637,-5.52553 -2.46873,-6.16784 -0.005,-0.64231 -1.07352,-3.34231 -2.37442,-6 -1.3009,-2.65769 -3.55885,-7.41577 -5.01767,-10.57351 -11.44709,-24.77831 -26.08902,-49.47455 -38.09773,-64.25865 -2.23375,-2.75 -6.0143,-7.58124 -8.40123,-10.7361 -9.92782,-13.12184 -35.54641,-38.87051 -51.61809,-51.8802 -6.05,-4.89734 -11.73322,-9.5962 -12.62938,-10.4419 -0.89616,-0.84569 -4.10533,-3.20357 -7.13149,-5.23971 -10.19679,-6.86089 -17.21685,-11.49163 -21.23913,-14.01028 -2.2,-1.37758 -5.21928,-3.33429 -6.70951,-4.34825 -1.49023,-1.01396 -3.11704,-1.84356 -3.61514,-1.84356 -0.4981,0 -1.97882,-0.82798 -3.29049,-1.83995 -1.31167,-1.01198 -3.93064,-2.3676 -5.81993,-3.0125 -1.88928,-0.6449 -4.13928,-1.74751 -5,-2.45025 -0.86071,-0.70274 -4.48993,-2.54329 -8.06493,-4.090117 -3.575,-1.54683 -8.525,-3.83831 -11,-5.09217 -2.475,-1.25385 -5.625,-2.6109 -7,-3.01565 -1.375,-0.40476 -3.19271,-1.34166 -4.03936,-2.082 -0.84665,-0.74034 -3.255,-1.55887 -5.3519,-1.81895 -2.0969,-0.26009 -4.55419,-1.1422 -5.46064,-1.96027 -0.90646,-0.81806 -4.3481,-2.14982 -7.6481,-2.95946 -3.3,-0.809646 -7.35,-1.921626 -9,-2.471069 -12.72708,-4.238068 -17.20816,-5.458737 -23.10435,-6.293739 -3.70679,-0.524947 -7.27183,-1.396147 -7.92232,-1.936002 -0.65048,-0.539855 -4.96059,-1.440891 -9.57801,-2.002304 -4.61743,-0.561412 -11.54532,-1.686669 -15.39532,-2.50057 -9.71335,-2.053432 -29.33671,-3.320103 -31.09854,-2.007386 -1.10811,0.825641 -1.43724,6.339341 -1.64352,27.53239 l -0.25794,26.499997 -4,0.5 -4,0.5 v 36 36 l 13,1 13,1 0.30836,3.7163 c 0.37857,4.56259 -0.022,4.6944 -15.30836,5.0371 l -11,0.2466 -0.25752,63.43633 c -0.20325,50.06695 0.007,63.61472 1,64.28275 0.69163,0.46552 6.23899,0.55778 12.32744,0.20502 9.5881,-0.55554 11.29482,-0.4165 12.75,1.03868 1.99421,1.99421 2.15346,4.52193 0.43008,6.82652 -1.0306,1.37816 -3.444,1.71887 -13.75,1.94113 l -12.5,0.26957 -0.27773,14.92385 c -0.20983,11.27531 0.0346,15.11807 1,15.71829 1.39337,0.86636 5.50299,0.44312 16.27773,-1.6764 3.85,-0.75733 11.5,-1.66694 17,-2.02135 5.5,-0.3544 10.225,-0.7777 10.5,-0.94067 0.275,-0.16296 3.65,-0.5733 7.5,-0.91186 3.85,-0.33856 9.925,-0.90489 13.5,-1.25851 9.56277,-0.94591 18.09534,-1.0425 21.5,-0.24337 10.9824,2.57773 16.50189,4.202 20,5.88557 19.04802,9.16742 23.21989,11.41267 25.92137,13.95058 1.21414,1.14063 2.54605,2.07387 2.9598,2.07387 0.90227,0 5.41504,3.31746 15.99345,11.75722 l 7.87461,6.2826 20.62539,-0.26991 20.62538,-0.26991 z"
       id="path441" />
  </g>
</svg>
