<?xml version="1.0" encoding="UTF-8" standalone="no"?>
<!-- Created with Inkscape (http://www.inkscape.org/) -->

<svg
   width="34.119385mm"
   height="37.345097mm"
   viewBox="0 0 34.119385 37.345097"
   version="1.1"
   id="svg5"
   xml:space="preserve"
   inkscape:version="1.2.2 (732a01da63, 2022-12-09)"
   sodipodi:docname="Derrumbe.svg"
   xmlns:inkscape="http://www.inkscape.org/namespaces/inkscape"
   xmlns:sodipodi="http://sodipodi.sourceforge.net/DTD/sodipodi-0.dtd"
   xmlns="http://www.w3.org/2000/svg"
   xmlns:svg="http://www.w3.org/2000/svg"><sodipodi:namedview
     id="namedview7"
     pagecolor="#ffffff"
     bordercolor="#000000"
     borderopacity="0.25"
     inkscape:showpageshadow="2"
     inkscape:pageopacity="0.0"
     inkscape:pagecheckerboard="0"
     inkscape:deskcolor="#d1d1d1"
     inkscape:document-units="mm"
     showgrid="false"
     inkscape:zoom="2.3786088"
     inkscape:cx="59.908969"
     inkscape:cy="111.61987"
     inkscape:window-width="1920"
     inkscape:window-height="1111"
     inkscape:window-x="-9"
     inkscape:window-y="-9"
     inkscape:window-maximized="1"
     inkscape:current-layer="layer1" /><defs
     id="defs2" /><g
     inkscape:label="Capa 1"
     inkscape:groupmode="layer"
     id="layer1"
     transform="translate(-51.814589,-10.645748)"><path
       style="fill:#000000;stroke-width:0.0423333"
       d="m 51.815003,43.429431 4.06e-4,-4.561417 0.286157,-1.111807 0.286156,-1.111808 0.528354,-0.42751 c 0.290594,-0.23513 0.586592,-0.472463 0.657773,-0.527407 l 0.12942,-0.0999 0.780747,0.332359 c 0.429411,0.182798 0.9178,0.390507 1.085308,0.461576 l 0.304562,0.129217 0.537919,-1.362361 c 0.295855,-0.749299 0.746137,-1.886237 1.000625,-2.526529 0.254489,-0.640291 0.479739,-1.207029 0.500556,-1.259417 0.09207,-0.231702 0.115042,-0.265716 -1.779834,2.635251 -0.471461,0.721783 -0.872977,1.329402 -0.892259,1.350264 -0.01973,0.02135 -0.334083,-0.237687 -0.719211,-0.592667 -0.376284,-0.346829 -0.729242,-0.665163 -0.784352,-0.70741 -0.100075,-0.07672 -0.10133,-0.07612 -1.000884,0.475889 l -0.900683,0.552702 -0.01067,-10.611112 c -0.0059,-5.836111 -0.0043,-10.61744 0.0034,-10.625174 0.0077,-0.0077 0.887658,-0.09228 1.955385,-0.187881 1.653816,-0.148075 1.947979,-0.165019 1.986271,-0.114409 0.02472,0.03268 0.402136,0.500591 0.838698,1.039813 0.436563,0.539222 0.79375,0.993618 0.79375,1.009769 0,0.01615 -0.148513,0.193133 -0.33003,0.393291 -0.329513,0.363355 -1.326558,1.486416 -1.437903,1.619639 -0.05101,0.06104 -0.0022,0.339721 0.367722,2.09868 0.234599,1.115564 0.426544,2.058016 0.426544,2.09434 0,0.03632 -0.392934,1.111217 -0.873186,2.388653 -0.480253,1.277437 -0.882792,2.360712 -0.894531,2.407279 -0.01174,0.04657 0.05358,-0.02011 0.145164,-0.148167 0.43316,-0.605699 2.966303,-4.181421 2.9941,-4.226397 0.01735,-0.02807 -0.07685,-0.512605 -0.209338,-1.076739 -0.701294,-2.986156 -0.809185,-3.463649 -0.785677,-3.477169 0.0141,-0.0081 0.51141,-0.170558 1.105135,-0.361 0.593725,-0.190442 1.19079,-0.382599 1.326811,-0.427015 l 0.24731,-0.08076 1.705361,0.443039 c 0.937948,0.243671 1.715258,0.443039 1.727355,0.443039 0.0121,0 0.24782,0.251063 0.523829,0.557917 0.276009,0.306855 0.768535,0.85188 1.094501,1.211166 0.325967,0.359287 0.626505,0.697281 0.667864,0.751098 0.07139,0.09289 0.0719,0.144652 0.01013,1.021917 -0.100933,1.433357 0.01208,1.194567 -0.860424,1.818019 -0.411895,0.294321 -0.757252,0.542613 -0.76746,0.551761 -0.01021,0.0091 0.09318,0.503061 0.229745,1.097585 l 0.248306,1.080952 -0.442168,0.452709 c -0.243192,0.24899 -0.860927,0.877026 -1.372745,1.395635 -0.511817,0.518609 -0.935533,0.95734 -0.941591,0.974957 -0.01166,0.03391 0.362262,1.154468 1.344755,4.029951 0.330151,0.966259 0.666991,1.962988 0.748533,2.214955 0.08154,0.251967 0.155763,0.45062 0.164932,0.44145 0.0092,-0.0092 -0.229012,-1.043999 -0.529292,-2.299622 -0.877391,-3.668819 -0.943325,-3.95637 -0.920697,-4.015337 0.01183,-0.03083 0.699308,-0.650626 1.527729,-1.377327 0.828422,-0.726702 1.505926,-1.343479 1.505566,-1.370615 -3.81e-4,-0.02714 -0.133509,-0.476576 -0.295886,-0.998758 -0.162377,-0.522181 -0.290669,-0.953072 -0.285095,-0.957536 0.04251,-0.03404 1.772529,-0.78121 1.80884,-0.78121 0.03513,0 2.233591,1.160684 2.272882,1.199975 0.0042,0.0042 0.143052,1.12186 0.308482,2.483612 l 0.300784,2.475913 0.114907,0.08993 c 0.0632,0.04946 1.019782,0.761019 2.125741,1.581239 1.105958,0.82022 2.046107,1.525167 2.089218,1.566548 0.049,0.04703 0.11459,0.242911 0.17495,0.522455 l 0.09656,0.447216 -0.07834,1.071306 c -0.04309,0.589219 -0.07895,1.093035 -0.0797,1.119593 -7.5e-4,0.02656 -0.235655,0.236107 -0.522014,0.465666 -0.28636,0.22956 -0.816973,0.655506 -1.179141,0.946547 l -0.658487,0.529167 -0.02675,0.486833 c -0.01471,0.267759 -0.03922,0.831408 -0.05445,1.252554 l -0.02769,0.765721 -0.923571,0.460259 c -0.507963,0.253143 -0.918236,0.465594 -0.911717,0.472113 0.01141,0.01141 1.821618,-0.513145 2.243317,-0.650061 l 0.205686,-0.06678 -0.01519,-1.16822 -0.01519,-1.16822 1.090255,-0.912996 c 0.59964,-0.502148 1.228739,-1.050556 1.397996,-1.218683 l 0.30774,-0.305687 h 0.248565 c 0.197835,0 0.285816,0.02357 0.431079,0.115467 0.167001,0.105653 0.184538,0.133537 0.206337,0.328083 0.0131,0.116939 0.11545,1.065023 0.227439,2.106853 0.111988,1.041829 0.211635,1.902253 0.221436,1.912053 0.0098,0.0098 0.529471,0.16117 1.154823,0.336379 0.625351,0.175208 1.140678,0.324434 1.145171,0.331613 0.0045,0.0072 0.453541,1.003653 0.997884,2.214386 0.544344,1.210733 1.21696,2.706158 1.494702,3.323167 0.277742,0.617008 0.531736,1.183746 0.564431,1.259416 l 0.05944,0.137584 h -2.756283 c -2.59705,0 -2.762775,-0.0045 -2.868652,-0.07712 -0.817663,-0.561183 -1.107516,-0.787089 -1.089501,-0.849134 0.01095,-0.03772 0.03971,-0.17989 0.0639,-0.315938 0.04096,-0.230373 0.02771,-0.319909 -0.192951,-1.303778 l -0.236935,-1.056419 0.492304,-1.253201 c 0.270767,-0.68926 0.485783,-1.259721 0.477813,-1.267691 -0.008,-0.008 -0.178149,0.256845 -0.378175,0.588479 -0.200027,0.331633 -0.572375,0.94313 -0.82744,1.358882 l -0.463754,0.755912 0.25514,1.006038 0.25514,1.006038 -0.609787,0.703036 -0.609787,0.703035 -2.836333,8.47e-4 -2.836334,8.47e-4 -1.088803,-0.865861 c -0.715167,-0.568731 -1.096427,-0.899195 -1.111024,-0.963 -0.185662,-0.811596 -0.733193,-3.61479 -0.710054,-3.635265 0.01717,-0.01519 0.526515,-0.366667 1.131881,-0.781058 0.605367,-0.414391 1.114885,-0.765506 1.132262,-0.780256 0.01738,-0.01475 -0.168146,-0.49266 -0.412273,-1.062022 -0.244127,-0.569363 -0.444082,-1.007095 -0.444345,-0.972738 -2.54e-4,0.03436 0.06721,0.451497 0.149928,0.926978 0.08272,0.475482 0.13511,0.879042 0.116416,0.896801 -0.01869,0.01776 -0.395938,0.178909 -0.838321,0.358112 -1.701769,0.689359 -2.456672,1.00338 -2.491489,1.036398 -0.01989,0.01886 0.27108,1.030072 0.64659,2.247143 0.37551,1.21707 0.668005,2.225859 0.649988,2.241754 -0.01801,0.0159 -0.542056,0.326862 -1.164534,0.69104 L 61.6372,47.990844 h -4.911305 -4.911306 z m 27.028862,-4.172658 c -0.116106,-0.07722 -0.58495,-0.373722 -1.041876,-0.658885 l -0.830775,-0.518477 0.542564,-1.213963 0.542565,-1.213961 0.626877,-0.692876 c 0.344782,-0.381081 0.703077,-0.776748 0.79621,-0.87926 l 0.169334,-0.186385 1.666131,0.473756 1.666132,0.473756 -0.02134,0.151101 c -0.139964,0.991161 -0.476301,2.956249 -0.512452,2.994065 -0.02574,0.02693 -0.313507,0.157644 -0.639473,0.290476 -0.56299,0.229419 -1.022899,0.417113 -2.219958,0.905989 -0.289644,0.118289 -0.528023,0.215072 -0.529732,0.215072 -0.0017,0 -0.0981,-0.06318 -0.214209,-0.140408 z m 2.794565,-7.008512 c -0.704009,-0.316635 -1.011945,-0.475373 -1.002795,-0.516934 0.0073,-0.03299 0.243713,-0.628302 0.525446,-1.322918 0.350087,-0.863141 0.540222,-1.280427 0.60063,-1.318186 0.04861,-0.03039 0.637297,-0.343143 1.308189,-0.695013 l 1.219803,-0.639765 0.82278,0.702504 c 0.45253,0.386376 0.8222,0.72453 0.821491,0.751451 -7.11e-4,0.02692 -0.0819,0.55056 -0.180416,1.163643 l -0.179126,1.114696 -1.375334,0.590513 c -0.756434,0.324782 -1.413434,0.598714 -1.460001,0.608738 -0.04859,0.01046 -0.517602,-0.176491 -1.100667,-0.438729 z m -7.004717,-0.63763 c -0.732629,-0.392567 -1.338289,-0.732468 -1.345912,-0.755337 -0.0076,-0.02287 0.07165,-0.601087 0.176155,-1.28493 0.104508,-0.683843 0.203067,-1.35522 0.21902,-1.49195 0.02342,-0.200702 0.130628,-0.453553 0.556441,-1.312334 0.29009,-0.585053 0.53274,-1.069157 0.539223,-1.075787 0.01413,-0.01445 1.808179,-0.521669 2.224276,-0.628858 0.160961,-0.04146 0.300154,-0.06662 0.309317,-0.05591 0.232344,0.271729 1.942881,2.428631 1.955052,2.465223 0.0095,0.02856 -0.06303,0.907098 -0.161187,1.952306 l -0.178459,1.900377 -1.417438,0.499945 c -0.77959,0.274969 -1.446012,0.500183 -1.480937,0.500476 -0.03493,2.96e-4 -0.662924,-0.320659 -1.395551,-0.713225 z m -5.693178,-7.594905 c -0.536674,-0.4631 -1.000843,-0.86555 -1.031486,-0.894332 -0.0528,-0.0496 -0.27748,-1.41903 -0.252204,-1.53721 0.0064,-0.02979 0.335435,-0.424046 0.731252,-0.876125 l 0.719666,-0.821961 0.1905,-5.89e-4 c 0.319638,-9.9e-4 2.498642,0.109566 2.511738,0.127438 0.0067,0.0092 0.284785,0.667865 0.617867,1.463691 l 0.605605,1.446957 -0.602606,0.881377 c -0.331433,0.484757 -0.611375,0.890809 -0.622092,0.902336 -0.01072,0.01153 -0.440907,0.05009 -0.955977,0.08569 l -0.93649,0.06473 -0.975773,-0.842 z m -2.214026,-4.29724 -0.772587,-0.0607 -0.08196,-0.279718 c -0.430681,-1.469924 -0.704948,-2.496117 -0.669453,-2.504809 0.135113,-0.03308 2.305751,-0.231888 2.32703,-0.213127 0.01675,0.01476 0.163347,0.354146 0.325781,0.754181 l 0.295336,0.727337 -0.278323,0.774684 c -0.153078,0.426076 -0.29968,0.794523 -0.325782,0.818772 -0.03294,0.0306 -0.283735,0.02552 -0.820046,-0.01662 z m -5.036883,-4.127494 c -0.06446,-0.05245 -0.526771,-0.396949 -1.027363,-0.765549 -0.500592,-0.368599 -0.924965,-0.6834 -0.943052,-0.699557 -0.01809,-0.01616 0.07956,-0.313663 0.216999,-0.661124 0.137435,-0.347462 0.347941,-0.881481 0.467789,-1.186708 l 0.217907,-0.55496 0.750428,-0.538673 0.750429,-0.538673 0.254,0.02261 c 0.1397,0.01243 0.720725,0.04552 1.291167,0.07353 0.570442,0.028 1.051354,0.06314 1.068695,0.07808 0.01734,0.01494 0.193142,0.778791 0.390672,1.697441 0.197529,0.91865 0.368896,1.71096 0.380815,1.760691 0.01483,0.06189 -0.0016,0.09718 -0.052,0.111834 -0.06424,0.01867 -1.378914,0.485254 -3.110314,1.103859 l -0.538971,0.192567 z"
       id="path323" /></g></svg>
