<?xml version="1.0" encoding="UTF-8" standalone="no"?>
<!-- Created with Inkscape (http://www.inkscape.org/) -->

<svg
   width="51.95681mm"
   height="37.003136mm"
   viewBox="0 0 51.95681 37.003136"
   version="1.1"
   id="svg5"
   xml:space="preserve"
   inkscape:version="1.2.2 (732a01da63, 2022-12-09)"
   sodipodi:docname="Descarga.svg"
   xmlns:inkscape="http://www.inkscape.org/namespaces/inkscape"
   xmlns:sodipodi="http://sodipodi.sourceforge.net/DTD/sodipodi-0.dtd"
   xmlns="http://www.w3.org/2000/svg"
   xmlns:svg="http://www.w3.org/2000/svg"><sodipodi:namedview
     id="namedview7"
     pagecolor="#ffffff"
     bordercolor="#000000"
     borderopacity="0.25"
     inkscape:showpageshadow="2"
     inkscape:pageopacity="0.0"
     inkscape:pagecheckerboard="0"
     inkscape:deskcolor="#d1d1d1"
     inkscape:document-units="mm"
     showgrid="false"
     inkscape:zoom="2.3786088"
     inkscape:cx="77.986763"
     inkscape:cy="71.680555"
     inkscape:window-width="1920"
     inkscape:window-height="1111"
     inkscape:window-x="-9"
     inkscape:window-y="-9"
     inkscape:window-maximized="1"
     inkscape:current-layer="layer1" /><defs
     id="defs2" /><g
     inkscape:label="Capa 1"
     inkscape:groupmode="layer"
     id="layer1"
     transform="translate(-47.080676,-21.289408)"><path
       style="fill:#000000;stroke-width:0.264583"
       d="m 52.117875,58.067764 c -0.313272,-0.126373 -1.159532,-0.653603 -1.880577,-1.171623 -0.721045,-0.51802 -1.752895,-1.126492 -2.293,-1.352164 -1.080254,-0.451358 -1.13856,-1.005342 -0.118711,-1.127905 0.439541,-0.05282 1.38286,0.406792 2.880579,1.403511 2.606571,1.734651 2.71103,1.732997 5.256238,-0.08322 1.460109,-1.041914 1.93368,-1.241743 2.942765,-1.241743 1.009085,0 1.482656,0.199829 2.942764,1.241743 2.542868,1.814552 2.651676,1.816539 5.237607,0.09562 2.943942,-1.959168 3.55862,-1.935697 6.603982,0.252179 1.995858,1.433881 2.260563,1.419895 4.773102,-0.252179 2.865509,-1.906971 3.263331,-1.906971 6.12884,0 2.462233,1.638596 2.809562,1.671595 4.545687,0.431855 3.253682,-2.323401 3.938886,-2.394913 6.453285,-0.673489 0.986542,0.675415 2.192936,1.394831 2.680872,1.598705 1.081427,0.451848 0.973463,1.024639 -0.182702,0.96932 -0.530678,-0.0254 -1.586476,-0.541634 -2.840853,-1.389062 -1.097962,-0.74176 -2.203534,-1.348653 -2.456828,-1.348653 -0.253291,0 -1.138634,0.475014 -1.967431,1.055587 -3.274732,2.293958 -3.958228,2.330728 -6.717993,0.361399 -2.290165,-1.634228 -2.86675,-1.634228 -5.156915,0 -2.759765,1.969329 -3.443261,1.932559 -6.717993,-0.361399 -0.828796,-0.580573 -1.71414,-1.055587 -1.967431,-1.055587 -0.253293,0 -1.356967,0.605613 -2.452612,1.345803 -2.902124,1.96061 -3.469947,1.972752 -6.228402,0.133204 -1.219796,-0.813453 -2.427186,-1.479007 -2.683089,-1.479007 -0.255902,0 -1.043824,0.415298 -1.750938,0.922885 -2.64182,1.896377 -3.702342,2.259894 -5.030246,1.72422 z m 0.406796,-4.773655 C 52.144096,53.189681 51.028924,52.553871 50.046512,51.8812 49.0641,51.208526 48.043054,50.658158 47.77752,50.658158 c -0.636276,0 -0.899823,-0.461177 -0.52301,-0.915207 0.437429,-0.527071 1.487321,-0.150471 3.585337,1.286071 1.006229,0.688983 2.079433,1.216636 2.474534,1.216636 0.383729,0 1.29262,-0.430562 2.019759,-0.956802 3.125113,-2.261688 3.977985,-2.293602 6.833822,-0.25572 1.027786,0.733412 1.986283,1.212522 2.425748,1.212522 0.439466,0 1.397963,-0.47911 2.425749,-1.212522 2.858962,-2.040115 3.591154,-2.02438 6.616712,0.142174 1.841844,1.318916 2.556854,1.34398 4.223962,0.148074 1.942023,-1.393119 2.733328,-1.776476 3.666911,-1.776476 0.933582,0 1.724887,0.383357 3.66691,1.776476 0.707115,0.507251 1.600084,0.921443 1.984375,0.920424 0.400765,-0.0011 1.525456,-0.565184 2.637489,-1.322916 2.704171,-1.842604 3.310519,-1.840373 6.089644,0.02241 1.068653,0.716293 2.086637,1.302351 2.262188,1.302351 0.558107,0 0.971367,0.586536 0.66952,0.95024 -0.40626,0.489511 -1.511649,0.07888 -3.556262,-1.321104 -1.010832,-0.692134 -2.077262,-1.21584 -2.47369,-1.214787 -0.398513,0.0011 -1.526857,0.567415 -2.635615,1.322917 -2.709026,1.84591 -3.342344,1.844095 -6.044811,-0.01733 -1.104715,-0.760907 -2.191438,-1.30743 -2.599748,-1.30743 -0.408311,0 -1.495034,0.546523 -2.599749,1.307436 -2.702467,1.861425 -3.335784,1.863241 -6.044811,0.01733 -1.112033,-0.757732 -2.236724,-1.321858 -2.637488,-1.322917 -0.384291,-0.0011 -1.277261,0.413174 -1.984375,0.920425 -3.201035,2.296279 -3.879816,2.336652 -6.735815,0.400642 -1.073361,-0.727604 -2.249126,-1.322916 -2.612812,-1.322916 -0.363685,0 -1.438887,0.536173 -2.389338,1.191495 -1.950168,1.344615 -2.991163,1.720721 -3.997985,1.444456 z m -0.470992,-5.039678 c -0.34858,-0.139432 -1.198929,-0.668371 -1.889665,-1.175419 -0.690736,-0.507045 -1.693697,-1.104834 -2.228804,-1.328415 -1.153352,-0.481901 -1.097378,-1.062299 0.09694,-1.005154 0.530677,0.0254 1.586475,0.541633 2.840852,1.389062 1.097964,0.74176 2.183086,1.348653 2.411382,1.348653 0.468267,0 2.765416,-1.413095 3.25383,-2.001597 0.260675,-0.314095 -0.257102,-1.392214 -2.810249,-5.851525 -1.72139,-3.006569 -3.1782,-5.796262 -3.237356,-6.199318 -0.07778,-0.529927 0.08326,-0.923645 0.581627,-1.422012 0.379052,-0.379052 0.689185,-0.731467 0.689185,-0.783146 0,-0.05168 -0.7278,-1.362373 -1.617334,-2.912655 -0.889534,-1.550281 -1.574143,-2.855785 -1.521355,-2.90112 0.375497,-0.322481 2.410873,-1.497862 2.475424,-1.429497 0.04427,0.04688 0.771421,1.27587 1.615891,2.731078 0.844471,1.455208 1.650266,2.724645 1.790656,2.820971 0.14039,0.09633 0.533084,0.06951 0.872653,-0.0596 0.364897,-0.138734 0.880204,-0.134816 1.259995,0.0096 0.6259,0.237967 2.007492,1.976879 1.998989,2.515986 -0.0023,0.148121 -0.954837,0.795803 -2.116667,1.439295 -1.16183,0.643492 -2.112419,1.284096 -2.112419,1.423566 0,0.466799 4.820488,8.6901 5.173543,8.82558 0.191579,0.07352 1.219264,-0.36944 2.283745,-0.98435 1.064481,-0.614908 2.015292,-1.161662 2.112912,-1.215007 0.237244,-0.12964 1.806883,2.634372 1.806883,3.181781 0,0.243229 -0.574493,0.747742 -1.319104,1.158418 -0.725508,0.40014 -1.32082,0.819771 -1.322917,0.932513 -0.0065,0.351391 1.360868,0.743355 1.949364,0.558784 0.308201,-0.09666 1.299127,-0.701619 2.202058,-1.34435 2.629857,-1.872004 3.350522,-1.822728 6.596425,0.451035 0.828796,0.580572 1.71414,1.055587 1.967431,1.055587 0.253293,0 1.356968,-0.605613 2.452613,-1.345803 2.902122,-1.96061 3.469947,-1.972752 6.2284,-0.133205 1.219798,0.813454 2.427187,1.479008 2.68309,1.479008 0.255902,0 1.043823,-0.415298 1.750938,-0.922885 3.330972,-2.391072 4.173389,-2.457937 6.958409,-0.552321 0.954572,0.653153 2.072685,1.31254 2.484694,1.4653 0.880846,0.326588 0.812414,0.902367 -0.12057,1.014492 -0.439542,0.05282 -1.382861,-0.406792 -2.880577,-1.403512 -2.606572,-1.73465 -2.711029,-1.732997 -5.256239,0.08322 -2.409836,1.719625 -3.468603,1.723543 -5.859179,0.0217 -0.942587,-0.671028 -1.975734,-1.302242 -2.295883,-1.402697 -0.671179,-0.210595 -1.773735,0.295283 -3.482432,1.597822 -1.210498,0.922761 -2.535494,1.323464 -3.433654,1.038399 -0.293,-0.09299 -1.403191,-0.759145 -2.467094,-1.480338 -1.063903,-0.721199 -2.128465,-1.311265 -2.365695,-1.311265 -0.237231,0 -1.415328,0.654844 -2.617994,1.455209 -1.522897,1.013476 -2.44652,1.455208 -3.042709,1.455208 -0.596188,0 -1.519812,-0.441732 -3.042708,-1.455208 -1.202666,-0.800365 -2.39604,-1.455209 -2.651943,-1.455209 -0.255902,0 -1.043824,0.415298 -1.750938,0.922886 -2.676588,1.921335 -3.693622,2.260809 -5.094442,1.700471 z m 5.8109,-9.536821 c -1.585226,-2.790881 -1.893103,-3.507123 -1.5875,-3.693142 0.208522,-0.126926 0.993077,-0.593733 1.743456,-1.03735 l 1.364325,-0.806575 2.011768,3.46811 c 1.106473,1.907461 1.948527,3.570436 1.87123,3.695504 -0.178389,0.288642 -2.893821,1.849268 -3.204271,1.841577 -0.127807,-0.0032 -1.117361,-1.563823 -2.199008,-3.468124 z m 15.32809,-2.431222 c 0,-6.206951 0.253899,-7.518739 1.78282,-9.211073 1.780868,-1.971206 2.520014,-2.197112 7.524724,-2.299786 4.362,-0.08949 4.411094,-0.08419 4.268621,0.460633 -0.136684,0.522674 -0.321104,0.551162 -3.567986,0.551162 -4.451723,0 -5.556755,0.285877 -7.110362,1.839485 -1.653556,1.653557 -1.839484,2.549189 -1.839484,8.861012 0,4.998114 -0.01804,5.174503 -0.529167,5.174503 -0.511804,0 -0.529166,-0.176389 -0.529166,-5.375936 z m 2.75478,5.013637 c -0.08472,-0.220773 -0.113048,-2.402464 -0.06296,-4.848198 0.101984,-4.979277 0.406844,-6.022728 2.13438,-7.305343 1.358149,-1.008364 2.43975,-1.242493 5.739916,-1.242493 2.902432,0 3.078822,0.03032 3.078822,0.529167 0,0.498249 -0.178327,0.529506 -3.05216,0.534977 -3.527181,0.0067 -4.814173,0.420205 -5.856457,1.881587 -0.601548,0.843429 -0.642307,1.150477 -0.767574,5.782365 -0.118735,4.390382 -0.179822,4.900742 -0.596112,4.980491 -0.255103,0.04887 -0.533138,-0.09178 -0.617858,-0.312553 z m 2.541239,-3.408013 c 0.0039,-3.407459 0.06133,-3.872166 0.596402,-4.828646 0.914922,-1.635494 2.374752,-2.248958 5.351735,-2.248958 2.224395,0 2.400785,0.03888 2.400785,0.529166 0,0.487913 -0.17639,0.529167 -2.262537,0.529167 -2.670437,0 -3.858924,0.487603 -4.568973,1.874522 -0.371605,0.72585 -0.462691,1.593237 -0.463021,4.409332 -2.65e-4,3.329205 -0.02706,3.505729 -0.529577,3.505729 -0.504613,0 -0.528966,-0.174937 -0.524814,-3.770312 z M 66.842669,37.495137 c 0,-0.95754 0.03234,-0.992188 0.926041,-0.992188 0.893704,0 0.926042,0.03465 0.926042,0.992188 0,0.95754 -0.03234,0.992187 -0.926042,0.992187 -0.893703,0 -0.926041,-0.03465 -0.926041,-0.992187 z M 66.73754,33.144384 c -0.159555,-1.280099 -0.688621,-9.75364 -0.688621,-11.028991 v -0.825985 h 1.719791 1.719792 l -0.02107,1.653646 c -0.01159,0.909505 -0.160415,3.79677 -0.330729,6.416145 l -0.309663,4.7625 -0.973746,0.08102 c -0.9652,0.08031 -0.974992,0.07102 -1.115758,-1.058334 z m 21.271795,-4.314351 v -5.423959 h 1.719792 1.719792 v 5.423959 5.423958 h -1.719792 -1.719792 z m 4.674307,2.601736 c -0.09701,-0.09701 -0.17639,-1.287639 -0.17639,-2.645833 v -2.469445 h 2.645833 2.645834 v 2.645833 2.645834 h -2.469444 c -1.358196,0 -2.548821,-0.07938 -2.645833,-0.176389 z"
       id="path342" /></g></svg>
