<?xml version="1.0" encoding="UTF-8" standalone="no"?>
<!-- Created with Inkscape (http://www.inkscape.org/) -->

<svg
   width="45.150898mm"
   height="45.097092mm"
   viewBox="0 0 45.150898 45.097092"
   version="1.1"
   id="svg5"
   xml:space="preserve"
   inkscape:version="1.2.2 (732a01da63, 2022-12-09)"
   sodipodi:docname="Entrada Ilegal.svg"
   xmlns:inkscape="http://www.inkscape.org/namespaces/inkscape"
   xmlns:sodipodi="http://sodipodi.sourceforge.net/DTD/sodipodi-0.dtd"
   xmlns="http://www.w3.org/2000/svg"
   xmlns:svg="http://www.w3.org/2000/svg"><sodipodi:namedview
     id="namedview7"
     pagecolor="#ffffff"
     bordercolor="#000000"
     borderopacity="0.25"
     inkscape:showpageshadow="2"
     inkscape:pageopacity="0.0"
     inkscape:pagecheckerboard="0"
     inkscape:deskcolor="#d1d1d1"
     inkscape:document-units="mm"
     showgrid="false"
     inkscape:zoom="2.3786088"
     inkscape:cx="64.113107"
     inkscape:cy="107.83614"
     inkscape:window-width="1920"
     inkscape:window-height="1111"
     inkscape:window-x="-9"
     inkscape:window-y="-9"
     inkscape:window-maximized="1"
     inkscape:current-layer="layer1" /><defs
     id="defs2" /><g
     inkscape:label="Capa 1"
     inkscape:groupmode="layer"
     id="layer1"
     transform="translate(-50.799199,-11.724115)"><path
       style="fill:#000000;stroke-width:0.264583"
       d="m 67.442062,56.270824 c -4.352848,-1.121596 -9.276,-4.223864 -11.863552,-7.475683 -1.62261,-2.039162 -3.2637,-5.254998 -4.026315,-7.889859 -0.814638,-2.814603 -1.005397,-8.185465 -0.389113,-10.955544 1.455539,-6.54237 5.254625,-11.790556 11.038682,-15.249208 5.610971,-3.355155 14.011974,-3.94408 20.082196,-1.407799 2.527284,1.055958 5.752925,3.308693 7.71343,5.38693 4.408979,4.673752 6.590273,11.377564 5.789591,17.793273 -0.399396,3.2003 -0.850746,4.766535 -2.176441,7.552502 -2.855087,6.000012 -8.480936,10.541222 -15.182158,12.255106 -2.834092,0.724839 -8.153804,0.720132 -10.98632,-0.0097 z m 10.113926,-2.004727 c 1.036206,-0.23568 2.667053,-0.776258 3.624103,-1.201285 1.959846,-0.870363 4.968884,-2.811079 5.169628,-3.33421 0.114742,-0.299011 -27.787866,-28.35433 -28.431625,-28.587232 -0.317996,-0.115047 -2.30123,2.875454 -3.093961,4.665356 -1.120473,2.529911 -1.669572,5.174167 -1.669572,8.040037 0,3.476841 0.562154,5.876279 2.125415,9.071884 2.95834,6.047417 8.833539,10.41077 15.601669,11.586946 1.582053,0.274931 4.937594,0.153519 6.674343,-0.241496 z m -7.203509,-3.793064 c -0.654844,-0.12409 -1.518047,-0.353145 -1.91823,-0.509013 l -0.727604,-0.283401 v -7.528274 c 0,-6.491107 -0.05728,-7.585556 -0.415774,-7.944048 -0.563985,-0.563986 -0.820974,-0.525997 -1.580628,0.233659 l -0.649431,0.64943 v 6.49432 c 0,3.571874 -0.06736,6.494316 -0.149686,6.494316 -0.278289,0 -1.269101,-0.597868 -1.780705,-1.074499 -0.473493,-0.441127 -0.505638,-0.860272 -0.466712,-6.085604 0.03663,-4.916456 0.103395,-5.732574 0.538835,-6.586109 0.654112,-1.282163 2.542797,-2.978036 3.198953,-2.872375 0.280515,0.04517 3.252404,2.819522 6.604197,6.165226 l 6.094172,6.083096 -0.07422,2.912737 -0.07421,2.912737 -1.40889,0.467312 c -1.641496,0.544467 -5.475658,0.795359 -7.190067,0.47049 z m 11.377083,-3.350749 c 0,-0.959599 0.0091,-0.96814 0.529167,-0.49747 0.291042,0.26339 0.529167,0.57531 0.529167,0.693155 0,0.117848 -0.238125,0.34171 -0.529167,0.49747 -0.48473,0.259419 -0.529167,0.201213 -0.529167,-0.693155 z m 7.530997,-0.261057 c 1.695649,-1.695646 3.291716,-5.041921 3.99146,-8.368389 1.592313,-7.569589 -1.978303,-16.102055 -8.744332,-20.895749 -5.726903,-4.057481 -13.336548,-4.820523 -19.577906,-1.963135 -1.471553,0.673699 -5.019346,3.032465 -4.847839,3.223108 1.099678,1.222378 28.439604,28.42921 28.568284,28.42921 0.10191,0 0.376558,-0.19127 0.610333,-0.425045 z m -6.544646,-6.921526 c -0.86981,-0.890765 -0.986467,-1.165103 -0.98734,-2.321875 -0.0011,-1.506302 -0.596331,-2.667251 -1.810806,-3.532034 l -0.805831,-0.573802 -0.08025,1.328481 -0.08025,1.328481 -3.564625,-3.547716 c -1.960544,-1.951244 -3.598749,-3.650088 -3.640458,-3.775209 -0.12813,-0.384396 3.778951,-0.168074 4.461216,0.247002 0.344961,0.209865 1.378268,0.668496 2.296237,1.01918 1.819548,0.695104 3.787789,2.062265 4.657424,3.235099 0.461375,0.622234 0.574566,1.247701 0.684998,3.78509 0.171006,3.929202 0.110916,4.078441 -1.130315,2.807303 z M 71.758453,26.790592 c -1.209534,-0.526058 -2.146101,-2.097638 -2.213136,-3.713694 -0.107853,-2.600078 -0.02958,-2.911518 0.98725,-3.928352 3.18061,-3.180609 7.878321,-0.583315 6.720698,3.715771 -0.458854,1.70405 -1.753389,3.414276 -2.945424,3.891234 -1.264044,0.50577 -1.460847,0.508475 -2.549388,0.03504 z"
       id="path361" /></g></svg>
