<?xml version="1.0" encoding="UTF-8" standalone="no"?>
<!-- Created with Inkscape (http://www.inkscape.org/) -->

<svg
   width="30.43977mm"
   height="45.347443mm"
   viewBox="0 0 30.43977 45.347443"
   version="1.1"
   id="svg5"
   xml:space="preserve"
   inkscape:version="1.2.2 (732a01da63, 2022-12-09)"
   sodipodi:docname="Fuego.svg"
   xmlns:inkscape="http://www.inkscape.org/namespaces/inkscape"
   xmlns:sodipodi="http://sodipodi.sourceforge.net/DTD/sodipodi-0.dtd"
   xmlns="http://www.w3.org/2000/svg"
   xmlns:svg="http://www.w3.org/2000/svg"><sodipodi:namedview
     id="namedview7"
     pagecolor="#ffffff"
     bordercolor="#000000"
     borderopacity="0.25"
     inkscape:showpageshadow="2"
     inkscape:pageopacity="0.0"
     inkscape:pagecheckerboard="0"
     inkscape:deskcolor="#d1d1d1"
     inkscape:document-units="mm"
     showgrid="false"
     inkscape:zoom="2.3786088"
     inkscape:cx="59.068141"
     inkscape:cy="128.85683"
     inkscape:window-width="1920"
     inkscape:window-height="1111"
     inkscape:window-x="-9"
     inkscape:window-y="-9"
     inkscape:window-maximized="1"
     inkscape:current-layer="layer1" /><defs
     id="defs2" /><g
     inkscape:label="Capa 1"
     inkscape:groupmode="layer"
     id="layer1"
     transform="translate(-52.113217,-6.2162166)"><path
       style="fill:#000000;stroke-width:0.0846667"
       d="m 69.645039,51.50869 c -0.523781,-0.131547 -0.556964,-0.189895 -0.556964,-0.979363 0,-0.441018 -0.03378,-0.7093 -0.08931,-0.7093 -0.04912,0 -0.313732,0.1524 -0.588021,0.338667 -0.27429,0.186266 -0.536305,0.338666 -0.582256,0.338666 -0.136447,0 -0.445091,-0.491243 -0.575701,-0.916298 -0.08793,-0.286148 -0.166342,-1.59414 -0.282609,-4.714035 -0.0885,-2.3749 -0.178693,-4.466365 -0.200422,-4.647702 -0.04237,-0.353644 -0.154376,-0.471276 -0.450676,-0.473335 -0.2335,-0.0016 -0.198333,-0.212244 -0.621797,3.724037 -0.406942,3.782691 -0.462042,4.158085 -0.670225,4.566157 -0.192193,0.37673 -0.715684,0.865392 -1.181834,1.103204 -0.29918,0.15263 -1.244928,0.421941 -1.493852,0.425388 -0.0497,6.77e-4 -0.154506,-0.198774 -0.232895,-0.443249 -0.232796,-0.72604 -0.243608,-0.731895 -0.697941,-0.377927 -0.397167,0.30943 -0.399484,0.310015 -0.650548,0.164315 -0.33869,-0.196552 -0.698668,-0.640323 -0.97711,-1.204554 -0.188137,-0.381241 -0.229801,-0.580794 -0.229801,-1.100667 0,-0.631036 0.005,-0.645042 0.795562,-2.243667 0.437558,-0.884766 0.883235,-1.7816 0.990392,-1.992963 0.107156,-0.211364 0.231808,-0.548878 0.277004,-0.750032 l 0.08217,-0.365733 -0.2259,0.208408 c -0.124245,0.114625 -1.31175,1.156113 -2.6389,2.31442 -1.32715,1.158306 -2.469532,2.160697 -2.538626,2.227535 -0.209562,0.202718 -0.964019,0.513251 -1.477656,0.608202 -0.911099,0.168426 -1.697074,-0.131555 -2.154642,-0.822357 -0.40027,-0.604296 -0.558322,-1.163252 -0.559253,-1.977813 -7.03e-4,-0.61538 0.03305,-0.788635 0.232909,-1.195608 0.249941,-0.508949 0.619375,-0.826001 1.205602,-1.034659 0.186266,-0.0663 0.5553,-0.220261 0.820074,-0.342138 0.264775,-0.121877 0.50368,-0.221595 0.5309,-0.221595 0.02722,0 0.591636,-0.243759 1.254258,-0.541685 0.662622,-0.297928 1.287052,-0.566104 1.387621,-0.595946 0.398073,-0.118123 0.386467,-0.260881 -0.04388,-0.539737 -1.818918,-1.178619 -2.737987,-4.310408 -2.257252,-7.691738 0.127595,-0.897462 0.296141,-1.667588 0.352603,-1.611127 0.01811,0.01811 -0.006,0.476765 -0.05355,1.019243 -0.179893,2.052071 0.185876,4.114892 0.982086,5.538648 0.393308,0.7033 1.340067,1.699085 2.029281,2.134364 0.583654,0.36861 0.678163,0.391399 1.005207,0.242388 0.271797,-0.123839 0.270791,-0.182286 -0.0057,-0.330252 -0.370666,-0.198374 -0.920036,-0.879877 -1.236461,-1.533848 -0.890482,-1.840407 -0.927819,-3.611124 -0.149644,-7.096976 0.420972,-1.885751 0.408289,-2.660598 -0.05659,-3.45729 -0.199469,-0.341842 -0.202186,-0.360568 -0.0397,-0.273609 0.205346,0.109897 0.543186,0.661224 0.730486,1.192089 0.07309,0.207153 0.189055,0.936731 0.257705,1.621286 0.138998,1.38604 0.357535,2.220259 0.68294,2.606981 0.404613,0.480856 0.585465,0.346961 0.795276,-0.58879 0.05743,-0.256117 0.25878,-0.801276 0.447454,-1.211464 l 0.343043,-0.745795 -0.101181,-0.759951 c -0.142916,-1.073441 -0.565976,-2.646613 -1.409538,-5.241457 -0.835058,-2.568682 -1.122257,-3.670824 -1.191384,-4.572 -0.063,-0.821291 0.124714,-1.867612 0.465837,-2.596576 0.296024,-0.632586 0.922667,-1.605497 1.189795,-1.847244 l 0.179184,-0.16216 -0.178269,0.415886 c -0.303981,0.709156 -0.509655,1.575294 -0.563719,2.373923 -0.0974,1.438798 0.233989,2.518418 1.23876,4.035716 0.571168,0.862517 1.76245,2.314241 1.837487,2.239204 0.02142,-0.02142 -0.0784,-0.271402 -0.221816,-0.555515 -0.143419,-0.284111 -0.227478,-0.516567 -0.186797,-0.516567 0.04068,0 0.25012,0.155057 0.465419,0.34457 0.215298,0.189514 0.429712,0.320925 0.476474,0.292024 0.276366,-0.170803 0.509381,-1.877713 0.508773,-3.726927 -5.93e-4,-1.713445 -0.165522,-2.497232 -0.804251,-3.821337 -0.668611,-1.386053 -0.796577,-1.794604 -0.898099,-2.86733 -0.200529,-2.118884 0.318444,-4.2502281 1.29486,-5.3177922 l 0.324575,-0.3548735 -0.212281,0.381 c -0.711282,1.2765999 -0.750723,3.0886058 -0.110575,5.0799997 0.26075,0.811147 0.437192,1.120525 1.279262,2.243083 0.419416,0.559121 0.902122,1.304698 1.072681,1.656838 0.179952,0.371537 0.353207,0.625888 0.4128,0.606023 0.05648,-0.01883 0.180534,-0.186809 0.275672,-0.373293 0.09514,-0.186483 0.192455,-0.319582 0.216262,-0.295774 0.02381,0.02381 0.0024,0.119774 -0.04768,0.213259 -0.05003,0.09348 -0.144789,0.400692 -0.210574,0.682681 -0.107886,0.46247 -0.104696,0.570674 0.03256,1.104265 0.08369,0.325356 0.200837,0.918724 0.260328,1.318596 0.100724,0.677015 0.115001,0.710719 0.207507,0.489847 0.05464,-0.130456 0.126068,-0.446742 0.158733,-0.702859 0.163273,-1.280145 0.702427,-2.61728 1.775226,-4.402667 0.820233,-1.365056 0.970764,-1.762455 1.043525,-2.754869 0.08652,-1.180088 -0.25758,-2.4441649 -0.996375,-3.6602456 -0.184325,-0.3034062 -0.323542,-0.5632431 -0.30937,-0.5774154 0.04076,-0.04076 0.61565,0.5225222 0.936538,0.917629 0.397426,0.4893471 0.849836,1.4214501 1.037662,2.137902 0.109918,0.419271 0.156513,0.907326 0.159267,1.668178 l 0.0039,1.075511 0.19586,-0.228845 c 0.258082,-0.301547 0.749002,-1.334619 0.857146,-1.803745 0.201997,-0.876255 0.05081,-1.8528149 -0.372844,-2.4082496 -0.267611,-0.3508563 -0.222418,-0.3828575 0.08428,-0.059682 0.551798,0.5814337 0.861677,1.6591526 0.76076,2.6458336 -0.05946,0.581374 -0.239913,1.359302 -0.638287,2.751666 -0.471537,1.64808 -0.531471,2.116791 -0.424708,3.3214 0.119682,1.350369 0.526687,3.208506 0.681791,3.112647 0.04277,-0.02643 0.221759,-0.32286 0.397749,-0.658721 0.445914,-0.850989 1.352147,-1.767446 2.740592,-2.77151 1.786612,-1.292005 2.109986,-1.77514 2.109986,-3.152421 0,-1.019062 -0.450041,-2.225135 -1.290076,-3.457298 -0.552407,-0.8102709 -0.550612,-0.8519739 0.01061,-0.24643 1.840378,1.985718 2.449268,4.895399 1.535503,7.337653 -0.458587,1.225684 -0.910611,1.869862 -2.336927,3.330347 -1.096852,1.123127 -1.898444,2.119486 -1.898444,2.359716 0,0.05253 0.341202,0.45367 0.758226,0.891422 0.779046,0.817769 1.295421,1.54218 1.786462,2.506195 l 0.280324,0.550333 0.07023,-0.381 c 0.213136,-1.15628 0.287851,-1.406163 0.552004,-1.846174 0.311236,-0.518439 0.612597,-0.868975 0.964875,-1.12232 l 0.221119,-0.159021 -0.105966,0.455851 c -0.267248,1.149663 -0.221583,2.561205 0.124543,3.849657 0.0824,0.306721 0.269644,1.008114 0.416106,1.558652 0.831869,3.126908 0.380696,6.169838 -1.150025,7.756341 -0.244098,0.252992 -0.425748,0.478051 -0.403666,0.500132 0.02208,0.02208 0.202436,0.06753 0.40079,0.100997 0.198356,0.03347 0.525283,0.08994 0.726505,0.125484 l 0.36586,0.06464 0.524255,-0.540952 c 0.605453,-0.624733 1.108463,-1.551613 1.258478,-2.31895 0.131043,-0.670299 0.126249,-2.955856 -0.008,-3.81 -0.204468,-1.300972 -0.19764,-1.418416 0.04184,-0.719666 0.408143,1.190874 0.721196,2.906138 0.733996,4.021665 0.01623,1.414671 -0.216546,2.166019 -0.943679,3.04595 -0.189184,0.228939 -0.327414,0.432809 -0.307178,0.453045 0.03334,0.03334 0.411493,0.09856 2.068288,0.356718 0.299051,0.0466 0.600228,0.131575 0.669283,0.188838 0.392311,0.325324 0.481305,1.468769 0.162823,2.092052 -0.361139,0.706764 -0.385977,0.712865 -2.273093,0.558322 -0.903507,-0.07399 -1.81419,-0.156244 -2.02374,-0.182783 -0.367869,-0.04659 -0.375805,-0.04292 -0.230251,0.106469 0.08291,0.0851 0.339569,0.269022 0.57035,0.408722 1.980342,1.198774 3.25476,2.051889 3.452759,2.311331 0.199973,0.26203 0.232385,0.391358 0.257187,1.026241 0.02288,0.585668 -0.007,0.820707 -0.154144,1.212978 -0.225633,0.601468 -0.844125,1.29732 -1.442626,1.623065 -0.545,0.296626 -1.333352,0.384825 -1.776118,0.198709 -0.241534,-0.101529 -3.534175,-2.901 -6.964195,-5.921102 -0.361187,-0.318022 -0.673415,-0.578222 -0.693841,-0.578222 -0.07455,0 1.929565,4.272382 2.224089,4.741333 0.408445,0.650338 0.541849,1.175376 0.505545,1.989667 -0.08265,1.853861 -1.218659,2.939153 -3.191131,3.048669 -0.35381,0.01965 -0.792707,-0.0018 -0.975327,-0.04767 z M 56.094163,29.218194 c -0.119504,-0.272154 0.03397,-1.449662 0.301294,-2.311716 0.623419,-2.010329 0.685627,-2.312319 0.63583,-3.086669 -0.02572,-0.399969 -0.119821,-0.961944 -0.209111,-1.248833 -0.188948,-0.60709 -0.107563,-0.674602 0.193642,-0.160636 0.440616,0.751854 0.598483,2.16939 0.34849,3.129179 -0.06844,0.262753 -0.294109,0.813683 -0.50149,1.224288 -0.407365,0.806565 -0.529999,1.204951 -0.633782,2.058888 -0.04727,0.388912 -0.08683,0.504918 -0.134873,0.395499 z M 79.56428,26.784473 c -0.535067,-1.386238 -0.522555,-3.370146 0.03198,-5.071383 0.09909,-0.304001 0.356563,-0.855386 0.572156,-1.225299 l 0.391987,-0.672572 0.05044,0.714905 c 0.02774,0.393197 0.120147,1.072972 0.205348,1.51061 0.196925,1.011508 0.13502,1.337815 -0.517251,2.726498 -0.424428,0.903605 -0.488943,1.110948 -0.533977,1.716123 l -0.05122,0.68834 z M 63.754075,6.4387297 c 0,-0.017582 0.06667,-0.084257 0.148167,-0.1481667 0.134286,-0.1053144 0.137281,-0.1023198 0.03197,0.031966 -0.110606,0.1410333 -0.180133,0.1858839 -0.180133,0.1162004 z"
       id="path380" /></g></svg>
