<?xml version="1.0" encoding="UTF-8" standalone="no"?>
<!-- Created with Inkscape (http://www.inkscape.org/) -->

<svg
   width="62.634636mm"
   height="47.580597mm"
   viewBox="0 0 62.634636 47.580597"
   version="1.1"
   id="svg5"
   xml:space="preserve"
   inkscape:version="1.2.2 (732a01da63, 2022-12-09)"
   sodipodi:docname="Ganado.svg"
   xmlns:inkscape="http://www.inkscape.org/namespaces/inkscape"
   xmlns:sodipodi="http://sodipodi.sourceforge.net/DTD/sodipodi-0.dtd"
   xmlns="http://www.w3.org/2000/svg"
   xmlns:svg="http://www.w3.org/2000/svg"><sodipodi:namedview
     id="namedview7"
     pagecolor="#ffffff"
     bordercolor="#000000"
     borderopacity="0.25"
     inkscape:showpageshadow="2"
     inkscape:pageopacity="0.0"
     inkscape:pagecheckerboard="0"
     inkscape:deskcolor="#d1d1d1"
     inkscape:document-units="mm"
     showgrid="false"
     inkscape:zoom="2.3786088"
     inkscape:cx="117.50566"
     inkscape:cy="130.11808"
     inkscape:window-width="1920"
     inkscape:window-height="1111"
     inkscape:window-x="-9"
     inkscape:window-y="-9"
     inkscape:window-maximized="1"
     inkscape:current-layer="layer1" /><defs
     id="defs2" /><g
     inkscape:label="Capa 1"
     inkscape:groupmode="layer"
     id="layer1"
     transform="translate(-36.685793,-5.907281)"><path
       style="fill:#000000;stroke-width:0.264583"
       d="M 58.473695,53.223132 C 47.801384,52.632878 37.60777,51.129302 38.465224,50.271848 c 0.186605,-0.186605 0.181615,-0.446762 -0.01586,-0.827027 -0.254937,-0.490905 -0.206127,-0.47934 0.423949,0.100455 0.618871,0.569483 0.687558,0.586798 0.524859,0.132291 -0.102959,-0.287618 -0.37746,-0.748625 -0.610003,-1.024461 -0.400471,-0.47503 -0.392443,-0.485601 0.151989,-0.20011 0.316137,0.165775 0.811425,0.602237 1.10064,0.969915 0.3448,0.438343 0.565206,0.552786 0.640169,0.332401 0.207066,-0.608761 -0.368042,-2.174652 -1.083482,-2.950083 l -0.702954,-0.761896 0.661458,0.331938 c 0.363802,0.182568 0.929349,0.57594 1.256771,0.874165 l 0.595312,0.542224 v -0.704742 c 0,-0.387607 -0.232792,-1.331095 -0.517316,-2.09664 l -0.517315,-1.391902 0.757851,0.887243 c 0.416818,0.487982 1.122688,1.559545 1.568599,2.38125 0.533207,0.98257 0.81316,1.304611 0.817797,0.940745 0.01213,-0.952053 -0.719975,-3.024045 -1.467765,-4.154032 l -0.717397,-1.084059 0.806352,0.646718 c 1.103609,0.885127 1.763779,2.149319 2.306607,4.417031 0.252545,1.055026 0.522271,1.918229 0.599391,1.918229 0.151142,0 -0.09586,-2.356469 -0.360526,-3.439583 l -0.161634,-0.661458 0.492352,0.661458 c 0.270794,0.363802 0.768101,1.435364 1.105126,2.38125 l 0.612774,1.719792 -0.152078,-1.316842 c -0.214167,-1.854449 -1.48207,-4.399042 -2.896895,-5.813867 -0.662017,-0.662017 -1.146684,-1.203666 -1.07704,-1.203666 0.311588,0 2.729809,1.276971 3.530564,1.86436 0.486749,0.35705 1.348153,1.293643 1.914233,2.081315 0.566079,0.787675 1.029235,1.366623 1.029235,1.286555 0,-0.428305 -2.742225,-6.542481 -3.338302,-7.443213 l -0.69912,-1.056442 0.752675,0.592053 c 0.979274,0.770298 2.716451,3.088807 2.918998,3.895815 0.08719,0.347401 0.249315,0.63164 0.360272,0.63164 0.225491,0 -0.105127,-2.018086 -0.563497,-3.439583 -0.528064,-1.637634 -2.777201,-5.909533 -3.89222,-7.392689 -0.595236,-0.79176 -1.038467,-1.483344 -0.984958,-1.536853 0.05351,-0.05351 0.509625,0.07499 1.013589,0.285565 1.862152,0.778054 3.681326,3.251795 4.586229,6.236419 0.436872,1.440932 1.014399,6.778456 0.775297,7.165329 -0.09154,0.148122 -0.06447,0.269312 0.06016,0.269312 0.200162,0 0.736549,-2.781721 1.300971,-6.746875 l 0.188311,-1.322917 0.327964,1.058334 c 0.416591,1.344334 0.448255,3.618777 0.08314,5.972008 -0.157021,1.012023 -0.241563,1.971828 -0.187871,2.132904 0.05369,0.161073 0.61283,-1.239449 1.242531,-3.112275 0.6297,-1.872824 1.206978,-3.464669 1.282841,-3.537429 0.158009,-0.151548 -0.09669,3.900482 -0.332624,5.291667 -0.14564,0.858779 -0.09938,0.820343 0.636801,-0.529167 1.009379,-1.8503 1.014968,-1.352873 0.02342,2.084686 -0.951315,3.298085 -0.982326,3.825328 -0.112297,1.909226 0.357131,-0.786527 0.694603,-1.38184 0.749937,-1.322917 0.05533,0.05892 0.0089,0.701503 -0.103181,1.427962 -0.112083,0.726458 -0.106773,1.559896 0.0118,1.852083 0.202921,0.500036 0.216574,0.495295 0.232359,-0.08072 0.02053,-0.748967 1.280382,-3.378206 1.832951,-3.825251 0.322845,-0.261191 0.361096,-0.257172 0.194135,0.0204 -0.197932,0.329039 -0.67407,3.226195 -0.530218,3.226195 0.03774,0 0.361322,-0.639366 0.719081,-1.420816 0.646723,-1.412629 2.249383,-3.419633 3.08989,-3.869459 0.365461,-0.195591 0.339635,-0.02532 -0.152604,1.006065 -0.325885,0.682826 -0.676376,1.717751 -0.77887,2.299835 l -0.186351,1.058333 1.060833,-1.618409 c 1.00643,-1.535411 1.825625,-2.310675 3.631465,-3.436723 0.665673,-0.415083 0.587523,-0.262869 -0.484339,0.943353 -1.254281,1.411513 -2.0263,2.674041 -2.428303,3.971137 -0.152088,0.490728 0.132932,0.293381 1.146384,-0.79375 l 1.348796,-1.446858 -0.254289,0.924295 c -0.139861,0.508363 -0.246748,1.401332 -0.237527,1.984375 0.01646,1.040913 0.02738,1.028356 0.603845,-0.69465 0.878465,-2.625627 2.190936,-4.34023 4.509543,-5.891234 1.571945,-1.051536 1.590503,-0.828995 0.05861,0.702898 -1.443866,1.443863 -2.280838,3.211909 -2.275763,4.807386 0.0024,0.765244 0.03926,0.735418 0.629832,-0.510153 0.559877,-1.180828 1.702263,-2.468632 3.181213,-3.586152 0.474244,-0.358347 0.486732,-0.345797 0.197014,0.197979 -0.170127,0.319318 -0.430009,0.655164 -0.577514,0.746329 -0.376076,0.232426 -1.581047,2.665439 -1.581047,3.192365 0,0.239702 0.488082,-0.295087 1.084625,-1.188419 1.141328,-1.70915 2.063477,-2.531782 3.810167,-3.398975 1.98661,-0.986308 2.383742,-0.917479 0.79375,0.13757 -1.568421,1.040734 -3.080907,2.48797 -3.929248,3.759737 -0.676934,1.014805 -0.517798,1.181159 0.395092,0.413012 1.049612,-0.883192 2.991948,-1.868188 4.195614,-2.127678 l 0.926041,-0.199639 -1.355074,1.072367 c -0.863809,0.683593 -1.607198,1.578316 -2.05052,2.467949 -0.978924,1.964443 -0.863931,2.346687 0.262159,0.871429 0.905576,-1.186368 1.892292,-2.140405 3.1086,-3.005649 0.439061,-0.312332 0.412242,-0.214481 -0.145034,0.529167 -0.376036,0.501796 -0.893296,1.329076 -1.149471,1.838399 l -0.465767,0.926042 1.294428,-1.194586 c 3.086733,-2.848644 5.869684,-4.630677 8.457584,-5.415722 1.930386,-0.585586 2.005486,-0.480808 0.313401,0.437259 -2.438111,1.322832 -5.049223,4.066058 -5.889307,6.187291 l -0.413496,1.044091 0.599323,-0.79375 c 1.865892,-2.471208 3.840758,-4.120491 5.833695,-4.871931 1.037116,-0.391049 0.909267,-0.229693 -0.585401,0.738819 -1.280832,0.829951 -3.444372,3.085243 -3.447785,3.594 -0.0011,0.140049 0.563837,-0.288086 1.255061,-0.951413 1.474579,-1.415071 2.612263,-2.224749 3.669609,-2.611622 0.756532,-0.27681 0.755539,-0.273574 -0.134493,0.438226 -0.936368,0.748864 -2.939803,3.62662 -2.939803,4.222774 0,0.189484 0.5482,-0.241554 1.218226,-0.957863 0.670023,-0.716309 1.302218,-1.276755 1.404877,-1.245436 0.102655,0.03132 0.781904,-0.552754 1.509434,-1.297943 1.105546,-1.132377 3.808338,-2.999388 4.35492,-3.008254 0.0842,-0.0013 -0.359394,0.532371 -0.985755,1.186077 -1.101606,1.149699 -2.210036,2.956811 -2.210036,3.603098 0,0.173152 0.338421,-0.149526 0.752046,-0.717063 1.140154,-1.564404 3.092498,-3.246408 4.437282,-3.822851 1.656771,-0.710173 1.736638,-0.648096 0.32112,0.249598 -1.194017,0.757221 -2.229959,1.918845 -2.856296,3.202826 -0.229367,0.470196 -0.02858,0.344927 0.694404,-0.433234 0.931632,-1.002731 2.479762,-2.212599 2.831216,-2.212599 0.07973,0 -0.159252,0.327421 -0.531071,0.727604 -0.724615,0.779891 -1.679951,2.489152 -1.679951,3.005719 0,0.173152 0.339466,-0.153794 0.754367,-0.726551 1.382556,-1.908564 3.088806,-3.085314 4.943319,-3.409265 1.011883,-0.176757 0.992589,-0.154408 -0.542621,0.628526 -0.875493,0.44649 -2.006587,1.239814 -2.513542,1.762943 l -0.921731,0.951142 1.5875,-0.793702 c 0.873125,-0.436533 2.004218,-0.868524 2.513541,-0.959977 l 0.926042,-0.166275 -1.076246,0.552037 c -0.591936,0.30362 -1.484905,0.982126 -1.984375,1.507792 l -0.908129,0.955752 1.455208,-0.934734 c 0.800365,-0.514101 1.752865,-1.022852 2.116667,-1.130556 0.605326,-0.17921 0.587686,-0.133739 -0.207941,0.535876 -0.914546,0.769697 -1.83823,2.256169 -1.401969,2.256169 0.140671,0 0.334208,-0.126926 0.430085,-0.28206 0.251926,-0.407625 2.267971,-1.834607 2.591941,-1.834607 0.15091,0 -0.0456,0.333936 -0.43658,0.742082 -0.892952,0.932048 -0.918092,1.306584 -0.0495,0.737457 0.55136,-0.361262 0.66146,-0.369996 0.66146,-0.05248 0,0.20951 0.14883,0.434517 0.33073,0.500015 0.50197,0.180748 -2.269707,0.923073 -5.093226,1.364094 -9.714984,1.517435 -23.839318,2.088496 -35.586457,1.438796 z M 56.75633,42.872812 c 0.004,-3.162877 -0.957595,-7.684503 -2.153653,-10.126964 -0.840112,-1.715585 -1.158348,-2.82881 -1.663995,-5.820832 -0.686885,-4.064454 -0.971832,-4.993192 -1.804774,-5.882369 -0.642812,-0.68621 -1.178403,-0.739634 -1.905054,-0.190023 -0.721399,0.54564 -2.24127,0.481327 -3.256722,-0.137806 -0.740286,-0.451361 -0.859895,-0.672041 -0.859895,-1.586511 0,-1.082614 0.566649,-1.506502 0.88943,-0.665347 0.223433,0.582257 1.140319,0.483792 1.81951,-0.195399 0.538477,-0.538477 0.600543,-0.549338 0.683307,-0.119581 0.05007,0.25998 -0.05244,0.645566 -0.227796,0.856857 -0.352812,0.425113 -0.06236,0.505997 0.511697,0.142496 0.265251,-0.16796 0.32175,-0.528159 0.201146,-1.282372 -0.132905,-0.831143 -0.03238,-1.289751 0.484376,-2.209779 0.358648,-0.638535 0.896104,-1.645251 1.194349,-2.237148 0.298244,-0.591897 0.956086,-1.514907 1.461871,-2.051135 1.041805,-1.104509 1.149443,-1.5028972 0.406058,-1.5028972 -0.282454,0 -0.574868,-0.09921 -0.64981,-0.22047 -0.305468,-0.494258 -1.914595,0.0493 -2.878652,0.9724082 -0.917421,0.87845 -0.986277,1.044025 -0.840316,2.020687 0.19608,1.312017 -0.533314,3.146997 -1.632326,4.106541 -0.482663,0.421411 -0.594511,0.466564 -0.308202,0.12442 0.873608,-1.043978 1.217709,-2.239027 0.922069,-3.20231 -0.237241,-0.773002 -0.387366,-0.89086 -1.134762,-0.89086 -1.640487,0 -3.185067,-2.033139 -2.15872,-2.8415372 0.755229,-0.594853 1.799543,-0.606903 3.126469,-0.03607 0.993547,0.4274122 1.410201,0.4972952 1.633516,0.2739812 0.223314,-0.2233152 0.150551,-0.4586222 -0.285272,-0.9225352 -0.360494,-0.383728 -0.599038,-0.994845 -0.621494,-1.592186 -0.04848,-1.289611 0.241823,-1.517569 0.605188,-0.475218 0.395885,1.135634 1.179263,1.548149 1.826921,0.962027 0.267641,-0.242212 0.979798,-0.506535 1.582571,-0.587384 0.859832,-0.115327 1.260973,-0.02499 1.861906,0.419298 0.421275,0.311462 0.945181,0.566295 1.164234,0.566295 0.650542,0 1.025008,-0.980373 0.71459,-1.870837 -0.322817,-0.926035 0.0499,-1.036855 0.604332,-0.179684 0.777259,1.201674 0.789797,1.970253 0.0443,2.715748 -0.949917,0.9499172 -0.609657,1.2958162 0.645032,0.655721 2.755033,-1.405513 4.793919,0.3144752 2.655997,2.2405782 -0.316731,0.28535 -1.107071,0.583006 -1.756313,0.661459 l -1.180439,0.14264 1.088847,1.315055 c 1.283,1.549543 2.098467,3.059917 2.098467,3.886696 0,0.686397 0.41806,0.374558 0.588869,-0.439251 0.173594,-0.827056 0.730819,1.348301 0.732571,2.859886 7.94e-4,0.780555 0.103748,1.209177 0.26606,1.108864 0.392593,-0.242638 0.320515,-3.719598 -0.09786,-4.720916 -0.199345,-0.477101 -0.851744,-1.286277 -1.449773,-1.798169 l -1.087328,-0.930712 2.852625,0.453588 c 1.568942,0.249474 3.739388,0.710031 4.823211,1.023461 1.217663,0.352135 3.082602,0.624092 4.881004,0.711778 3.267575,0.15932 3.932272,0.378298 4.372197,1.440374 0.670735,1.619298 -0.243636,2.286902 -2.774463,2.025698 -2.248013,-0.232016 -5.169609,-1.998382 -5.169609,-3.125493 0,-0.361282 -0.397647,-0.51911 -1.918229,-0.761355 -1.055026,-0.168077 -2.067057,-0.353692 -2.248958,-0.412477 -0.181901,-0.05879 -0.330729,4.24e-4 -0.330729,0.131568 0,0.131148 0.234159,0.312769 0.520351,0.403603 1.04549,0.331826 2.834285,2.388625 3.301965,3.796683 0.25037,0.75379 0.67805,1.489785 0.950405,1.635543 0.289562,0.15497 1.259596,0.193972 2.336061,0.09393 1.594665,-0.148209 1.961743,-0.09639 2.744573,0.387425 0.855925,0.528991 1.523728,1.51696 1.523728,2.254253 0,0.184209 -0.357188,0.677132 -0.79375,1.095386 -1.300697,1.246147 -0.999112,2.039588 0.910944,2.396596 1.428774,0.267051 2.148586,1.066851 2.382396,2.647143 0.316222,2.137282 0.988782,2.556012 3.092889,1.925605 0.767456,-0.229936 1.189024,-0.231354 1.684343,-0.0057 0.893921,0.407297 0.830421,0.628618 -0.334201,1.164804 -0.544224,0.250558 -1.663951,0.938787 -2.488284,1.529395 -0.824333,0.590611 -2.312615,1.363422 -3.307292,1.71736 -1.287425,0.45811 -1.596959,0.646375 -1.07429,0.653418 1.145011,0.01543 3.526954,-0.923756 4.967393,-1.95861 0.720418,-0.517567 1.309852,-0.886989 1.309852,-0.820933 0,0.06606 -0.297657,0.558723 -0.661459,1.094816 -0.926557,1.365359 -0.857266,1.904389 0.307356,2.391 1.533149,0.640591 3.861763,-0.01127 4.720164,-1.321374 0.377351,-0.57591 0.33574,-0.735065 -0.671105,-2.566762 -1.362924,-2.479493 -1.601253,-2.731847 -3.112598,-3.295748 -2.358297,-0.879912 -2.821956,-1.959635 -1.339667,-3.119699 0.677854,-0.530501 0.798655,-0.775369 0.658333,-1.334456 -0.09452,-0.376604 -0.43834,-0.821781 -0.764045,-0.989283 -1.243624,-0.639578 -2.047396,-1.634787 -2.047396,-2.535043 0,-0.735253 0.172225,-0.981942 1.090041,-1.561333 1.022763,-0.645642 1.08077,-0.747912 0.939832,-1.656965 -0.08262,-0.532869 -0.225883,-1.221633 -0.318368,-1.530586 -0.137729,-0.460081 -0.01339,-0.615689 0.687149,-0.859896 1.166889,-0.406779 3.255314,-0.374984 4.309817,0.06561 1.2232,0.511086 2.678493,1.853647 3.199555,2.951705 0.242989,0.512056 0.464569,1.576558 0.492406,2.365558 0.06949,1.969768 0.484481,1.403936 0.648166,-0.883764 0.118557,-1.656963 0.05878,-1.981396 -0.559398,-3.03624 -1.250643,-2.13406 -2.968945,-2.605613 -8.10795,-2.22506 -2.094307,0.155087 -2.337022,0.136379 -1.455208,-0.112167 0.582083,-0.164065 2.665677,-0.308932 4.630208,-0.321926 3.173693,-0.02099 3.689855,0.03963 4.630208,0.543788 2.311487,1.239281 2.918688,2.605726 3.944019,8.875613 0.688295,4.208928 1.354474,6.484177 2.15873,7.372867 0.428869,0.473895 0.467972,0.469712 1.270908,-0.135967 0.455634,-0.343696 1.299681,-0.819478 1.875658,-1.057291 l 1.047229,-0.432387 -0.58421,0.621861 c -0.321314,0.342027 -0.584209,0.707676 -0.584209,0.812556 0,0.400109 1.064979,-0.402034 1.411279,-1.062974 0.24878,-0.4748 0.42529,-0.591597 0.56136,-0.371438 0.32908,0.532466 -0.10907,2.578862 -0.71788,3.352832 l -0.57048,0.725252 0.65005,-0.166897 0.65005,-0.166896 -0.65807,0.500928 c -1.887006,1.436404 -4.765892,0.635198 -4.765892,-1.32637 0,-0.315981 -0.29472,-0.924769 -0.654934,-1.352857 -0.81679,-0.9707 -1.324705,-2.646222 -2.032963,-6.706377 -0.30462,-1.74625 -0.635228,-3.265441 -0.734687,-3.375981 -0.285806,-0.317643 -0.898919,8.876517 -0.686753,10.298406 0.225481,1.511094 0.775457,2.916505 1.431208,3.657296 0.42744,0.482875 0.447395,0.805384 0.213045,3.443195 -0.142213,1.600729 -0.270827,2.926273 -0.285805,2.945654 -0.01498,0.01939 -0.402082,0.11548 -0.860227,0.21355 -0.827127,0.177059 -0.834252,0.169365 -1.012639,-1.09357 -0.09881,-0.699537 -0.350338,-1.629072 -0.558957,-2.065634 -0.329342,-0.689189 -0.361238,-0.706615 -0.242128,-0.132292 0.07545,0.363802 0.1919,1.375834 0.258779,2.248959 l 0.121597,1.5875 -0.259694,-1.430592 c -0.249169,-1.372613 -1.49502,-4.522533 -1.788745,-4.522533 -0.07781,0 -0.350067,0.188777 -0.60502,0.419504 -0.343233,0.310621 -0.424362,0.660972 -0.312576,1.349825 0.13048,0.804053 0.08441,0.917501 -0.339436,0.835877 -0.269722,-0.05194 -0.557874,-0.380251 -0.64034,-0.729572 -0.142038,-0.601687 -0.173995,-0.611066 -0.606911,-0.17815 -0.251339,0.251339 -0.456981,0.805662 -0.456981,1.231832 0,0.512368 -0.134443,0.77485 -0.396875,0.77485 -0.264583,0 -0.396875,-0.264583 -0.396875,-0.79375 0,-0.667255 -0.103928,-0.79375 -0.65215,-0.79375 -0.768305,0 -1.118055,0.554776 -1.355228,2.149676 -0.157786,1.061048 -0.669297,1.819074 -1.2275,1.819074 -0.122827,0 -0.09043,-0.248322 0.07201,-0.551828 0.408815,-0.763881 0.177215,-0.882592 -0.768152,-0.393724 -0.442859,0.229013 -0.856207,0.416386 -0.918554,0.416386 -0.06235,0 -1.13e-4,-0.530961 0.138295,-1.179912 0.167998,-0.787686 0.16001,-1.337392 -0.02402,-1.653646 -0.215892,-0.370991 -0.278304,-0.158134 -0.287776,0.981474 -0.0066,0.800365 -0.127514,1.633802 -0.268579,1.852084 -0.177012,0.273904 -0.260138,-0.299961 -0.268287,-1.852084 -0.01109,-2.113452 -0.05894,-2.300769 -0.794073,-3.108854 -0.709298,-0.779687 -0.924518,-0.860041 -2.307347,-0.861457 -1.739209,-0.0019 -6.23476,-0.636214 -7.772273,-1.096864 -0.567745,-0.170101 -1.107646,-0.233895 -1.199776,-0.141761 -0.09213,0.09213 -0.282917,1.391129 -0.423966,2.886662 -0.141052,1.495531 -0.366959,2.760303 -0.502018,2.810603 -0.135059,0.0503 -0.595913,0.386254 -1.02412,0.746566 -0.428207,0.360313 -0.88401,0.589939 -1.012896,0.510284 -0.397815,-0.245862 -0.553892,-1.977702 -0.255403,-2.83395 0.377854,-1.083913 -0.115535,-5.436737 -0.880313,-7.766417 -0.313889,-0.95617 -0.604941,-1.704261 -0.64678,-1.66242 -0.04184,0.04184 0.142071,1.383623 0.408694,2.981738 0.266621,1.598112 0.548931,3.7391 0.627357,4.757745 l 0.142591,1.852084 -0.392821,-1.719792 c -0.216051,-0.945885 -0.446117,-1.976665 -0.511257,-2.290622 -0.08716,-0.420071 -0.258485,-0.534207 -0.648708,-0.432163 -0.427191,0.111713 -0.53027,0.360395 -0.53027,1.27929 0,2.167879 -0.544266,5.267132 -0.984241,5.604629 -0.232792,0.178572 -0.761415,0.625975 -1.174717,0.99423 l -0.751464,0.669552 0.0024,-1.920272 z m 9.195437,-11.566818 c 0.135067,-0.892383 0.16325,-1.527756 0.06263,-1.411941 -0.199083,0.229155 -1.070088,4.12429 -1.039772,4.649864 0.03789,0.65691 0.73955,-1.668159 0.977138,-3.237923 z M 54.103801,27.085432 c -0.187754,-1.24986 -0.398981,-2.10446 -0.469394,-1.899111 -0.07041,0.205348 0.0256,1.395973 0.213348,2.645833 0.187755,1.24986 0.398982,2.10446 0.469394,1.899112 0.07041,-0.205349 -0.0256,-1.395974 -0.213348,-2.645834 z m -0.351276,-7.986557 c 1.003378,-0.620122 1.543575,-1.499933 1.817516,-2.960162 0.26381,-1.406229 -0.23066,-1.219441 -0.61939,0.233978 -0.308798,1.154562 -1.160745,2.237788 -2.308037,2.934605 -0.332635,0.202029 -0.387658,0.320756 -0.153274,0.33073 0.201105,0.0086 0.769538,-0.234061 1.263185,-0.539151 z M 45.646716,42.28186 c -0.624312,-0.752248 -3.191735,-1.740739 -5.293104,-2.037911 -2.236769,-0.31632 -2.759616,-0.78132 -1.441859,-1.282329 2.250529,-0.85565 5.246263,0.447563 6.857355,2.98311 0.49286,0.775666 0.416385,0.986317 -0.122392,0.33713 z m 0.269012,-4.570571 c -0.503966,-0.397013 -1.813653,-1.026256 -2.910417,-1.398315 -1.918495,-0.650817 -2.601274,-1.321673 -1.55102,-1.523934 1.383085,-0.266356 3.716095,1.080011 5.002881,2.887133 0.669526,0.940263 0.612254,0.943978 -0.541444,0.03512 z m 3.760571,-1.020432 c -0.695261,-2.173766 -0.739053,-2.749772 -0.209058,-2.749772 0.532661,0 0.993728,1.708301 0.890044,3.297711 l -0.08567,1.313333 z m -10.2041,0.75678 c -2.485695,-0.07403 -2.850898,-0.142396 -2.778125,-0.520092 0.111278,-0.577538 1.41801,-0.917151 2.729621,-0.709416 1.005811,0.1593 3.042708,1.029708 3.042708,1.300207 0,0.06981 -0.02976,0.101629 -0.06614,0.07072 -0.03638,-0.03091 -1.354007,-0.09455 -2.928059,-0.141422 z m 3.589517,-3.801576 c -0.906476,-0.580522 -1.115838,-1.027893 -0.481037,-1.027893 0.208372,0 0.633198,0.357188 0.944058,0.79375 0.66871,0.939117 0.651428,0.947857 -0.463021,0.234143 z M 39.689651,32.65599 c -1.154577,-0.450834 -1.883463,-0.892725 -1.937784,-1.174789 -0.124412,-0.646026 0.572544,-0.8191 1.44951,-0.359958 0.646455,0.338455 2.788226,2.320713 2.457033,2.274038 -0.06493,-0.0092 -0.950868,-0.341831 -1.968759,-0.739291 z m 8.396647,-0.827982 c -0.416048,-0.666199 -0.421661,-1.137165 -0.01192,-1.000585 0.337747,0.112583 0.817729,1.526162 0.518209,1.526162 -0.09793,0 -0.325759,-0.236509 -0.506285,-0.525577 z m -4.023412,-1.70706 c -1.517948,-0.654825 -1.918563,-1.09996 -1.228326,-1.364829 0.45239,-0.173599 1.901168,0.62622 2.666821,1.472257 0.619984,0.685074 0.352253,0.665079 -1.438495,-0.107428 z"
       id="path399" /></g></svg>
