<?xml version="1.0" encoding="UTF-8" standalone="no"?>
<!-- Created with Inkscape (http://www.inkscape.org/) -->

<svg
   version="1.1"
   id="svg582"
   width="1049.8434"
   height="1039.6276"
   viewBox="0 0 1049.8434 1039.6276"
   sodipodi:docname="Inundacion.svg"
   inkscape:version="1.2.2 (732a01da63, 2022-12-09)"
   xmlns:inkscape="http://www.inkscape.org/namespaces/inkscape"
   xmlns:sodipodi="http://sodipodi.sourceforge.net/DTD/sodipodi-0.dtd"
   xmlns="http://www.w3.org/2000/svg"
   xmlns:svg="http://www.w3.org/2000/svg">
  <defs
     id="defs586" />
  <sodipodi:namedview
     id="namedview584"
     pagecolor="#ffffff"
     bordercolor="#000000"
     borderopacity="0.25"
     inkscape:showpageshadow="2"
     inkscape:pageopacity="0.0"
     inkscape:pagecheckerboard="0"
     inkscape:deskcolor="#d1d1d1"
     showgrid="false"
     inkscape:zoom="0.19666667"
     inkscape:cx="373.72881"
     inkscape:cy="511.01695"
     inkscape:window-width="1920"
     inkscape:window-height="1111"
     inkscape:window-x="-9"
     inkscape:window-y="-9"
     inkscape:window-maximized="1"
     inkscape:current-layer="g588" />
  <g
     inkscape:groupmode="layer"
     inkscape:label="Image"
     id="g588"
     transform="translate(-70.07195,-90.365521)">
    <path
       style="fill:#000000"
       d="m 201.37726,1129.0579 c -19.5792,-2.0604 -36.595,-8.5351 -57.4895,-21.8755 -20.1808,-12.8847 -29.1505,-16.1576 -47.972497,-17.5042 -4.675,-0.3344 -9.625,-0.8392 -11,-1.1216 -8.3053,-1.7058 -15.6438,-12.3356 -14.7729,-21.3985 0.6899,-7.1808 5.0433,-13.7371 11.238,-16.925 4.4975,-2.3145 5.8948,-2.5234 15.3689,-2.2977 22.434997,0.5345 39.867197,6.052 62.869197,19.8987 29.6493,17.8482 34.8326,19.6234 57.2968,19.6234 21.3285,0 30.1317,-2.7769 51.524,-16.2528 28.4259,-17.9066 45.2612,-23.1994 73.976,-23.257 28.8603,-0.058 47.1023,5.5544 74.5,22.9201 21.7743,13.8015 30.514,16.5897 52,16.5897 21.3285,0 30.1317,-2.7769 51.524,-16.2528 13.4409,-8.4669 21.2415,-12.6602 28.9472,-15.5606 35.3674,-13.3122 78.9558,-9.6129 109.7173,9.3116 3.4713,2.1355 10.569,6.4983 15.7725,9.6952 20.2971,12.4695 41.1867,16.2474 63.9111,11.5585 10.7407,-2.2162 19.8278,-6.253 32.5439,-14.4569 27.2876,-17.6049 45.934,-23.5892 74.084,-23.7763 28.8926,-0.1921 47.9053,5.4423 73.5,21.7818 23.0579,14.7199 32.1483,17.6995 54,17.6995 21.486,0 30.22574,-2.7882 52.00004,-16.5897 25.5313,-16.1827 44.5613,-22.4917 69.1891,-22.9381 10.1328,-0.1837 10.7834,-0.067 15.4447,2.7789 5.8439,3.5675 10.3662,11.3956 10.3662,17.9439 0,5.8574 -4.3349,14.0485 -9.1057,17.2056 -3.2815,2.1716 -5.8887,2.7561 -17.4007,3.9007 -7.4475,0.7405 -15.4427,1.8541 -17.7672,2.4747 -6.9858,1.8651 -17.5637,7.187 -29.6989,14.9421 -22.25,14.219 -38.049,19.934 -61.17704,22.1297 -8.7786,0.8335 -14.9224,0.8335 -23.7011,0 -23.1279,-2.1957 -38.9269,-7.9107 -61.1769,-22.1297 -22.1016,-14.1242 -31.8746,-17.239 -53.9725,-17.2017 -21.1563,0.036 -28.9429,2.652 -53.2482,17.8919 -26.3746,16.5374 -43.2408,21.6314 -71.7518,21.6707 -28.9972,0.04 -45.8928,-5.212 -74.5,-23.1587 -21.3627,-13.4017 -30.4809,-16.3379 -51,-16.4222 -21.4634,-0.088 -31.3913,3.1089 -53.4725,17.22 -22.0376,14.0832 -37.7285,19.8096 -60.6474,22.1331 -8.584,0.8703 -14.5109,0.8788 -23.6941,0.034 -23.4752,-2.1597 -39.3012,-7.8443 -61.7135,-22.167 -21.8137,-13.9402 -31.8761,-17.2162 -52.9725,-17.2462 -20.9736,-0.03 -31.0956,3.2656 -52.9725,17.2462 -21.6061,13.8075 -37.5952,19.7466 -59.1034,21.9537 -11.4083,1.1708 -17.8055,1.1552 -29.4621,-0.071 z m -5.462,-109.366 c -19.4667,-3.3031 -33.5694,-9.1319 -55.3757,-22.88762 -18.2782,-11.53013 -25.8933,-14.20433 -44.124297,-15.49522 -12.5742,-0.89033 -17.0466,-2.55437 -21.5552,-8.01997 -8.7548,-10.6129 -5.0278,-26.54217 7.5466,-32.25462 7.8987,-3.58831 30.757297,-1.68054 48.173897,4.02058 11.3184,3.70494 18.5573,7.31708 33.3347,16.63373 23.4706,14.79743 30.2851,16.98071 53,16.98071 22.6518,0 30.3736,-2.49512 53.7152,-17.35683 13.8852,-8.84077 19.6401,-11.72113 31.2848,-15.65819 14.8751,-5.02927 21.5405,-5.98722 41.5,-5.96437 30.1334,0.0345 44.6395,4.4358 72.5,21.99716 23.7163,14.94918 30.0613,16.98223 53,16.98223 22.9387,0 29.2837,-2.03305 53,-16.98223 14.7804,-9.31658 22.0185,-12.92799 33.3347,-16.63221 11.7753,-3.8545 25.2768,-5.87225 39.3429,-5.87966 27.3901,-0.0145 46.0192,5.56251 71.0371,21.26626 25.8403,16.21994 31.7119,18.15252 55.2853,18.19683 22.9384,0.0431 28.7551,-1.81671 52.8217,-16.88932 14.8395,-9.29377 22.0215,-12.89521 33.1523,-16.62436 22.1393,-7.41734 51.8963,-7.9629 74.7684,-1.3708 12.94,3.72948 22.2908,8.08206 36.2576,16.877 14.0866,8.87037 25.8754,14.65065 34,16.67088 3.5296,0.87765 11.2322,1.35865 21.5,1.34261 22.5939,-0.0353 28.87864,-2.06488 52.50004,-16.95416 24.6625,-15.54554 40.0035,-20.85626 64.0525,-22.17353 13.2229,-0.72428 17.1584,0.14294 22.6903,4.99997 9.2656,8.13536 9.656,21.71406 0.8675,30.18007 -4.8617,4.6834 -9.9449,6.47265 -18.3884,6.47265 -14.889,0 -28.1676,4.48796 -45.5015,15.3788 -29.7984,18.72221 -48.1518,24.60941 -76.72044,24.60941 -28.5686,0 -46.922,-5.8872 -76.7204,-24.60941 -18.7919,-11.80684 -30.3841,-15.3788 -49.9097,-15.3788 -18.8095,0 -30.449,3.68684 -49.3777,15.64044 -28.1058,17.74897 -43.0112,22.89687 -69.5989,24.03747 -31.5091,1.3517 -51.3015,-4.323 -82.0103,-23.51307 -20.3931,-12.74374 -31.0359,-16.16484 -50.2873,-16.16484 -19.4264,0 -28.99,3.0177 -49.9158,15.75049 -8.624,5.24742 -19.2824,11.24532 -23.6854,13.32872 -17.2849,8.1785 -35.7046,11.5441 -58.3458,10.6607 -27.7224,-1.0815 -40.3391,-5.6011 -75.4133,-27.01457 -16.9867,-10.3707 -28.7633,-13.35303 -49.1375,-12.44368 -18.5412,0.82753 -26.3117,3.44886 -45.0018,15.18126 -22.9003,14.37529 -37.1425,20.31179 -55.2926,23.04759 -11.7257,1.7674 -31.9236,1.7731 -42.3035,0.012 z m 4.7222,-107.61058 c -18.8521,-1.99272 -34.9215,-8.24584 -57.9363,-22.54488 -20.9883,-13.03991 -26.0659,-14.75628 -51.066397,-17.26159 -11.0038,-1.10271 -15.3101,-3.63613 -19.0966,-11.23456 -5.4021,-10.84053 -1.5157,-22.83973 9.0548,-27.95683 4.1772,-2.02214 5.5445,-2.14557 18.1697,-1.64022 23.222897,0.92956 38.569197,5.99602 61.853397,20.42041 26.2713,16.27485 33.4966,18.72086 55.2992,18.72086 21.7693,0 29.043,-2.50775 57.1138,-19.69115 14.7278,-9.01549 24.9236,-13.49891 38.6283,-16.98606 7.7898,-1.98209 11.1899,-2.22286 30.7579,-2.17804 20.7393,0.0475 22.561,0.20524 31.7896,2.75235 14.0136,3.86779 22.4995,7.68962 37.2398,16.77169 27.1135,16.70573 34.7831,19.33121 56.4706,19.33121 20.8733,0 30.6209,-3.06101 50.416,-15.83201 27.7175,-17.88224 45.9886,-23.58301 75.584,-23.58301 29.3078,0 46.6153,5.34289 74.4518,22.98355 21.3773,13.54732 30.5196,16.45302 51.5482,16.38361 21.8608,-0.0722 28.7193,-2.29842 52.0396,-16.89197 27.8707,-17.44109 44.4367,-22.47519 73.9604,-22.47519 16.7883,0 28.2485,1.67446 41.2327,6.02457 10.9321,3.66257 16.1867,6.31261 31.2673,15.76874 23.7878,14.91595 32.0026,17.62171 53.5,17.62171 20.8733,0 30.62094,-3.06101 50.41604,-15.83201 26.8993,-17.35437 48.0872,-24.18099 72.6788,-23.41679 10.0632,0.31273 11.0084,0.52301 14.9839,3.33378 8.3538,5.90624 11.01,16.25796 6.6279,25.82977 -3.7619,8.2169 -8.1518,10.76175 -20.5081,11.88849 -22.2264,2.02677 -29.5848,4.50847 -48.7985,16.45793 -25.5743,15.9053 -40.2101,21.34883 -63.15004,23.48767 -9.1831,0.8562 -15.3169,0.8562 -24.5,0 -22.6027,-2.10739 -38.3392,-7.8733 -61.453,-22.51654 -21.5287,-13.63908 -31.0338,-16.71203 -51.797,-16.74577 -21.8996,-0.0356 -30.3298,2.66357 -53.7152,17.19846 -7.3067,4.54134 -16.9431,9.97291 -21.4144,12.07015 -25.9745,12.18334 -63.9122,14.02214 -91.9805,4.45821 -9.16,-3.12117 -22.7333,-10.06905 -34.3899,-17.60342 -19.6783,-12.71933 -30.339,-16.13701 -50.5,-16.18956 -21.399,-0.0558 -30.3926,2.7995 -52.5,16.66763 -23.7938,14.926 -39.122,20.55108 -61.75,22.66084 -9.1831,0.8562 -15.3169,0.8562 -24.5,0 -22.628,-2.10976 -37.9562,-7.73484 -61.75,-22.66084 -22.0991,-13.86291 -30.8521,-16.665 -52,-16.64667 -21.2233,0.0184 -30.54,3.00726 -52.2537,16.76354 -6.6853,4.23535 -16.2517,9.64117 -21.2585,12.01293 -19.8301,9.39361 -43.5701,12.94225 -68.7656,10.27901 z m 5.2543,-84.20326 c -4.9556,-1.40706 -7.1649,-2.60156 -26.7261,-14.45032 -7.2873,-4.4141 -15.7248,-9.03023 -18.75,-10.25808 -4.4211,-1.7944 -5.5004,-2.68283 -5.5004,-4.52764 0,-1.26235 -2.6877,-41.37258 -5.9726,-89.13385 -3.2849,-47.76128 -6.907,-101.01368 -8.0491,-118.33868 -1.1421,-17.325 -2.3919,-32.78627 -2.7774,-34.35838 -0.6989,-2.85032 -0.7491,-2.81609 -17.7911,12.1417 -9.3997,8.25005 -18.6247,15.7965 -20.499997,16.76989 -5.3302,2.76656 -13.6556,2.37187 -19.261,-0.91312 -10.7321,-6.28942 -13.7086,-21.4734 -6.0043,-30.62941 2.4696,-2.93501 33.996697,-31.04181 149.355497,-133.15216 28.325,-25.07201 85.925,-76.07039 128,-113.32973 42.1413,-37.31807 78.2965,-68.58427 80.5,-69.61456 4.7358,-2.21436 11.3044,-2.44589 15.7821,-0.55628 1.7698,0.74687 63.9679,41.76977 138.2179,91.162 74.25,49.39223 162.9447,108.35079 197.0992,131.01902 61.9598,41.12236 62.1052,41.2269 64.75,46.53434 4.3814,8.79219 2.8914,17.53229 -4.1974,24.62102 -4.0926,4.09264 -8.9735,5.63129 -16.2042,5.10826 -5.5618,-0.4023 -6.7857,-1.0521 -25.6441,-13.61485 l -19.8035,-13.19238 -0.3132,3.0006 c -0.1723,1.65032 0.6132,16.16387 1.7456,32.25232 9.254,131.48017 17.0989,248.22781 16.7422,249.15731 -0.2368,0.61719 -3.748,2.1727 -7.8026,3.45669 -10.3944,3.29166 -27.1828,11.65177 -42.2624,21.04539 -7.0898,4.41646 -14.5148,8.60646 -16.5,9.31112 -2.0289,0.72014 -7.9888,1.2754 -13.6096,1.26794 -11.5806,-0.0154 -14.6239,-1.12498 -30.5332,-11.1326 -32.5821,-20.49557 -56.7458,-28.01935 -91.9668,-28.63547 l -12.5,-0.21866 -1.25,-19.5 c -0.6875,-10.725 -1.7265,-21.21548 -2.3088,-23.31217 -1.3153,-4.73584 -7.3143,-11.52187 -11.8723,-13.42977 -1.887,-0.78991 -6.387,-1.40633 -10,-1.36982 -5.8226,0.0588 -84.2345,5.23634 -123.0689,8.12618 -7.975,0.59346 -23.1328,1.67846 -33.684,2.41113 -21.2082,1.47268 -26.2995,2.93385 -30.4287,8.7327 -4.1271,5.79597 -4.8261,10.4949 -3.7769,25.38902 0.5311,7.54046 0.7838,13.89187 0.5614,14.11425 -0.2224,0.22238 -6.202,0.0105 -13.2881,-0.47082 -40.3533,-2.74105 -71.8296,5.2084 -106.3837,26.86762 -16.9697,10.63694 -20.6625,12.14025 -30.8803,12.57112 -5.1368,0.21661 -10.4475,-0.15549 -13.1432,-0.92087 z M 1004.8317,609.64714 c -22.30314,-5.41524 -39.84824,-21.65893 -47.51154,-43.98725 -2.3249,-6.77404 -2.7477,-9.66491 -2.7774,-18.9904 -0.033,-10.4025 0.2036,-11.70613 4.3571,-24 6.745,-19.96452 32.7878,-69.66473 44.72784,-85.35885 7.1199,-9.35843 24.7547,-9.50535 32.5249,-0.27098 1.46,1.73513 6.2242,9.11166 10.5871,16.3923 24.7066,41.2297 37.9226,71.71441 38.9039,89.73753 1.6471,30.2531 -19.3548,58.35963 -49.3378,66.028 -9.0384,2.31163 -22.9848,2.51087 -31.4741,0.44965 z M 940.41526,369.52327 c -28.1094,-4.52756 -51.3884,-23.19409 -61.3687,-49.20934 -9.7822,-25.49867 -5.798,-46.92949 17.3164,-93.14444 15.0816,-30.15422 36.6445,-66.52905 41.4251,-69.88055 9.1666,-6.42638 23.486,-4.75982 29.7582,3.46338 6.334,8.30433 28.5318,47.00792 38.37924,66.91717 11.31,22.8661 16.8024,36.43064 20.2173,49.93049 3.0006,11.86164 2.2188,27.90774 -1.9406,39.83072 -4.9262,14.12118 -12.1097,24.54162 -23.9974,34.81085 -6.63814,5.73436 -21.00534,13.19526 -29.78954,15.46974 -6.0966,1.57858 -24.5349,2.69224 -30,1.81198 z m -227,-97.51612 c -25.2163,-2.39795 -47.2106,-20.14643 -55.5637,-44.83766 -3.1184,-9.21766 -3.7377,-23.56507 -1.4316,-33.1614 4.6822,-19.48278 24.5458,-60.15249 43.6343,-89.3386 5.615,-8.585411 8.1701,-10.992122 13.7652,-12.966197 7.6023,-2.682261 14.0822,-1.34774 20.1725,4.154494 7.8968,7.134293 34.5344,54.863193 44.264,79.311703 6.5455,16.44762 7.9553,23.31339 7.392,36 -0.7426,16.72673 -6.5723,29.75437 -18.7753,41.95738 -14.382,14.38197 -32.7058,20.85365 -53.4574,18.88028 z"
       id="path709" />
  </g>
</svg>
