<?xml version="1.0" encoding="UTF-8" standalone="no"?>
<!-- Created with Inkscape (http://www.inkscape.org/) -->

<svg
   version="1.1"
   id="svg448"
   width="216.00281"
   height="162.09845"
   viewBox="0 0 216.00281 162.09845"
   sodipodi:docname="Mineria.svg"
   inkscape:version="1.2.2 (732a01da63, 2022-12-09)"
   xmlns:inkscape="http://www.inkscape.org/namespaces/inkscape"
   xmlns:sodipodi="http://sodipodi.sourceforge.net/DTD/sodipodi-0.dtd"
   xmlns="http://www.w3.org/2000/svg"
   xmlns:svg="http://www.w3.org/2000/svg">
  <defs
     id="defs452" />
  <sodipodi:namedview
     id="namedview450"
     pagecolor="#ffffff"
     bordercolor="#000000"
     borderopacity="0.25"
     inkscape:showpageshadow="2"
     inkscape:pageopacity="0.0"
     inkscape:pagecheckerboard="0"
     inkscape:deskcolor="#d1d1d1"
     showgrid="false"
     inkscape:zoom="0.84285714"
     inkscape:cx="71.779661"
     inkscape:cy="91.949153"
     inkscape:window-width="1920"
     inkscape:window-height="1111"
     inkscape:window-x="-9"
     inkscape:window-y="-9"
     inkscape:window-maximized="1"
     inkscape:current-layer="g454" />
  <g
     inkscape:groupmode="layer"
     inkscape:label="Image"
     id="g454"
     transform="translate(-23.042025,-48.90155)">
    <path
       style="fill:#000000"
       d="m 83.402285,205.71855 c -2.86872,-2.90479 -5.21584,-5.79365 -5.21584,-6.41969 0,-0.62604 3.90482,-4.99939 8.67738,-9.71855 9.49017,-9.384 9.1375,-9.25306 20.822615,-7.73141 l 5,0.6511 -11.76335,11.27804 c -12.596995,12.07731 -11.600625,11.6548 -17.736645,7.52124 -1.89659,-1.27764 -1.66822,-0.79291 0.94616,2.00829 1.8954,2.03084 4.15215,3.69243 5.01501,3.69243 0.86286,0 7.18033,-5.625 14.038825,-12.5 6.85849,-6.875 13.14592,-12.5 13.97206,-12.5 0.82614,0 -5.01129,6.525 -12.97206,14.5 -7.960775,7.975 -14.720325,14.5 -15.021225,14.5 -0.3009,0 -2.89422,-2.37665 -5.76293,-5.28145 z M 158.18644,196.5 c -7.96077,-7.975 -13.7982,-14.5 -12.97206,-14.5 0.82614,0 7.11357,5.625 13.97206,12.5 6.85849,6.875 13.17597,12.5 14.03883,12.5 0.86286,0 3.11961,-1.63144 5.015,-3.62543 3.25368,-3.42293 2.19947,-3.33518 -2.76544,0.2302 -2.14922,1.54339 -2.545,1.26809 -14.02902,-9.75829 L 149.62839,182.5 l 5.02903,-0.6511 c 11.87823,-1.53787 11.51708,-1.67196 20.67622,7.67721 4.59404,4.68935 8.51785,9.0095 8.71957,9.60031 0.3378,0.98934 -9.60407,11.87358 -10.84554,11.87358 -0.30091,0 -7.06046,-6.525 -15.02123,-14.5 z M 99.464975,176.88015 c -12.39099,-1.02019 -23.71926,-3.28368 -26.91556,-5.37797 -3.07895,-2.01741 -3.2724,-8.14758 -0.36297,-11.50218 1.46079,-1.68431 2,-3.74136 2,-7.62996 0,-4.42621 0.38147,-5.57388 2.2623,-6.80625 3.08474,-2.0212 13.42784,-4.31281 24.055795,-5.32978 l 8.81811,-0.84379 1.47962,3.54125 c 0.81379,1.94768 2.43659,4.55988 3.60621,5.80488 l 2.12659,2.26365 -4.42432,0.006 c -8.53877,0.0114 -30.868575,4.02276 -33.170455,5.95883 -0.41038,0.34516 2.96462,0.0775 7.5,-0.59485 4.53538,-0.67233 13.19615,-1.51623 19.246145,-1.87533 6.05,-0.3591 11.58738,-0.8377 12.30529,-1.06356 0.91146,-0.28675 0.40837,-1.54517 -1.66742,-4.17082 -4.35088,-5.5034 -5.70295,-10.95691 -4.19946,-16.9384 1.57973,-6.28483 4.96997,-10.61491 10.35013,-13.2194 8.09556,-3.919 17.05167,-2.20233 23.34976,4.47559 3.36771,3.57082 4.55887,3.58761 1.86306,0.0263 -0.78927,-1.04267 -1.73739,-4.56822 -2.10693,-7.83454 -0.67884,-6.00014 -2.34769,-6.284 -2.37912,-0.40467 -0.0148,2.77337 -0.0902,2.81596 -2.35571,1.33152 -5.80538,-3.80383 -13.01504,-4.18352 -21.03085,-1.10756 -1.41703,0.54376 -1.62875,-0.3638 -1.62875,-6.98198 0,-9.115733 -0.19246,-9.191367 -10.11733,-3.97599 -8.227825,4.3236 -16.532735,12.8225 -20.289305,20.76323 -3.56288,7.53131 -3.23757,9.34289 0.46793,2.60577 4.27963,-7.78097 11.31597,-14.5355 19.323065,-18.54914 7.76251,-3.89104 9.98293,-4.29843 9.27035,-1.70086 -0.26404,0.9625 -0.78065,3.52221 -1.14802,5.68824 -0.36737,2.16603 -1.98166,6.54069 -3.58732,9.72148 -1.73247,3.43187 -2.91937,7.36261 -2.91937,9.66814 v 3.88504 l -9.0181,0.68078 c -4.959945,0.37442 -11.528995,1.14494 -14.597885,1.71225 -3.06889,0.56732 -5.82169,0.78959 -6.11734,0.49393 -0.93765,-0.93764 3.87378,-14.42991 6.77997,-19.0125 6.3298,-9.98105 14.701815,-17.10516 24.929195,-21.213288 3.12372,-1.254736 6.02803,-3.180452 6.68372,-4.431669 1.83289,-3.497581 3.24586,-3.911917 13.34044,-3.911917 10.09458,0 11.50755,0.414336 13.34044,3.911917 0.65569,1.251217 3.56,3.176933 6.68372,4.431669 11.55868,4.642888 21.61844,14.022018 26.94913,25.125788 2.89209,6.02419 5.66531,15.19473 4.8435,16.01655 -0.24197,0.24196 -3.11223,0.002 -6.37836,-0.53252 -3.26614,-0.53484 -7.96343,-0.93447 -10.43843,-0.88805 -4.12649,0.0774 -4.251,0.14979 -1.5,0.87228 1.65,0.43334 6.18907,1.3205 10.08682,1.97147 3.89774,0.65097 8.51024,2.04922 10.25,3.10723 2.91842,1.77479 3.16318,2.33852 3.16318,7.28533 0,3.92635 0.53541,5.97902 2,7.66771 2.85827,3.29561 2.71632,9.48455 -0.2623,11.43621 -8.23787,5.39766 -56.06331,8.27585 -90.459165,5.44394 z M 131.68644,167.5 c 14.85,0 31.26111,0.36111 36.46914,0.80247 5.20803,0.44136 9.23584,0.56918 8.95069,0.28403 -0.28514,-0.28514 -4.99625,-1.29205 -10.46914,-2.23756 -14.14517,-2.44377 -56.75621,-2.44377 -70.901385,0 -5.47288,0.94551 -10.19562,1.96405 -10.49498,2.26341 -0.29936,0.29936 3.95345,0.17155 9.45069,-0.28403 C 100.18869,167.87274 116.83644,167.5 131.68644,167.5 Z m 51.49365,-10.94432 c -3.16834,-1.72456 -13.10664,-3.58717 -18.42731,-3.45359 -3.95293,0.0992 -3.98267,0.12532 -1.06634,0.93521 2.58458,0.71776 18.09792,3.5167 21,3.78885 0.55,0.0516 -0.12786,-0.52013 -1.50635,-1.27047 z m -39.0171,-2.37152 c 3.8689,-2.86406 7.03211,-8.13967 6.9445,-11.58204 l -0.0789,-3.10212 -1.04866,3 c -1.82502,5.22102 -5.90996,9.65937 -11.18524,12.15296 l -5.10821,2.41461 3.97655,-0.50768 c 2.1871,-0.27922 5.1121,-1.3483 6.5,-2.37573 z m -6.00573,-4.66907 c 6.99892,-3.61928 9.58739,-12.2424 5.83579,-19.4411 -5.59918,-10.7439 -20.16309,-10.80778 -25.55661,-0.1121 -2.73441,5.4225 -2.82778,8.48203 -0.39839,13.05371 3.81634,7.18166 13.03873,10.16095 20.11921,6.49949 z m -10.72082,-1.54625 c -3.20523,-1.28835 -2.80302,-1.57443 1.62044,-1.15259 7.82996,0.74671 14.07753,-5.77017 12.62559,-13.16984 -0.46187,-2.35385 -0.35406,-2.76857 0.42798,-1.64641 0.57495,0.825 1.05226,2.98485 1.06068,4.79966 0.0395,8.52326 -8.04322,14.26077 -15.73469,11.16918 z m -7.24626,-12.7685 c -0.006,-2.23774 2.93071,-7.09489 4.94087,-8.1707 3.40281,-1.82112 4.41143,-1.09754 1.57746,1.13166 -1.51121,1.18872 -3.59522,3.55122 -4.63112,5.25 -1.03591,1.69879 -1.88516,2.50385 -1.88721,1.78904 z M 165.64885,113.922 c -5.0881,-5.20663 -10.10532,-8.62387 -16.71241,-11.3829 -3.06731,-1.28086 -3.75,-1.31773 -3.75,-0.20254 0,0.74987 2.83869,2.56986 6.30819,4.04442 3.46951,1.47456 8.98201,4.89194 12.25,7.59417 3.268,2.70224 6.14989,4.93829 6.40422,4.969 0.25432,0.0307 -1.77068,-2.22925 -4.5,-5.02215 z m -31.8382,-17.733187 c 6.9891,-0.366834 8.21827,-0.673686 7.27095,-1.815139 C 140.27509,93.401896 137.40276,93 131.264,93 c -9.26404,0 -11.07756,0.773215 -11.07756,4.723053 0,2.273409 0.0557,2.286557 2.60661,0.615139 1.74399,-1.142707 5.39009,-1.85401 11.0176,-2.149379 z M 23.584415,137.95188 c 0.92892,-12.9272 6.84155,-28.55613 15.88606,-41.991837 4.82381,-7.16581 6.11631,-11.346124 4.37178,-14.139569 -0.97102,-1.55484 -0.31222,-2.642328 4.54042,-7.494967 4.33852,-4.338523 5.98585,-5.422151 6.99,-4.598087 2.48048,2.035626 7.32393,0.669867 14.65366,-4.13205 13.97473,-9.155241 28.41741,-14.518794 43.160105,-16.028289 l 6.5,-0.665531 -10.12611,5.399877 c -10.645865,5.677045 -21.317935,13.295112 -30.155925,21.526264 -5.17865,4.823069 -5.26933,5.005029 -4.63257,9.295836 0.56208,3.787591 1.79159,5.537126 9.13754,13.002251 5.70813,5.800732 8.09147,8.870892 7.27712,9.374192 -0.76862,0.47503 -4.45993,-2.48551 -10.1055,-8.104932 -4.89201,-4.869337 -8.89455,-8.197121 -8.89455,-7.395076 0,0.802044 3.64853,5.125848 8.10785,9.608448 l 8.10785,8.15019 -3.41989,5.07824 -3.41988,5.07824 -9.41822,-9.45754 C 63.302665,101.57913 62.474535,101 58.620255,101 c -3.76514,0 -4.64062,0.55989 -10.5548,6.75 -8.47837,8.87394 -12.88332,15.07449 -19.53399,27.49673 L 23.042025,145.5 Z m 19.72964,-37.73116 3.9814,-5.279287 3.19549,2.194981 3.1955,2.194982 -3.40846,-3.626786 c -1.87464,-1.994733 -3.83089,-3.365701 -4.34721,-3.046597 -1.33221,0.823348 -9.01657,12.903667 -11.98551,18.841987 -4.47765,8.95598 -4.01746,10.19639 0.74199,2 2.55497,-4.4 6.43703,-10.37568 8.6268,-13.27928 z m 29.87239,-14.032339 c 0,-1.680503 -8.62797,-11.918909 -11.20753,-13.299447 -1.56559,-0.837875 -3.00599,0.09488 -8.83158,5.719014 -4.18064,4.036072 -6.96089,7.541782 -6.96089,8.777226 0,1.633803 1.29149,0.777031 6.2769,-4.164062 C 55.915645,79.7995 59.330065,77 60.050935,77 c 1.52194,0 10.03692,8.958315 10.0958,10.621444 0.0218,0.616795 -2.21029,3.4436 -4.96029,6.281791 -7.32352,7.558375 -6.10767,7.636815 1.5,0.09677 3.575,-3.543223 6.5,-7.058452 6.5,-7.811619 z M 50.973055,77.04063 c 2.35763,-2.13254 3.89467,-4.119571 3.41565,-4.415626 -0.47903,-0.296054 -2.8392,1.467206 -5.24482,3.918357 -5.36604,5.467598 -4.05871,5.823001 1.82917,0.497269 z M 76.440355,69.25 c 4.50433,-3.1625 12.25238,-7.907864 17.21789,-10.545253 9.598635,-5.098235 8.501105,-5.319092 -2.98057,-0.599779 -7.92025,3.255465 -21.43974,10.923131 -23.37862,13.259346 C 66.168585,72.726438 66.467835,75 67.777575,75 c 0.2602,0 4.15845,-2.5875 8.66278,-5.75 z M 233.88582,135.56284 C 228.30581,124.58771 221.82134,115.38407 213.74404,106.97492 208.5272,101.54375 207.6246,101 203.82593,101 c -3.94685,0 -4.70218,0.52537 -13.59721,9.45754 l -9.41821,9.45754 -3.41989,-5.07824 -3.41988,-5.07824 8.10785,-8.15019 c 4.45932,-4.4826 8.10785,-8.806404 8.10785,-9.608448 0,-0.802045 -4.04343,2.566429 -8.98539,7.485496 -6.50288,6.472752 -9.28753,8.641622 -10.07898,7.850172 -0.79144,-0.79144 1.23184,-3.40635 7.3232,-9.464604 7.00041,-6.962355 8.52155,-9.044144 9.03937,-12.371026 0.73346,-4.712385 -0.0312,-5.886159 -8.7982,-13.505367 -8.09761,-7.037455 -16.22039,-12.536382 -27,-18.278351 l -9,-4.794024 6.5,0.655177 c 14.69517,1.481221 29.17218,6.854049 43.1601,16.017935 7.32973,4.801917 12.17318,6.167676 14.65367,4.13205 1.00415,-0.824064 2.65147,0.259564 6.99,4.598087 4.85264,4.852639 5.51143,5.940127 4.54042,7.494967 -1.67914,2.688731 -0.49694,6.99563 3.61765,13.179526 5.52119,8.29791 8.48569,13.80547 11.41109,21.2 3.21929,8.13739 5.86633,20.42529 5.4403,25.2545 -0.30274,3.43164 -0.47394,3.2344 -5.11385,-5.89166 z m -4.15271,-21.2488 c -3.02059,-6.60572 -10.85466,-19.494836 -12.86125,-21.160156 -1.03203,-0.856504 -2.11649,-0.27926 -4.76093,2.534181 l -3.42449,3.643331 3.21847,-2.21134 3.21847,-2.211339 4.64255,6.295643 c 2.5534,3.4626 6.28009,9.29456 8.28153,12.9599 2.00144,3.66534 3.79766,6.50666 3.99161,6.31404 0.19394,-0.19262 -0.84374,-2.96654 -2.30596,-6.16426 z M 197.24253,94.244195 c -2.78085,-2.737329 -5.03822,-5.59959 -5.01638,-6.360579 C 192.28145,85.957915 200.69352,77 202.44663,77 c 0.78945,0 4.01073,2.7 7.1584,6 3.14767,3.3 5.91617,6 6.15222,6 0.23605,0 0.42919,-0.775393 0.42919,-1.723095 C 216.18644,84.720809 204.18218,73 201.56427,73 c -2.32252,0 -12.37783,10.649193 -12.37783,13.108882 0,1.360985 12.0884,14.136048 12.7501,13.474353 0.19914,-0.199142 -1.91316,-2.60171 -4.69401,-5.33904 z M 213.229,76.543361 c -2.40563,-2.451151 -4.76579,-4.214411 -5.24482,-3.918357 -0.93296,0.576601 7.057,8.265352 8.66047,8.333983 0.52701,0.02256 -1.01003,-1.964474 -3.41565,-4.415626 z m -17.51549,-2.587166 c 0.35481,-0.574093 0.0669,-1.740439 -0.63968,-2.591881 -1.93889,-2.336215 -15.45837,-10.003881 -23.37863,-13.259346 -11.23073,-4.616171 -12.67379,-4.50139 -3.50876,0.279088 4.675,2.43848 12.325,7.143724 17,10.456097 9.17128,6.498118 9.55704,6.685592 10.52707,5.116042 z"
       id="path575" />
  </g>
</svg>
