<?xml version="1.0" encoding="UTF-8" standalone="no"?>
<!-- Created with Inkscape (http://www.inkscape.org/) -->

<svg
   width="41.051895mm"
   height="52.50642mm"
   viewBox="0 0 41.051895 52.50642"
   version="1.1"
   id="svg5"
   xml:space="preserve"
   inkscape:version="1.2.2 (732a01da63, 2022-12-09)"
   sodipodi:docname="Robo.svg"
   xmlns:inkscape="http://www.inkscape.org/namespaces/inkscape"
   xmlns:sodipodi="http://sodipodi.sourceforge.net/DTD/sodipodi-0.dtd"
   xmlns="http://www.w3.org/2000/svg"
   xmlns:svg="http://www.w3.org/2000/svg"><sodipodi:namedview
     id="namedview7"
     pagecolor="#ffffff"
     bordercolor="#000000"
     borderopacity="0.25"
     inkscape:showpageshadow="2"
     inkscape:pageopacity="0.0"
     inkscape:pagecheckerboard="0"
     inkscape:deskcolor="#d1d1d1"
     inkscape:document-units="mm"
     showgrid="false"
     inkscape:zoom="2.3786088"
     inkscape:cx="93.542074"
     inkscape:cy="140.62842"
     inkscape:window-width="1920"
     inkscape:window-height="1111"
     inkscape:window-x="-9"
     inkscape:window-y="-9"
     inkscape:window-maximized="1"
     inkscape:current-layer="layer1" /><defs
     id="defs2" /><g
     inkscape:label="Capa 1"
     inkscape:groupmode="layer"
     id="layer1"
     transform="translate(-43.010068,-3.0774634)"><path
       style="fill:#000000;stroke-width:0.264583"
       d="m 49.032523,55.175592 c -0.08617,-0.224557 -0.08243,-0.482526 0.0083,-0.573262 0.09074,-0.09074 0.164979,0.02354 0.164979,0.253944 0,0.230407 0.148829,0.478978 0.33073,0.552376 0.259042,0.104526 0.257243,0.13798 -0.0083,0.154339 -0.186468,0.01148 -0.409536,-0.16284 -0.495707,-0.387397 z m 1.333226,0.02687 c -0.0805,-0.209781 -0.09973,-0.596734 -0.04274,-0.859896 0.06471,-0.29877 0.155271,-0.155517 0.241137,0.38142 0.144092,0.901042 0.05043,1.126916 -0.198397,0.478476 z m 1.965446,0.200681 c 0.190996,-0.07643 0.419199,-0.06703 0.507118,0.02087 0.08792,0.08792 -0.06835,0.150453 -0.347265,0.138965 -0.308225,-0.0127 -0.37092,-0.07539 -0.159853,-0.159851 z m 3.059052,-0.207407 c -0.0819,-0.213482 -0.0979,-0.540904 -0.0355,-0.727604 0.0624,-0.186701 0.17619,-0.01204 0.25286,0.388146 0.14968,0.781373 0.0262,0.974206 -0.21738,0.339458 z m 1.11807,0.209851 c 0.16008,-0.120218 0.36634,-0.397174 0.45836,-0.615455 0.11755,-0.278857 0.14901,-0.246038 0.10582,0.110366 -0.0338,0.278984 -0.24008,0.55594 -0.45836,0.615455 -0.25526,0.0696 -0.29302,0.03022 -0.10582,-0.110366 z m 1.03374,-0.08326 c -0.0927,-0.149981 0.0135,-0.194336 0.24896,-0.103984 0.45837,0.175893 0.54224,0.365538 0.16165,0.365538 -0.13693,0 -0.32171,-0.1177 -0.41061,-0.261554 z m 9.39083,0.02937 c 0,-0.127701 0.20836,-0.395591 0.46302,-0.595312 0.41371,-0.324453 0.42662,-0.316555 0.12125,0.07416 -0.27931,0.35737 -0.27931,0.462357 0,0.574427 0.21735,0.08721 0.1732,0.144737 -0.12125,0.158019 -0.25466,0.01148 -0.46302,-0.0836 -0.46302,-0.211299 z m 7.27871,-0.03671 c 0.0914,-0.147895 0.27702,-0.200401 0.41249,-0.116676 0.36699,0.226808 0.29856,0.385574 -0.16619,0.385574 -0.22687,0 -0.3377,-0.121004 -0.2463,-0.268898 z m 1.02499,-0.112522 c -0.0805,-0.209781 -0.0906,-0.596734 -0.0224,-0.859896 0.0836,-0.322586 0.13397,-0.2486 0.15466,0.227081 0.0169,0.388054 0.17952,0.765609 0.36142,0.839007 0.25905,0.104526 0.25725,0.13798 -0.008,0.154339 -0.18647,0.01148 -0.40489,-0.150749 -0.4854,-0.360531 z m 3.28836,0.200681 c 0.19099,-0.07643 0.4192,-0.06703 0.50712,0.02087 0.0879,0.08792 -0.0683,0.150453 -0.34727,0.138965 -0.30822,-0.0127 -0.37092,-0.07539 -0.15985,-0.159851 z m 1.26671,0.0024 c 0.16008,-0.120219 0.36634,-0.397174 0.45835,-0.615455 0.11755,-0.278858 0.14902,-0.246039 0.10582,0.110365 -0.0338,0.278985 -0.24007,0.55594 -0.45836,0.615456 -0.25526,0.0696 -0.29302,0.03022 -0.10581,-0.110366 z m -21.06085,-0.631007 c 0,-0.15411 0.11906,-0.206614 0.26458,-0.116676 0.14552,0.08994 0.26458,0.216027 0.26458,0.280199 0,0.06417 -0.11906,0.116676 -0.26458,0.116676 -0.14552,0 -0.26458,-0.12609 -0.26458,-0.280199 z m 18.52083,0.03123 c 0,-0.136932 0.1177,-0.321712 0.26156,-0.410617 0.14998,-0.09269 0.19433,0.01352 0.10398,0.248967 -0.17589,0.45837 -0.36554,0.542235 -0.36554,0.16165 z m -8.84653,-0.357756 c 0.0994,-0.260938 0.2473,-0.407782 0.32877,-0.326319 0.0815,0.08146 1.6e-4,0.294955 -0.18066,0.474432 -0.2613,0.259361 -0.29169,0.228971 -0.14811,-0.148113 z m 11.44276,-0.632349 c 0.19099,-0.07643 0.41919,-0.06703 0.50711,0.02087 0.0879,0.08792 -0.0684,0.150453 -0.34726,0.138965 -0.30823,-0.0127 -0.37092,-0.07539 -0.15985,-0.159851 z M 59.941277,43.91818 c -6.293012,-1.013828 -11.994782,-5.326994 -14.83324,-11.220759 -1.574399,-3.269078 -2.083403,-5.451862 -2.097743,-8.995834 -0.02504,-6.18876 2.032681,-10.8838 6.690526,-15.2655655 2.475385,-2.328665 5.811877,-4.1357616 9.029987,-4.8907867 2.67504,-0.6276112 6.92917,-0.6231022 9.525,0.010096 7.371,1.798003 13.53536,7.9363802 15.21143,15.1473382 0.68083,2.929102 0.77351,5.504569 0.29655,8.240181 -0.30151,1.729316 -0.42673,4.081002 -0.42673,8.014187 0,4.940408 -0.0564,5.677111 -0.50101,6.548321 -0.6194,1.213596 -1.21989,1.769329 -2.48139,2.296416 -0.82526,0.344816 -2.3997,0.402439 -10.04449,0.367623 -4.9862,-0.0227 -9.6522,-0.135755 -10.36889,-0.251217 z m 20.38224,-1.447525 c 1.80078,-1.342229 1.81991,-1.423524 1.85299,-7.875513 0.0165,-3.226559 0.16537,-6.572949 0.33073,-7.436419 0.90723,-4.737367 -0.0915,-9.768435 -2.77151,-13.96082 -1.44558,-2.261372 -2.23983,-3.147193 -4.20388,-4.6885418 -2.02188,-1.5867337 -2.99829,-2.1405347 -5.29167,-3.0013321 -4.90623,-1.8415071 -10.09401,-1.6442322 -14.80402,0.5629504 -4.359748,2.043048 -7.119271,4.7524415 -9.347578,9.1777735 -1.46214,2.903753 -1.76819,4.370568 -1.763677,8.452834 0.0037,3.357462 0.07279,3.902284 0.737991,5.820834 2.555399,7.370153 8.926324,12.593375 16.242824,13.316711 0.98489,0.09737 5.50213,0.177038 10.03832,0.177038 7.91695,0 8.27694,-0.02188 8.97948,-0.545515 z M 59.287487,41.136081 C 53.06246,39.843483 47.613326,34.346907 46.036625,27.769855 42.915174,14.749029 54.674647,2.991567 67.696857,6.1133325 c 7.99671,1.917022 13.78992,9.2542235 13.78265,17.4559635 -0.002,2.487104 -0.17968,3.175 -0.81914,3.175 -0.45724,0 -0.49831,-0.235321 -0.49831,-2.854828 0,-3.231229 -0.41283,-5.170013 -1.62527,-7.632819 -1.79861,-3.653517 -5.23568,-6.8143308 -9.09036,-8.3597325 -2.04161,-0.818516 -2.2527,-0.848639 -5.95312,-0.849548 -3.67504,-9.03e-4 -3.92208,0.03351 -5.87137,0.817793 -4.652025,1.8717207 -8.142101,5.4244975 -9.917712,10.0958925 -1.15296,3.033285 -1.14011,9.159977 0.02387,11.381976 0.316999,0.60514 0.329207,0.597996 0.813536,-0.476054 0.819051,-1.816327 2.553526,-3.076321 5.121493,-3.720454 1.113763,-0.279371 1.135493,-0.304528 0.689023,-0.797875 -0.25521,-0.281998 -0.518385,-1.106546 -0.589537,-1.847035 -0.148362,-1.544033 0.228917,-2.096517 2.388507,-3.49769 0.69122,-0.448477 1.25664,-0.944189 1.25648,-1.101582 -1.6e-4,-0.157393 -0.88904,-0.685758 -1.97528,-1.174144 -3.320335,-1.492851 -3.351588,-2.268594 -0.1184,-2.938752 l 1.96167,-0.406606 1.15536,-2.315104 1.15536,-2.3151048 h 3.8849 3.88489 l 1.04517,2.1828128 c 0.57484,1.200547 1.14281,2.254534 1.26216,2.342194 0.11936,0.08766 1.03551,0.305657 2.0359,0.484436 3.15162,0.563225 3.15205,1.421434 0.001,2.84132 -1.16701,0.525988 -2.12193,1.106554 -2.12193,1.290148 0,0.183594 0.50601,0.632155 1.12448,0.996802 0.61846,0.364647 1.46468,1.020891 1.88048,1.458318 0.64485,0.678395 0.74209,0.969176 0.66145,1.97783 l -0.0945,1.182507 1.41482,0.145981 c 2.58746,0.266978 4.27373,2.05817 4.27373,4.539658 0,1.02421 0.0982,1.251566 0.6487,1.50241 1.27353,0.580255 1.52264,1.691142 1.42467,6.352981 l -0.089,4.234656 -0.74073,0.636736 -0.74073,0.636738 -9.18114,-0.03534 c -6.48248,-0.02495 -9.67854,-0.138628 -10.8734,-0.386736 z m 3.61439,-8.609415 0.07,-7.836609 -4.00905,-1.361813 c -2.20498,-0.748995 -4.06307,-1.307795 -4.12909,-1.241776 -0.36066,0.360656 0.50159,1.460301 2.85407,3.639875 2.62094,2.428298 3.0071,3.006699 2.21125,3.312096 -0.28488,0.109318 -0.98697,-0.402531 -2.19096,-1.597302 l -1.77175,-1.75817 -1.05019,0.37351 c -0.5776,0.205428 -1.526429,0.504867 -2.108512,0.665416 -1.07075,0.295336 -2.525856,1.423329 -2.98559,2.314419 -0.432666,0.838629 -0.627578,3.221866 -0.31176,3.811977 0.451535,0.843703 2.836456,3.396831 3.010479,3.222807 0.08502,-0.08502 0.154579,-1.027702 0.154579,-2.094857 0,-1.752375 0.05035,-1.940277 0.519911,-1.940277 0.477849,0 0.52601,0.217959 0.595312,2.694136 l 0.0754,2.694133 1.276391,0.749247 c 1.44442,0.847878 3.9669,1.755944 5.73507,2.064562 2.15,0.375261 1.97631,1.02721 2.05441,-7.711374 z m 3.73744,7.549206 c 0.0568,-0.0487 0.0791,-1.933189 0.0496,-4.187762 -0.0586,-4.471185 0.20397,-5.624536 1.40509,-6.1718 0.49556,-0.225796 0.60969,-0.492284 0.62428,-1.45778 0.0231,-1.5303 0.63786,-2.683822 2.22414,-4.173551 1.12953,-1.06078 1.66111,-2.094621 1.08371,-2.107665 -0.10914,-0.0024 -1.95461,0.607539 -4.10104,1.355566 l -3.9026,1.360051 v 7.72846 c 0,4.250653 0.0778,7.806312 0.173,7.901464 0.16009,0.160086 2.21068,-0.04715 2.44384,-0.246983 z m 12.50972,-0.01111 c 0.42753,-0.386929 0.48385,-0.897064 0.48385,-4.383032 0,-2.213506 -0.12022,-4.169767 -0.27389,-4.456908 -0.25673,-0.479695 -0.60442,-0.511773 -5.54694,-0.511773 -4.94252,0 -5.29022,0.03208 -5.54694,0.511773 -0.15326,0.286366 -0.2739,2.229119 -0.2739,4.410937 0,3.256917 0.0721,3.978862 0.43789,4.383019 0.39418,0.435562 0.92683,0.483854 5.33698,0.483854 4.18736,0 4.96938,-0.06361 5.38295,-0.437883 z m -5.87613,-1.099277 c -0.77844,-0.240218 -1.31316,-0.945867 -1.32231,-1.744994 -0.005,-0.4504 -0.17953,-1.116557 -0.3875,-1.480359 -0.60877,-1.064932 -0.47158,-1.830292 0.50271,-2.804583 1.10794,-1.107943 2.16077,-1.184522 3.28457,-0.238906 1.00594,0.846439 1.22093,1.730706 0.71512,2.94128 -0.22075,0.52832 -0.40136,1.217205 -0.40136,1.530858 0,1.197324 -1.26164,2.145276 -2.39123,1.79669 z m 1.0154,-1.426187 c 0.17462,-0.174625 0.3175,-0.645273 0.3175,-1.045884 0,-0.400611 0.13131,-1.016582 0.2918,-1.368822 0.42873,-0.940964 -0.0853,-1.76571 -1.10053,-1.76571 -0.99238,0 -1.60672,1.048319 -1.09476,1.868096 0.1738,0.278286 0.31599,0.795507 0.31599,1.149381 0,1.34741 0.56665,1.866289 1.27,1.162939 z m -3.12209,-9.087233 c 0,-1.424458 0.94598,-2.236933 2.6045,-2.236933 1.69034,0 2.40668,0.564314 2.60638,2.053225 0.13153,0.980625 0.23384,1.121775 0.81305,1.121775 0.63394,0 0.65547,-0.05192 0.49793,-1.201293 -0.0906,-0.660712 -0.29294,-1.44099 -0.44973,-1.73395 -1.1114,-2.076688 -5.74118,-2.076688 -6.85259,0 -0.15679,0.29296 -0.35916,1.073238 -0.44972,1.73395 -0.15943,1.163153 -0.14252,1.201293 0.53276,1.201293 0.62237,0 0.69742,-0.100952 0.69742,-0.938067 z m 3.91937,0.07817 c -0.0801,-0.830463 -0.12366,-0.859896 -1.27353,-0.859896 -1.14988,0 -1.19347,0.02943 -1.27354,0.859896 l -0.0829,0.859896 h 1.35645 1.35644 z m -9.76793,-5.556194 c 1.58048,-0.556109 1.73297,-0.682604 2.31252,-1.918285 0.5397,-1.150724 0.84154,-2.778125 0.51527,-2.778125 -0.0607,0 -0.68577,0.257316 -1.38906,0.571813 -1.76892,0.791029 -4.71709,0.791584 -6.64631,0.0012 -0.76938,-0.315179 -1.44133,-0.573057 -1.49323,-0.573057 -0.20489,0 0.42075,2.223589 0.87449,3.108021 0.38265,0.74586 0.80165,1.062135 2.04323,1.542309 1.95603,0.756486 1.7705,0.754227 3.78309,0.04608 z m -7.52278,-2.381308 c -0.10132,-0.472942 -0.21372,-0.893379 -0.24977,-0.934302 -0.11372,-0.129086 -1.72129,0.858973 -1.72305,1.059029 -10e-4,0.165163 1.2963,0.641579 1.93758,0.711307 0.12071,0.01312 0.13656,-0.363091 0.0352,-0.836034 z m 12.73447,0.43321 c 0.35028,-0.08792 0.63612,-0.236236 0.6352,-0.329601 -0.002,-0.208024 -1.62043,-1.149387 -1.7512,-1.018619 -0.0515,0.05153 -0.17335,0.491954 -0.2707,0.97871 -0.15408,0.770382 -0.11698,0.861977 0.28641,0.707183 0.25487,-0.0978 0.75,-0.249758 1.10029,-0.337673 z m -2.935,-3.909289 c 1.16417,-0.552447 2.56238,-1.18469 3.10714,-1.404986 1.16088,-0.469454 1.10379,-0.743617 -0.1989,-0.955014 -0.68979,-0.111937 -1.2772,0.01611 -2.19991,0.479566 -2.71057,1.361442 -6.91988,1.385316 -9.60898,0.0545 -0.95275,-0.471513 -1.53047,-0.594187 -2.24857,-0.477463 -0.53151,0.08639 -0.95627,0.262605 -0.94391,0.391578 0.0203,0.211833 3.26609,1.772344 5.61084,2.697585 1.64807,0.650331 4.07627,0.355991 6.48229,-0.785766 z m -1.36111,-2.431402 c 0.89413,-0.229558 1.73826,-0.526668 1.87583,-0.660245 0.15592,-0.15138 -0.0876,-0.940991 -0.64642,-2.096163 l -0.89657,-1.853298 h -3.12056 -3.12056 l -0.92021,1.827289 c -1.04565,2.076386 -1.02671,2.126355 1.04585,2.759073 1.73719,0.530335 3.77585,0.538564 5.78264,0.02334 z"
       id="path418" /></g></svg>
