<?xml version="1.0" encoding="UTF-8" standalone="no"?>
<!-- Created with Inkscape (http://www.inkscape.org/) -->

<svg
   version="1.1"
   id="svg182"
   width="238.48936"
   height="231.04538"
   viewBox="0 0 238.48936 231.04538"
   sodipodi:docname="Tala.svg"
   inkscape:version="1.2.2 (732a01da63, 2022-12-09)"
   xmlns:inkscape="http://www.inkscape.org/namespaces/inkscape"
   xmlns:sodipodi="http://sodipodi.sourceforge.net/DTD/sodipodi-0.dtd"
   xmlns="http://www.w3.org/2000/svg"
   xmlns:svg="http://www.w3.org/2000/svg">
  <defs
     id="defs186" />
  <sodipodi:namedview
     id="namedview184"
     pagecolor="#ffffff"
     bordercolor="#000000"
     borderopacity="0.25"
     inkscape:showpageshadow="2"
     inkscape:pageopacity="0.0"
     inkscape:pagecheckerboard="0"
     inkscape:deskcolor="#d1d1d1"
     showgrid="false"
     inkscape:zoom="2.665625"
     inkscape:cx="104.10317"
     inkscape:cy="125.48652"
     inkscape:window-width="1920"
     inkscape:window-height="1111"
     inkscape:window-x="-9"
     inkscape:window-y="-9"
     inkscape:window-maximized="1"
     inkscape:current-layer="g188" />
  <g
     inkscape:groupmode="layer"
     inkscape:label="Image"
     id="g188"
     transform="translate(-44.183641,-34.560667)">
    <path
       style="fill:#000000;stroke-width:0.32"
       d="m 152.97632,265.44035 c -1.42539,-0.46617 -2.72,-2.0579 -2.72,-3.34425 0,-1.19998 1.20007,-2.77324 2.79566,-3.66506 0.92134,-0.51496 20.06607,-0.5736 21.40235,-0.0656 0.6258,0.23793 1.13221,0.22984 1.75476,-0.028 0.78727,-0.3261 0.89236,-0.56039 1.04705,-2.33445 0.0946,-1.08458 0.32846,-3.05197 0.51974,-4.37197 0.19128,-1.32 0.48136,-3.768 0.64461,-5.44 0.16325,-1.672 0.44376,-4.264 0.62336,-5.76 0.1796,-1.496 0.47447,-4.088 0.65528,-5.76 0.18081,-1.672 0.47382,-4.264 0.65114,-5.76 0.17731,-1.496 0.40178,-3.59266 0.49883,-4.65923 l 0.17645,-1.93923 -4.26462,-6.45684 c -5.79134,-8.76838 -11.87508,-18.01326 -12.26461,-18.63735 -1.4415,-2.30951 -2.85714,-4.49553 -6.96,-10.74757 -2.596,-3.95585 -4.72422,-7.2931 -4.72938,-7.41612 -0.005,-0.12301 -0.42814,-0.68383 -0.93995,-1.24626 l -0.93056,-1.02261 -3.62006,3.60377 c -7.52154,7.48771 -17.14908,12.35847 -27.30005,13.81162 -4.10087,0.58706 -6.63943,0.58411 -10.31477,-0.012 -5.28976,-0.85792 -9.47044,-2.5511 -14.484031,-5.86605 -5.50839,-3.64211 -10.97478,-10.27069 -13.67979,-16.5882 l -1.20915,-2.82395 -3.19613,0.094 c -6.52516,0.19187 -13.928706,-2.03283 -18.818815,-5.65486 -3.529811,-2.61449 -7.832505,-7.87625 -9.713913,-11.87913 -1.829354,-3.89213 -2.387856,-5.4753 -3.330186,-9.44 -0.457302,-1.92403 -1.23545,-8.47395 -1.0608,-8.92909 0.08403,-0.21897 0.283786,-1.8995 0.443904,-3.73452 0.160122,-1.83501 0.448451,-4.12839 0.640733,-5.09639 0.192281,-0.968 0.431517,-2.22933 0.531632,-2.80297 0.100115,-0.57363 0.310118,-1.12212 0.466672,-1.21888 0.156553,-0.0968 0.284643,-0.45738 0.284643,-0.80138 0,-0.344 0.166483,-0.9475 0.369962,-1.34111 0.75918,-1.46857 0.91014,-1.83706 0.914102,-2.23132 0.01078,-1.07165 3.477994,-7.12564 6.187824,-10.80434 1.727766,-2.34552 6.713059,-7.330646 8.605408,-8.605136 0.834512,-0.56203 1.598378,-1.34494 1.697478,-1.7398 0.0991,-0.39485 1.22e-4,-1.86477 -0.219952,-3.26648 -0.625942,-3.986764 -0.550963,-14.40352 0.130058,-18.06855 0.550179,-2.96089 1.284042,-5.82225 1.867126,-7.28 0.158397,-0.396 0.412874,-1.044 0.565504,-1.44 1.019879,-2.646074 4.060362,-8.265722 4.60249,-8.506666 0.132,-0.05867 0.24,-0.23742 0.24,-0.397232 0,-1.428099 9.39647,-10.930313 12.88,-13.02495 0.484,-0.291027 0.88,-0.642093 0.88,-0.780147 0,-0.138051 0.1466,-0.251005 0.32578,-0.251005 0.17918,0 1.22493,-0.54 2.32388,-1.2 3.46811,-2.082842 6.68042,-3.394957 11.11034,-4.538163 0.616,-0.158967 1.696001,-0.438333 2.400001,-0.620816 0.704,-0.18248 2,-0.435789 2.88,-0.562912 2.51136,-0.362781 11.63679,-0.275027 13.76,0.132326 1.056,0.202599 2.64,0.505127 3.52,0.672282 2.83236,0.538009 5.15134,1.266931 7.61353,2.393161 1.01499,0.464266 1.95974,0.844122 2.09944,0.844122 0.1397,0 1.9507,1.008 4.02443,2.24 2.07374,1.232 3.91341,2.24 4.08816,2.24 0.36648,0 2.57599,-0.996858 2.81444,-1.269786 0.67948,-0.777721 6.93072,-3.303932 9.78665,-3.954924 1.21734,-0.277485 3.00535,-0.685994 3.97335,-0.907802 2.35427,-0.539453 13.00527,-0.520029 15.36,0.028 3.12907,0.728259 8.04872,2.296243 9.88766,3.151379 2.53744,1.179946 7.54605,4.561639 9.69814,6.547959 6.01736,5.553843 10.54409,13.092198 12.79311,21.304329 0.67949,2.481091 0.87057,2.815539 2.29866,4.023431 4.24497,3.590419 7.75731,7.667753 10.1829,11.820947 7.65038,13.099257 8.40768,28.851113 1.96426,40.856453 -4.9392,9.20268 -12.9234,16.6359 -23.2075,21.60599 -1.98948,0.96147 -3.78873,1.74945 -3.99834,1.75107 -0.94123,0.007 -0.65697,0.79011 0.91949,2.5323 1.41944,1.56866 13.38241,14.46812 19.31836,20.83064 3.38895,3.63248 6.43917,6.92581 8.14326,8.79229 0.968,1.06024 3.00392,3.22371 4.52427,4.80771 3.6512,3.80407 5.3001,5.7546 5.56183,6.57921 0.35198,1.109 -0.11564,2.69454 -1.05008,3.56046 -0.48181,0.44648 -6.48873,4.7544 -13.34871,9.57315 l -12.47269,8.76136 1.59269,0.25512 c 0.93317,0.14948 3.14501,0.0982 5.34144,-0.12381 5.02065,-0.50751 19.38636,0.0505 25.69125,0.9979 1.232,0.18513 3.176,0.47001 4.32,0.63306 6.79542,0.96858 11.67654,3.41354 12.31661,6.16942 0.1458,0.62775 2.8715,24.69088 3.72374,32.87413 0.17413,1.672 0.45956,3.184 0.63428,3.36 0.20213,0.2036 4.29839,0.29527 11.26153,0.25202 9.61176,-0.0597 11.13859,-10e-4 12.54384,0.48 1.31308,0.44971 1.70971,0.77271 2.21179,1.80122 0.55516,1.13723 0.56997,1.37152 0.16,2.53101 -0.24848,0.70277 -0.85834,1.57882 -1.35523,1.94676 l -0.90344,0.669 -63.25656,0.0493 c -34.79111,0.0271 -63.54456,-0.0449 -63.89656,-0.16 z m 35.2304,-7.44149 c 0.50177,-0.55328 0.64839,-1.38818 0.82892,-4.72 0.12063,-2.2263 0.36856,-5.99182 0.55095,-8.36782 0.59238,-7.71663 1.02649,-8.6493 4.04266,-8.68532 1.46012,-0.0174 1.94581,0.11903 2.60487,0.73194 0.44555,0.41436 0.92694,1.05549 1.06974,1.42474 0.14882,0.38482 -0.068,4.41374 -0.50793,9.44 -0.42215,4.82275 -0.77027,9.05749 -0.77358,9.41052 -0.009,0.90766 1.55138,1.56014 2.69258,1.12625 1.10906,-0.42166 11.71367,-0.42928 12.81854,-0.009 0.92668,0.35232 2.69777,-0.32152 2.75229,-1.04714 0.0162,-0.21548 0.0138,-3.19978 -0.005,-6.63178 -0.0383,-6.86786 0.17554,-8.34511 1.38236,-9.55194 0.65488,-0.65487 1.12371,-0.81114 2.43353,-0.81114 1.33771,0 1.77482,0.15234 2.49119,0.86821 l 0.86881,0.86821 0.0965,7.75333 c 0.0531,4.26433 0.22864,7.88572 0.39021,8.04753 0.16156,0.16182 2.19825,0.26372 4.52599,0.22644 2.52557,-0.0404 4.84901,0.0903 5.76168,0.32421 1.25801,0.32242 1.6775,0.31273 2.36383,-0.0546 0.77642,-0.41553 0.82108,-0.55856 0.64274,-2.05842 -0.36166,-3.04141 -0.8214,-9.61525 -0.99672,-14.25185 -0.17027,-4.5031 -0.15362,-4.66664 0.56428,-5.54286 0.65761,-0.80263 0.94682,-0.90286 2.60517,-0.90286 1.97985,0 2.9051,0.49992 3.42096,1.84837 0.14364,0.37547 0.55848,4.26347 0.92188,8.64 1.08889,13.11405 0.86436,11.78569 2.06557,12.22005 1.33576,0.48302 2.82119,0.48056 3.89004,-0.006 0.77694,-0.35399 0.82794,-0.4966 0.65805,-1.84 -0.26674,-2.10919 -0.86897,-7.66607 -1.80514,-16.65626 -0.17411,-1.672 -0.43815,-4.192 -0.58675,-5.6 -0.2963,-2.80745 -0.75451,-4.50709 -1.19453,-4.43084 -0.15605,0.027 -1.65172,0.34365 -3.32372,0.70357 -10.28112,2.21315 -29.6415,2.72825 -42.88,1.14085 -3.65741,-0.43855 -10.08402,-1.60971 -10.62383,-1.93605 -0.31718,-0.19174 -0.42839,0.61219 -1.86512,13.48247 -0.7073,6.336 -1.36869,12.24 -1.46975,13.12 -0.16685,1.4529 -0.11468,1.63316 0.56747,1.96071 1.21494,0.58337 2.36151,0.495 3.02163,-0.23289 z m 40.7696,-33.06372 c 5.24859,-0.34644 6.56129,-0.53753 8.26221,-1.20277 l 2.02221,-0.79089 -2.18221,-0.37119 c -6.21715,-1.05753 -8.26745,-1.17425 -20.58221,-1.17178 -10.40934,0.002 -13.38542,0.1046 -16.86391,0.5809 -2.32315,0.31811 -4.62715,0.69318 -5.12,0.83349 l -0.89609,0.25511 0.8,0.17749 c 0.44,0.0976 2.168,0.47488 3.84,0.83836 5.46055,1.18706 19.66813,1.58077 30.72,0.85128 z m -40.10511,-10.3441 c 1.12351,-0.836 2.58693,-1.95335 3.25205,-2.48301 0.66512,-0.52966 2.71316,-1.96845 4.55118,-3.19732 1.83804,-1.22887 3.62103,-2.48751 3.96222,-2.79699 0.34119,-0.30947 0.79719,-0.56268 1.01333,-0.56268 0.21615,0 0.441,-0.11402 0.49966,-0.25339 0.0587,-0.13936 1.04267,-0.89536 2.18667,-1.68 1.144,-0.78463 2.152,-1.50555 2.24,-1.60203 0.088,-0.0965 0.664,-0.52374 1.28,-0.94947 0.616,-0.42572 1.28811,-0.92279 1.49357,-1.10458 0.20547,-0.18179 1.33512,-0.97853 2.51034,-1.77053 1.17522,-0.792 2.51911,-1.73985 2.98643,-2.10634 0.46731,-0.36648 1.35366,-0.94031 1.96966,-1.27517 1.56299,-0.84965 2.88,-2.08212 2.88,-2.69512 0,-0.2843 -0.75662,-1.30136 -1.68138,-2.26013 -0.92476,-0.95879 -5.13676,-5.48151 -9.36,-10.0505 -4.22324,-4.56899 -8.8389,-9.53699 -10.25701,-11.04 -4.2346,-4.4881 -12.3555,-13.17884 -13.90041,-14.87577 -0.79266,-0.87067 -2.59941,-2.81467 -4.015,-4.32 -1.41559,-1.50533 -3.50127,-3.74497 -4.63485,-4.97697 -1.13358,-1.232 -3.14337,-3.39542 -4.4662,-4.80759 -3.12194,-3.3328 -5.21728,-5.57434 -13.00502,-13.91241 l -6.42591,-6.88 -10.04711,-2.05853 c -5.52591,-1.13219 -10.60207,-2.12074 -11.28035,-2.19678 -1.08415,-0.12154 -1.21186,-0.0661 -1.05646,0.45853 0.0972,0.32823 0.32784,1.67678 0.51246,2.99678 0.18463,1.32 0.47952,3.336 0.65531,4.48 0.17579,1.144 0.65871,4.312 1.07315,7.04 l 0.75354,4.96 2.81617,4.32 c 1.54889,2.376 3.99592,6.12 5.43784,8.32 3.05235,4.65711 6.86014,10.48757 13.2707,20.32 2.52447,3.872 5.916,9.056 7.53672,11.52 7.57612,11.51803 21.89401,33.39731 23.29678,35.6 0.47636,0.748 1.1008,1.36 1.38764,1.36 0.28685,0 1.44077,-0.684 2.56428,-1.52 z m -68.53489,-27.86497 c 4.55443,-0.95341 7.1243,-1.78695 10.42198,-3.38037 2.67935,-1.29464 4.07651,-2.08785 4.71114,-2.67466 0.23793,-0.22 0.55602,-0.4 0.70688,-0.4 0.15086,0 0.46457,-0.18474 0.69714,-0.41053 0.23258,-0.22579 0.92686,-0.76168 1.54286,-1.19086 2.67714,-1.8652 8,-7.57836 8,-8.58659 0,-0.32116 -1.03113,-2.15625 -2.29141,-4.07797 -1.26027,-1.92173 -3.18751,-4.86205 -4.28275,-6.53405 -1.09524,-1.672 -3.9521,-6.02934 -6.34859,-9.68298 -2.39649,-3.65364 -4.36147,-6.74964 -4.36663,-6.88 -0.005,-0.13036 -0.43019,-0.6995 -0.94452,-1.26475 l -0.93515,-1.02773 -6.97547,2.24973 c -3.83652,1.23734 -9.49548,3.07272 -12.57548,4.07862 l -5.6,1.8289 -0.16,6.17617 -0.16,6.17617 -1.04505,0.93294 c -1.208191,1.07857 -3.278901,1.2787 -4.485581,0.43351 -1.49898,-1.04993 -1.66937,-1.92336 -1.66937,-8.55726 v -6.20848 l -4.23565,-3.96742 c -2.32961,-2.18208 -4.97912,-4.6586 -5.88779,-5.50337 -2.72578,-2.5341 -2.96911,-4.1555 -0.9297,-6.19491 1.15876,-1.15876 2.74438,-1.42708 4.11418,-0.6962 0.38443,0.20512 3.18093,2.65312 6.21446,5.44 3.03352,2.78688 5.69752,5.06489 5.92,5.06224 0.534821,-0.006 2.732961,-0.77698 3.011861,-1.05587 0.12062,-0.12062 0.54681,-0.21931 0.94709,-0.21931 0.40028,0 0.81678,-0.144 0.92555,-0.32 0.10877,-0.176 0.54077,-0.32 0.96,-0.32 0.41923,0 0.85123,-0.144 0.96,-0.32 0.10877,-0.176 0.54077,-0.32 0.96,-0.32 0.41923,0 0.85123,-0.144 0.96,-0.32 0.10877,-0.176 0.52047,-0.32 0.91489,-0.32 0.39441,0 0.85391,-0.11896 1.02111,-0.26436 0.1672,-0.1454 0.952,-0.44981 1.744,-0.67647 0.792,-0.22667 1.728,-0.52329 2.08,-0.65917 0.352,-0.13588 1.288,-0.4325 2.08,-0.65917 0.792,-0.22666 1.5768,-0.53107 1.744,-0.67647 0.1672,-0.1454 0.6987,-0.26436 1.18111,-0.26436 0.48242,0 0.96612,-0.144 1.07489,-0.32 0.10877,-0.176 0.58527,-0.32692 1.05889,-0.33537 0.47361,-0.008 1.36511,-0.26286 1.98111,-0.56536 1.06873,-0.52481 1.1179,-0.62298 1.07409,-2.14463 -0.0252,-0.87705 -0.20632,-2.67464 -0.40236,-3.99464 -0.53729,-3.61769 -0.96111,-6.34824 -1.31622,-8.48 -0.17591,-1.056 -0.44416,-3.072 -0.59611,-4.48 -0.15194,-1.408 -0.42186,-2.92 -0.59982,-3.36 -0.17795,-0.44 -1.52866,-2.185 -3.00156,-3.87778 -1.47291,-1.69277 -3.61402,-4.19295 -4.75802,-5.55594 -1.144,-1.363 -3.09188,-3.556066 -4.32863,-4.873496 l -2.24863,-2.39532 -4.95137,2.31241 c -3.119521,1.45689 -5.510781,2.37116 -6.463421,2.47122 -1.39834,0.146866 -1.59688,0.074 -2.64,-0.96914 -1.3396,-1.3396 -1.47701,-2.63162 -0.45563,-4.28424 0.51692,-0.8364 1.386,-1.42384 3.76,-2.54151 1.69822,-0.79951 4.311681,-2.05498 5.807681,-2.789931 l 2.72,-1.336269 0.37856,-2.88 c 0.20821,-1.584 0.54283,-4.32 0.74361,-6.08 0.5465,-4.790666 0.96075,-6.427667 1.91615,-7.57209 0.76676,-0.918451 1.04208,-1.030988 2.52238,-1.030988 1.35272,0 1.81278,0.15111 2.47439,0.812713 1.19275,1.192746 1.23625,2.55737 0.3126,9.804915 -0.45523,3.572004 -0.82557,6.956004 -0.82297,7.52 0.004,0.831828 0.56273,1.66606 2.96,4.41819 6.24234,7.166366 10.3309,11.924066 10.71627,12.470106 0.22055,0.31249 0.86855,0.71722 1.44,0.89938 0.85756,0.27337 7.03754,1.60246 10.15901,2.18483 0.44,0.0821 1.88,0.37117 3.2,0.6424 3.20053,0.65762 5.03032,1.01162 6.4878,1.25511 0.66429,0.11099 1.28479,0.32636 1.37889,0.47861 0.2771,0.44837 2.37927,0.31657 2.87617,-0.18032 0.25142,-0.25143 0.45714,-0.81893 0.45714,-1.26112 0,-0.44218 0.144,-0.89297 0.32,-1.00174 0.176,-0.10877 0.32,-0.61277 0.32,-1.12 0,-0.50723 0.144,-1.01123 0.32,-1.12 0.176,-0.10877 0.32,-0.54077 0.32,-0.96 0,-0.41923 0.144,-0.85123 0.32,-0.96 0.176,-0.10877 0.32,-0.54077 0.32,-0.96 0,-0.41923 0.144,-0.85123 0.32,-0.96 0.176,-0.10877 0.32,-0.54077 0.32,-0.96 0,-0.41923 0.144,-0.85123 0.32,-0.96 0.176,-0.10877 0.32,-0.479226 0.32,-0.823226 0,-0.344 0.129,-0.8755 0.28666,-1.18111 0.58765,-1.13908 3.24469,-9.86565 3.23832,-10.63566 -0.004,-0.44 -0.53124,-1.664 -1.17244,-2.72 -1.46893,-2.419206 -6.08698,-10.214691 -6.87761,-11.609734 -0.89233,-1.574493 -0.71755,-3.02337 0.53167,-4.407354 1.16222,-1.287584 3.325,-1.445024 4.7632,-0.34673 0.60047,0.458557 2.56455,3.417533 4.9902,7.517988 l 4,6.761804 4.96,0.0068 c 5.48091,0.0076 7.0155,0.332266 8.22712,1.740858 0.85999,0.999798 0.94045,2.362195 0.22815,3.863248 -0.84236,1.77514 -1.93916,2.07309 -7.63155,2.07309 h -4.99956 l -0.3351,0.88 c -0.1843,0.484 -1.9158,5.82474 -3.84776,11.868306 -2.98147,9.3266 -3.44981,11.06871 -3.09699,11.52 0.52209,0.66778 10.42762,11.45176 13.86235,15.09169 1.41166,1.496 3.4205,3.656 4.46408,4.8 6.00356,6.58124 7.19444,7.68 8.32393,7.68 0.59816,0 1.17656,-0.144 1.28533,-0.32 0.10877,-0.176 0.45022,-0.32 0.75878,-0.32 0.30855,0 1.12806,-0.27147 1.82111,-0.60325 0.69306,-0.33179 2.356,-1.12081 3.69543,-1.75338 1.33943,-0.63257 2.61706,-1.36911 2.83918,-1.63675 0.22213,-0.26764 0.53674,-0.48662 0.69914,-0.48662 0.74816,0 5.19241,-3.38907 7.6655,-5.84552 6.1242,-6.08297 9.71652,-12.33934 10.69968,-18.63448 0.32868,-2.10457 0.35183,-9.17096 0.0367,-11.2 -0.85763,-5.521846 -3.89187,-12.714321 -7.22228,-17.119998 -1.41559,-1.872637 -3.57784,-4.037914 -8.30836,-8.32 -1.24429,-1.126336 -1.63463,-1.718813 -1.79203,-2.72 -0.68439,-4.353328 -3.2184,-10.484934 -6.1486,-14.877907 -1.67944,-2.517831 -5.64747,-6.632736 -8.26423,-8.570141 -8.38093,-6.205094 -20.60123,-7.884704 -31.2,-4.288266 -3.41448,1.158624 -5.54676,2.225018 -8.82213,4.412119 -3.65984,2.443824 -4.16423,2.40088 -8.29787,-0.706496 -3.94533,-2.965824 -9.47269,-5.446519 -15.36,-6.893613 -4.18066,-1.0276 -12.81512,-1.037786 -16.90234,-0.01994 -13.054611,3.251018 -23.394581,11.876026 -28.465447,23.744243 -2.674963,6.260672 -3.867228,13.826992 -3.159795,20.052586 0.216707,1.907078 0.761555,4.832387 1.210778,6.500677 0.827485,3.07308 0.849462,4.72394 0.0753,5.65675 -0.215859,0.26009 -1.698825,1.35978 -3.295485,2.443746 -10.917996,7.41222 -17.599072,20.48565 -17.041344,33.34624 0.319044,7.35677 2.181751,12.65716 6.507892,18.51838 1.550652,2.10086 4.995846,5.3216 5.692492,5.3216 0.104864,0 0.751767,0.35421 1.437559,0.78713 1.382342,0.87263 4.279993,1.82217 7.239651,2.37236 2.347468,0.43639 6.373898,0.47232 7.137448,0.0637 0.30505,-0.16326 1.41836,-0.39455 2.47402,-0.51399 1.77438,-0.20074 1.99638,-0.15236 2.93855,0.64042 0.61529,0.51773 1.16476,1.38716 1.38658,2.19398 2.06755,7.52026 5.52456,12.81697 11.31771,17.3406 3.789151,2.95878 7.361121,4.6076 12.412511,5.7296 2.2237,0.49393 7.45518,0.4527 9.99392,-0.0788 z"
       id="path300" />
  </g>
</svg>
